<?xml version="1.0" encoding="utf-8"?>
<!-- Generator: Adobe Illustrator 24.1.1, SVG Export Plug-In . SVG Version: 6.00 Build 0)  -->
<svg version="1.1" id="Layer_1" xmlns="http://www.w3.org/2000/svg" xmlns:xlink="http://www.w3.org/1999/xlink" x="0px" y="0px"
	 viewBox="0 0 512 512" style="enable-background:new 0 0 512 512;" xml:space="preserve">
<g>
	<path d="M448,153.9c-20.6-20.6-45.3-36.7-72.6-47.1c15.5-45.3,70-61.8,70-61.8C362,5.3,268.5-8.6,177.1,5.2
		c-48.9,9.7-93,36-124.8,74.4C17.9,119,0.9,170.6,4.8,222.8c4,52.1,28.7,100.5,68.6,134.3c12.8,11,41.3,27.9,41.8,28.8
		c-18.8,47.6-78.7,60.6-78.7,60.6c57.1,32.8,120.2,54,185.5,62.3c29.6,3.7,59.5,4.2,89.2,1.1c51.4-6.1,99.3-29.6,135.5-66.7
		c38.7-38.1,60.7-90,60.9-144.4C508,244.5,486.4,192.3,448,153.9L448,153.9z M411.6,411.7c-30.1,28.5-68.6,46.3-109.8,50.9
		c-25.3,2.7-50.8,2.6-76-0.3c-31-4.3-61.4-12.5-90.2-24.6c13.8-12.9,24.7-28.5,32.1-45.8c3.5-9.1,3.1-19.2-1.1-28
		c-28.2-58.1-15.9-127.7,30.5-172.7c60.6-58.7,157.2-58.2,217.2,1.3C473.3,254,472.1,351.5,411.6,411.7L411.6,411.7z"/>
</g>
</svg>

