<svg xmlns="http://www.w3.org/2000/svg"  version="1.1" x="0px" y="0px" viewBox="0 0 90 90" enable-background="new 0 0 90 90" xml:space="preserve"><path d="M80.2,2.8c0-0.4-0.3-0.7-0.7-0.7c-0.1,0-0.3,0.1-0.4,0.1l0,0l-5.3,3.5l0,0c-0.2,0.2-0.4,0.4-0.5,0.7l0,0l-5.7,16  c-3-7.1-6.4-11.7-6.8-12.3c0,0,0,0,0,0c0,0,0,0,0,0c-1.3-2.1-3.7-3.5-6.3-3.5c-4.2,0-7.6,3.4-7.6,7.6V18c-0.2,0-0.4,0-0.7,0  c0,0-0.1,0-0.1,0c0,0-0.1,0-0.1,0c-0.2,0-0.5,0-0.7,0v-3.8c0-4.2-3.4-7.6-7.6-7.6c-2.7,0-5,1.4-6.3,3.5c0,0,0,0,0,0c0,0,0,0,0,0  c-0.4,0.5-3.8,5.3-6.8,12.4l-0.2,0L18.6,6.4l0,0c-0.1-0.3-0.3-0.5-0.5-0.7l0,0l-5.3-3.5l0,0c-0.1-0.1-0.2-0.1-0.4-0.1  c-0.4,0-0.7,0.3-0.7,0.7c0,0.2,0.1,0.3,0.2,0.5l0,0l0,0c0,0,0,0,0,0l4.5,4l5,17.2l0,0c0.1,0.7,0.7,1.2,1.4,1.3l0,0l0.3,0  c-3.1,8.4-5.1,19.4-1.9,30.7l-4.6,3l0,0c-0.2,0.1-0.3,0.3-0.3,0.6c0,0.4,0.3,0.7,0.7,0.7c0.2,0,0.3-0.1,0.4-0.1l0,0l4.4-2.2  c0.5,1.4,1,2.8,1.7,4.2c0,0,0,0,0,0c0,0.1,0.1,0.2,0.1,0.3v0c0.1,0.2,0.3,0.3,0.6,0.3c0.4,0,0.7-0.3,0.7-0.7c0-0.1,0-0.2-0.1-0.3  c-0.7-1.5-1.2-2.9-1.7-4.4l1-0.5c0.1,0,0.1-0.1,0.2-0.1l0,0l0,0c0.3-0.2,0.5-0.6,0.5-1l1.6-19.2l8.6,0.2c1,0,1.8-0.8,1.8-1.8  c0-1-0.8-1.8-1.8-1.8l-10.1,0.2c-0.9,0-1.7,0.7-1.7,1.7l-0.7,20.2l0,0C20,45.1,22,34.5,25,26l8.9,1c0.1,0,0.3,0,0.4,0  c1,0,1.8-0.8,1.8-1.8s-0.8-1.8-1.8-1.8l-8-0.6c1.5-3.7,3.1-6.9,4.5-9.2c0.5-0.9,2.7-3.5,2.7-3.5c1.1-1.2,2.9-2,4.6-2  c3.4,0,5.7,2.5,5.7,5.9v4.4c-1.4,0.5-2.7,1.5-3.4,2.8l-0.1,0.2l-1.3,2.2l-0.2,0.3c-0.7,1.2-1,2.5-1,4c0,3.6,2.3,6.6,5.5,7.7  c-3,0.8-5.3,3-6.4,5.9l-0.2,0.4l-5.2,14.2l0,0c-1,2.1-1.6,4.4-1.6,6.9c0,8.2,6.1,14.9,14,15.9c0.1,0.5,0.3,1,0.7,1.3c0,0,0,0,0,0  c0.1,0.1,0.7,1.1,0.7,1.9v0c0,0.4,0.3,0.7,0.6,0.7c0.4,0,0.7-0.3,0.7-0.7v0c0-0.9,0.7-1.8,0.7-1.9l0,0c0.4-0.3,0.6-0.8,0.7-1.3  c7.9-1,14-7.8,14-15.9c0-2.4-0.5-4.7-1.5-6.8l-5.3-14.5l-0.1-0.3v0c-1.1-2.8-3.5-5-6.4-5.9c3.2-1.1,5.5-4.2,5.5-7.7  c0-1.3-0.3-2.6-0.9-3.7l-1.1-2.3l-0.1-0.1c-0.1-0.1-0.1-0.2-0.2-0.3l-0.1-0.2c-0.8-1.3-2-2.3-3.4-2.8V14c0-3.4,2.4-5.9,5.7-5.9  c1.8,0,3.6,1,4.7,2.2c0,0,2.1,2.4,2.6,3.3c1.3,2.3,3,5.4,4.5,9.1l-8.3,0.6c-1,0-1.8,0.8-1.8,1.8s0.8,1.8,1.8,1.8c0.1,0,0.3,0,0.4,0  l9.2-1c3,8.5,5,19.2,2.3,29.9l-0.3-0.2l-0.7-20.2c0-0.9-0.7-1.7-1.7-1.7l-10.1-0.2c-1,0-1.8,0.8-1.8,1.8c0,1,0.8,1.8,1.8,1.8  l8.6-0.2l1.6,19.2c0,0.4,0.2,0.8,0.5,1l0,0l0,0c0.1,0,0.1,0.1,0.2,0.1l1.3,0.6c-0.5,1.4-1,2.8-1.6,4.2c0,0.1-0.1,0.2-0.1,0.3  c0,0.4,0.3,0.7,0.7,0.7c0.2,0,0.4-0.1,0.6-0.3v0c0-0.1,0.1-0.2,0.1-0.3c0,0,0,0,0,0c0.6-1.3,1.2-2.7,1.6-4l4.1,2l0,0  c0.1,0.1,0.2,0.1,0.4,0.1c0.4,0,0.7-0.3,0.7-0.7c0-0.2-0.1-0.4-0.3-0.6l0,0l-4.3-2.8c3.3-11.4,1.3-22.5-1.8-31l0,0l0,0  c0.7-0.1,1.3-0.6,1.4-1.3l0,0l5-17.2l4.5-4c0,0,0,0,0,0l0,0l0,0C80.1,3.1,80.2,3,80.2,2.8z"></path><path d="M75.1,86.1L75.1,86.1l-6.3-2.8l-4.4-35.5c0-0.2-0.1-0.3-0.2-0.5l-2.6-6c-0.2-0.8-0.9-1.3-1.8-1.3c-1,0-1.8,0.8-1.8,1.8  c0,0.4,0.2,0.8,0.4,1.2l2.7,5.6c0,0.1,0.1,0.3,0.2,0.4l0,0l0,0v0h0L66.5,84c0,0.5,0.3,0.9,0.7,1l0,0l0,0c0.1,0,0.2,0.1,0.3,0.1  l7.1,2.2l0,0c0.1,0,0.2,0.1,0.3,0.1c0.4,0,0.7-0.3,0.7-0.7C75.5,86.4,75.3,86.1,75.1,86.1z"></path><path d="M30.5,48.9c0.1-0.1,0.1-0.2,0.2-0.4l2.7-5.6c0.3-0.3,0.4-0.7,0.4-1.2c0-1-0.8-1.8-1.8-1.8c-0.8,0-1.5,0.6-1.8,1.3l-2.6,6  c-0.1,0.2-0.1,0.3-0.2,0.5l-4.4,35.5L16.7,86l0,0c-0.3,0.1-0.5,0.3-0.5,0.7c0,0.4,0.3,0.7,0.7,0.7c0.1,0,0.2,0,0.3-0.1l0,0l7.1-2.2  c0.1,0,0.2-0.1,0.3-0.1l0,0l0,0c0.4-0.2,0.7-0.6,0.7-1L30.5,48.9L30.5,48.9z"></path></svg>
