<?xml version="1.0" encoding="UTF-8" standalone="no"?>
<svg
   xmlns:dc="http://purl.org/dc/elements/1.1/"
   xmlns:cc="http://creativecommons.org/ns#"
   xmlns:rdf="http://www.w3.org/1999/02/22-rdf-syntax-ns#"
   xmlns:svg="http://www.w3.org/2000/svg"
   xmlns="http://www.w3.org/2000/svg"
   xmlns:sodipodi="http://sodipodi.sourceforge.net/DTD/sodipodi-0.dtd"
   xmlns:inkscape="http://www.inkscape.org/namespaces/inkscape"
   version="1.1"
   id="svg2"
   xml:space="preserve"
   width="479.07999"
   height="192.12"
   viewBox="0 0 479.07999 192.12"
   sodipodi:docname="5x2.ai"><metadata
     id="metadata8"><rdf:RDF><cc:Work
         rdf:about=""><dc:format>image/svg+xml</dc:format><dc:type
           rdf:resource="http://purl.org/dc/dcmitype/StillImage" /></cc:Work></rdf:RDF></metadata><defs
     id="defs6"><clipPath
       clipPathUnits="userSpaceOnUse"
       id="clipPath18"><path
         d="M 0,144.09 H 359.31 V 0 H 0 Z"
         id="path16" /></clipPath></defs><sodipodi:namedview
     pagecolor="#ffffff"
     bordercolor="#666666"
     borderopacity="1"
     objecttolerance="10"
     gridtolerance="10"
     guidetolerance="10"
     inkscape:pageopacity="0"
     inkscape:pageshadow="2"
     inkscape:window-width="640"
     inkscape:window-height="480"
     id="namedview4" /><g
     id="g10"
     inkscape:groupmode="layer"
     inkscape:label="Logo5x2"
     transform="matrix(1.3333333,0,0,-1.3333333,0,192.12)"><g
       id="g12"><g
         id="g14"
         clip-path="url(#clipPath18)"><g
           id="g20"
           transform="translate(50.1499,66.0864)"><path
             d="m 0,0 c 0,0.965 -0.165,1.896 -0.496,2.782 -0.329,0.89 -0.775,1.665 -1.334,2.326 -0.558,0.661 -1.218,1.182 -1.982,1.563 -0.762,0.381 -1.6,0.571 -2.515,0.571 H -22.483 V -7.012 H -6.86 c 0.964,0 1.867,0.18 2.708,0.533 0.837,0.358 1.559,0.854 2.171,1.49 0.61,0.633 1.091,1.383 1.448,2.248 C -0.18,-1.879 0,-0.964 0,0 M -22.483,29.192 V 15.55 H -8.46 c 1.777,0 3.29,0.607 4.534,1.829 1.246,1.219 1.867,2.897 1.867,5.03 0,2.081 -0.571,3.734 -1.712,4.953 -1.145,1.219 -2.556,1.83 -4.23,1.83 z M 10.594,-1.981 c 0,-2.286 -0.456,-4.292 -1.371,-6.02 -0.915,-1.728 -2.174,-3.176 -3.774,-4.345 -1.6,-1.169 -3.455,-2.055 -5.564,-2.667 -2.109,-0.61 -4.357,-0.915 -6.745,-0.915 H -33 v 54.113 h 28.962 c 1.876,0 3.582,-0.406 5.105,-1.219 1.526,-0.815 2.819,-1.866 3.886,-3.163 1.069,-1.296 1.894,-2.769 2.477,-4.422 0.583,-1.65 0.878,-3.315 0.878,-4.99 0,-2.642 -0.661,-5.12 -1.982,-7.431 C 5.005,14.647 3.073,12.932 0.533,11.816 3.631,10.901 6.084,9.26 7.889,6.9 9.691,4.537 10.594,1.575 10.594,-1.981"
             style="fill:#dc4654;fill-opacity:1;fill-rule:nonzero;stroke:none"
             id="path22" /></g><g
           id="g24"
           transform="translate(75.3784,49.396)"><path
             d="m 0,0 c -4.115,0 -7.238,1.321 -9.375,3.964 -2.133,2.641 -3.2,6.556 -3.2,11.737 V 40.7 H -2.363 V 17.912 c 0,-6.149 2.211,-9.223 6.634,-9.223 1.981,0 3.898,0.596 5.752,1.79 1.855,1.194 3.365,3.011 4.534,5.452 V 40.7 H 24.77 V 12.501 c 0,-1.066 0.191,-1.83 0.573,-2.289 0.382,-0.455 1.002,-0.71 1.867,-0.76 V 0.763 C 26.193,0.562 25.343,0.435 24.658,0.382 23.969,0.332 23.349,0.307 22.791,0.307 c -1.83,0 -3.318,0.419 -4.46,1.256 C 17.187,2.4 16.514,3.558 16.312,5.03 l -0.229,3.2 C 14.303,5.489 12.017,3.43 9.223,2.06 6.429,0.686 3.355,0 0,0"
             style="fill:#dc4654;fill-opacity:1;fill-rule:nonzero;stroke:none"
             id="path26" /></g><g
           id="g28"
           transform="translate(125.7363,58.0854)"><path
             d="m 0,0 c 1.116,0 2.183,0.177 3.2,0.533 1.017,0.354 1.957,0.838 2.822,1.448 0.862,0.609 1.625,1.322 2.286,2.134 0.66,0.813 1.169,1.678 1.523,2.593 v 9.527 c -0.912,2.335 -2.351,4.214 -4.305,5.638 -1.957,1.423 -4.001,2.133 -6.134,2.133 -1.579,0 -2.999,-0.34 -4.27,-1.026 -1.269,-0.688 -2.364,-1.604 -3.275,-2.745 -0.915,-1.144 -1.616,-2.453 -2.097,-3.926 -0.483,-1.473 -0.725,-2.998 -0.725,-4.571 0,-1.628 0.279,-3.151 0.84,-4.574 C -9.577,5.74 -8.801,4.497 -7.812,3.43 -6.82,2.363 -5.666,1.522 -4.345,0.915 -3.024,0.304 -1.576,0 0,0 m -3.43,-8.156 c -2.692,0 -5.133,0.534 -7.316,1.6 -2.186,1.067 -4.078,2.528 -5.678,4.382 -1.6,1.855 -2.835,4.004 -3.697,6.442 -0.865,2.44 -1.296,5.03 -1.296,7.774 0,2.896 0.459,5.588 1.374,8.079 0.915,2.49 2.183,4.673 3.808,6.556 1.628,1.876 3.585,3.352 5.871,4.419 2.285,1.067 4.8,1.6 7.545,1.6 3.098,0 5.818,-0.698 8.153,-2.096 2.338,-1.399 4.27,-3.266 5.793,-5.601 v 7.012 h 8.919 V -6.022 c 0,-2.947 -0.562,-5.588 -1.678,-7.927 -1.119,-2.335 -2.655,-4.317 -4.611,-5.942 -1.957,-1.628 -4.296,-2.872 -7.012,-3.737 -2.72,-0.862 -5.679,-1.293 -8.879,-1.293 -4.369,0 -8.041,0.723 -11.012,2.171 -2.974,1.448 -5.526,3.495 -7.66,6.134 l 5.563,5.412 c 1.523,-1.88 3.443,-3.353 5.753,-4.42 2.314,-1.066 4.763,-1.6 7.356,-1.6 1.575,0 3.086,0.217 4.534,0.649 1.448,0.43 2.732,1.103 3.849,2.018 1.119,0.915 1.994,2.084 2.629,3.504 0.636,1.424 0.953,3.102 0.953,5.031 v 5.03 C 8.509,-3.277 6.655,-5.042 4.267,-6.289 1.879,-7.532 -0.686,-8.156 -3.43,-8.156"
             style="fill:#dc4654;fill-opacity:1;fill-rule:nonzero;stroke:none"
             id="path30" /></g><g
           id="g32"
           transform="translate(201.0503,104.8808)"><path
             d="m 0,0 v -54.742 h -5.321 v 25.597 h -32.458 v -25.597 h -5.399 V 0 h 5.399 v -24.364 h 32.458 l 0,24.364 z"
             style="fill:#232323;fill-opacity:1;fill-rule:nonzero;stroke:none"
             id="path34" /></g><g
           id="g36"
           transform="translate(240.5044,72.3442)"><path
             d="m 0,0 c -0.153,2.159 -0.655,4.125 -1.503,5.898 -0.847,1.773 -1.926,3.301 -3.237,4.587 -1.312,1.286 -2.826,2.287 -4.549,3.009 -1.723,0.718 -3.561,1.079 -5.513,1.079 -1.954,0 -3.804,-0.361 -5.552,-1.079 -1.748,-0.722 -3.276,-1.723 -4.587,-3.009 C -26.252,9.199 -27.307,7.658 -28.104,5.86 -28.9,4.06 -29.374,2.108 -29.528,0 Z m -14.802,-22.978 c -2.929,0 -5.615,0.553 -8.055,1.661 -2.445,1.104 -4.566,2.619 -6.363,4.548 -1.801,1.927 -3.2,4.148 -4.201,6.667 -1.004,2.519 -1.506,5.217 -1.506,8.098 0,2.826 0.502,5.486 1.506,7.981 1.001,2.491 2.391,4.674 4.163,6.55 1.773,1.876 3.894,3.367 6.36,4.474 2.468,1.104 5.138,1.656 8.018,1.656 2.931,0 5.616,-0.552 8.057,-1.656 2.44,-1.107 4.536,-2.61 6.284,-4.511 C 1.208,10.588 2.569,8.405 3.549,5.936 4.524,3.47 5.014,0.847 5.014,-1.929 v -1.233 c 0,-0.411 -0.029,-0.693 -1.279,-0.847 h -34.387 c 1.357,-2.159 1.855,-4.151 2.706,-5.976 0.846,-1.824 1.938,-3.405 3.275,-4.742 1.336,-1.335 2.864,-2.377 4.586,-3.121 1.723,-0.747 3.562,-1.12 5.516,-1.12 1.283,0 2.569,0.179 3.852,0.54 1.286,0.361 2.469,0.85 3.549,1.465 1.079,0.618 2.055,1.374 2.93,2.275 0.872,0.9 1.54,1.888 2.005,2.967 l 4.548,-1.232 c -0.618,-1.49 -1.493,-2.84 -2.623,-4.048 -1.129,-1.207 -2.44,-2.262 -3.93,-3.162 -1.493,-0.9 -3.137,-1.594 -4.935,-2.08 -1.801,-0.489 -3.677,-0.735 -5.629,-0.735"
             style="fill:#232323;fill-opacity:1;fill-rule:nonzero;stroke:none"
             id="path38" /></g><g
           id="g40"
           transform="translate(300.7056,49.3667)"><path
             d="m 0,0 c -3.138,0 -6.196,0.515 -9.177,1.544 -2.98,1.026 -5.55,2.517 -7.708,4.471 l 2.391,3.548 c 2.259,-1.851 4.558,-3.241 6.898,-4.164 2.338,-0.924 4.844,-1.389 7.518,-1.389 3.237,0 5.822,0.656 7.749,1.967 1.929,1.311 2.892,3.171 2.892,5.59 0,1.13 -0.257,2.068 -0.772,2.815 -0.515,0.743 -1.273,1.399 -2.274,1.964 -1.001,0.564 -2.262,1.066 -3.778,1.506 -1.518,0.435 -3.278,0.884 -5.283,1.349 -2.311,0.564 -4.316,1.129 -6.014,1.694 -1.694,0.564 -3.096,1.208 -4.201,1.929 -1.107,0.718 -1.926,1.606 -2.466,2.66 -0.539,1.051 -0.809,2.375 -0.809,3.969 0,2.005 0.395,3.777 1.192,5.321 0.797,1.543 1.876,2.814 3.241,3.818 1.362,1.001 2.955,1.76 4.778,2.274 1.826,0.512 3.764,0.769 5.823,0.769 3.084,0 5.886,-0.499 8.404,-1.503 2.517,-1.001 4.549,-2.324 6.09,-3.971 l -2.545,-3.084 c -1.489,1.543 -3.303,2.701 -5.433,3.469 -2.136,0.772 -4.358,1.158 -6.67,1.158 -1.39,0 -2.673,-0.141 -3.856,-0.424 -1.182,-0.285 -2.223,-0.734 -3.121,-1.348 -0.9,-0.619 -1.609,-1.403 -2.121,-2.353 -0.515,-0.951 -0.771,-2.071 -0.771,-3.354 0,-1.079 0.178,-1.955 0.539,-2.623 0.358,-0.668 0.951,-1.246 1.772,-1.735 0.822,-0.486 1.864,-0.922 3.125,-1.308 1.258,-0.386 2.786,-0.785 4.587,-1.195 2.569,-0.618 4.831,-1.233 6.786,-1.851 1.951,-0.618 3.582,-1.337 4.894,-2.159 1.311,-0.822 2.299,-1.826 2.967,-3.008 0.669,-1.183 1.004,-2.62 1.004,-4.318 0,-3.701 -1.415,-6.629 -4.241,-8.79 C 8.583,1.08 4.781,0 0,0"
             style="fill:#232323;fill-opacity:1;fill-rule:nonzero;stroke:none"
             id="path42" /></g><g
           id="g44"
           transform="translate(344.1909,52.0649)"><path
             d="m 0,0 c -0.308,-0.153 -0.759,-0.357 -1.349,-0.614 -0.589,-0.258 -1.27,-0.515 -2.043,-0.773 -0.771,-0.257 -1.646,-0.489 -2.622,-0.693 -0.976,-0.203 -2.005,-0.307 -3.084,-0.307 -1.13,0 -2.209,0.154 -3.238,0.461 -1.028,0.308 -1.926,0.784 -2.698,1.427 -0.772,0.641 -1.386,1.45 -1.851,2.429 -0.461,0.975 -0.693,2.105 -0.693,3.391 V 34.08 h -5.553 v 4.163 h 5.553 v 13.569 h 5.242 V 38.243 h 9.252 V 34.08 h -9.252 V 6.786 c 0.104,-1.49 0.628,-2.582 1.581,-3.275 0.951,-0.697 2.043,-1.041 3.276,-1.041 1.49,0 2.801,0.241 3.934,0.73 1.129,0.489 1.851,0.835 2.158,1.042 z"
             style="fill:#232323;fill-opacity:1;fill-rule:nonzero;stroke:none"
             id="path46" /></g><g
           id="g48"
           transform="translate(255.6411,104.8808)"><path
             d="m 0,0 v -4.568 h 8.42 v -4.927 h 4.747 v -3.672 h 4.389 v -4.299 h 4.21 v -8.868 h 4.568 l 0,26.334 z"
             style="fill:#dc4654;fill-opacity:1;fill-rule:nonzero;stroke:none"
             id="path50" /></g><g
           id="g52"
           transform="translate(264.8813,89.9682)"><path
             d="m 0,0 -1.02,1.029 c -8.997,-6.614 -14.669,-18.36 -14.669,-31.41 0,-10.267 3.684,-19.561 9.636,-26.28 l 3.228,3.322 c -5.831,6.47 -9.461,15.526 -9.461,25.556 0,11.414 4.989,21.272 12.286,27.783"
             style="fill:#232323;fill-opacity:1;fill-rule:nonzero;stroke:none"
             id="path54" /></g><g
           id="g56"
           transform="translate(255.6411,64.8725)"><path
             d="m 0,0 c 0,9.532 4.033,18.078 10.416,23.909 l -0.911,0.92 C 2.158,18.484 -2.329,8.305 -2.329,-2.865 c 0,-9.706 3.575,-18.477 9.33,-24.774 l 3.523,3.627 C 4.079,-18.177 0,-9.587 0,0"
             style="fill:#232323;fill-opacity:1;fill-rule:nonzero;stroke:none"
             id="path58" /></g><g
           id="g60"
           transform="translate(259.4341,67.5737)"><path
             d="M 0,0 C 0,7.795 3.063,14.658 7.693,20.126 L 6.888,20.94 C 0.866,15.193 -2.693,6.773 -2.693,-2.343 c 0,-9.35 3.967,-17.744 10.262,-23.508 l 2.569,2.644 C 3.915,-17.493 0,-9.214 0,0"
             style="fill:#232323;fill-opacity:1;fill-rule:nonzero;stroke:none"
             id="path62" /></g><g
           id="g64"
           transform="translate(260.5679,67.5737)"><path
             d="m 0,0 c 0,-8.903 3.681,-16.93 9.576,-22.617 l 3.33,3.429 c -6.329,5.397 -10.32,13.255 -10.32,22.01 0,5.985 1.876,11.543 5.077,16.19 L 6.949,19.733 C 2.611,14.355 0,7.491 0,0"
             style="fill:#232323;fill-opacity:1;fill-rule:nonzero;stroke:none"
             id="path66" /></g></g></g></g></svg>
