<svg id="Layer_1" data-name="Layer 1" xmlns="http://www.w3.org/2000/svg" viewBox="0 0 1296.4 210.2"><defs><style>.cls-1{fill:#e10101;}</style></defs><path class="cls-1" d="M467.91,36.47v6.11c0,31.1-.1,62.19,0,93.29a65.55,65.55,0,0,0,1.61,14c1.1,4.93,4.53,8.07,9.48,9.66a52.18,52.18,0,0,0,30.53.77c8.93-2.48,12.47-6.68,13.3-15.91.29-3.26.42-6.55.42-9.83q0-45.91,0-91.83V36.15h16c.05,1.32.16,4.35.16,5.64,0,32.31.06,64.62,0,96.94A72.35,72.35,0,0,1,538,152.82c-1.93,9.45-7.72,15.88-17,18.71a76.9,76.9,0,0,1-39.63,1.87c-8.26-1.83-15.2-5.68-20.41-12.43a12.88,12.88,0,0,0-1.43-1.37c-10.77,14.61-26.29,16-42.38,15.21a79.62,79.62,0,0,1-16.86-2.73c-12.26-3.3-19.16-12.2-19.85-24.88-.31-5.7-.49-11.41-.51-17.11q-.11-43.74-.1-87.46V36.31H396.3v6q0,46.28,0,92.56a78.83,78.83,0,0,0,.92,13c1.07,6.28,4.93,10.46,11.15,12.17a56.47,56.47,0,0,0,30.27.16c7.83-2.12,12-7.55,12.62-16.31.29-4.24.35-8.5.35-12.75,0-29.64.1-59.28,0-88.92,0-6.73.86-6,4.75-5.8C459.91,36.63,463.68,36.47,467.91,36.47Z"/><path class="cls-1" d="M671.53,175.06H655.41V123.49H582.86V174.9H566.79c-.06-1.06-.18-3.59-.17-4.74q.06-50.31.19-100.6a51.75,51.75,0,0,1,.91-9.78c2.17-11,9.33-17.41,19.84-20a133.28,133.28,0,0,1,60.77-.55c12.28,2.68,20.88,9.69,22.52,23.05a82.7,82.7,0,0,1,.73,9.81q.1,49.38.08,98.77C671.67,171.69,671.58,174,671.53,175.06ZM655,109a3.93,3.93,0,0,0,.39-1.16c-.1-13.83.09-27.68-.47-41.51-.29-7.29-4.5-12.52-11.83-14.44a81.5,81.5,0,0,0-12.86-2.36c-11.17-1-22.35-1-33.34,1.75-6.75,1.68-11.68,5.42-13.18,12.54a40.86,40.86,0,0,0-.8,8c-.11,11.29-.1,22.58-.12,33.87,0,1.06.14,2.12.22,3.35Z"/><path class="cls-1" d="M697.73,128.11h16.32c0,5.36-.25,10.55.05,15.72.54,9.34,5.09,14.23,14.22,16.31A94.1,94.1,0,0,0,772.4,160c8.77-2.18,12.65-6.38,13.42-15.35a88.88,88.88,0,0,0,.07-14.13c-.55-7.28-4.88-11.89-11.78-13.59-6.48-1.59-13.12-2.5-19.7-3.64-11.37-2-22.86-3.4-34.11-5.93-15.57-3.49-22.75-13.06-22.72-28.92,0-4.85.2-9.71.55-14.55.81-11,6.38-18.9,16.78-22.51a79.94,79.94,0,0,1,19.17-4c15.28-1.33,30.64-1.71,45.68,2.24,15.25,4,21.46,11.62,22.57,27.32.24,3.37,0,6.77,0,10.46H786.61c-.24-3.52-.43-7-.73-10.48-.72-8-4.82-12.81-12.64-15-15.26-4.18-30.57-3.78-45.85-.32-8.64,2-12.72,6.93-13.32,15.91A94.22,94.22,0,0,0,714,80.94c.56,7.1,4,11.3,11,12.67,11.32,2.24,22.75,3.88,34.11,5.89,7.65,1.36,15.37,2.54,22.88,4.46,13,3.35,20.32,12.85,20.46,26.25.06,6.06-.12,12.14-.62,18.18-.89,10.71-6.47,18.49-16.66,21.75a113.81,113.81,0,0,1-23.48,4.57c-13.23,1.28-26.51.91-39.54-2.17-16.49-3.89-22.77-11-24.33-27.77C697.31,139.37,697.73,133.89,697.73,128.11Z"/><path class="cls-1" d="M353.35,105.64c0,11.91.15,23.81,0,35.72-.3,19-8.26,28.43-27,31.56-17.89,3-35.83,3.16-53.7-.51-16.51-3.4-24.63-12.33-24.9-29.23q-.58-37.89,0-75.8c.29-16.72,8.7-25.7,26.62-28.95a138.12,138.12,0,0,1,54.76.6c16.46,3.61,23.9,12.68,24.17,29.44.19,12.39,0,24.78,0,37.17Zm-16.52-.34h0c0-12.86.38-25.74-.14-38.59-.34-8.45-5-13.39-13.19-15.28a100.38,100.38,0,0,0-45.9,0c-8.44,2-12.87,7.29-13.44,15.93q-.6,9.26-.56,18.55c.08,19.17.08,38.35.57,57.52.24,9.32,4.79,14.19,13.72,16.39a95.3,95.3,0,0,0,45.14,0c8.73-2.05,13.22-6.37,13.62-15.21C337.26,131.53,336.83,118.4,336.83,105.3Z"/><path class="cls-1" d="M829.13,36.32c5,0,9.67,0,14.39,0,18.49.16,37,0,55.46.71,6,.23,12.23,2.14,17.85,4.49,9,3.77,14.48,11,15.87,20.91a167.53,167.53,0,0,1,.18,44.4c-1.77,14-11.32,23.12-25.87,25.55a114.32,114.32,0,0,1-17,1.54c-13.5.22-27,.07-40.51.07h-4.3v40.86h-16Zm16.29,14.27c-.14,1.28-.33,2.22-.33,3.16q0,32.43,0,64.87c0,1.79-.1,3.38,2.53,3.34,16.43-.24,32.87,0,49.27-.7,11.84-.5,19-7.06,20-18.73a248.74,248.74,0,0,0,0-33.77c-.51-9.21-6.45-14.65-15.24-16.8a45.63,45.63,0,0,0-10.08-1.28c-14.12-.15-28.24-.08-42.35-.09Z"/><path class="cls-1" d="M1067.38,102.84a29,29,0,0,0,3.5,1c12.25,1.49,19.58,8.53,22.43,20.4a66.12,66.12,0,0,1,.39,29.16c-2.2,10.61-8.73,17.07-19,19.47a67.92,67.92,0,0,1-15.86,2.17c-18.25-.14-36.49.29-54.73-.18a19.23,19.23,0,0,1-2.14-.36V42.08c0-4.81,0-5,5-5.15,16.78-.34,33.56-.67,50.34-.61,4.56,0,9.17,1.13,13.64,2.21,11.06,2.65,17.61,10,18.88,21.18a95.7,95.7,0,0,1,0,22.63c-1.46,11.45-7.55,17.22-18.69,19.66Zm-48.48,57.89c4.87,0,9.47.07,14.06,0,9.48-.19,19-.09,28.43-.83s14.35-5.34,15.65-14.79a63.54,63.54,0,0,0,.16-16c-1.33-11.25-6.09-16.68-17.31-17.75-13.51-1.29-27.16-1.12-41-1.6Zm0-63.8c11.81,0,23.23.07,34.65-.05a38.88,38.88,0,0,0,7.93-1.13c6.39-1.42,10.9-5.13,11.82-11.78a72.78,72.78,0,0,0,.67-15.53c-.76-9.81-4.91-14.76-14.59-15.61-12.81-1.12-25.73-.94-38.6-1.3-2.5-.07-2.12,1.85-2.12,3.37q0,19.68,0,39.36C1018.63,95.09,1018.77,95.92,1018.87,96.93Z"/><path class="cls-1" d="M1252.84,175.06h-16.95v-8.75q0-47.53,0-95.08c0-6.62-.36-13.25-.54-19.88-6.66-.14-13.32-.35-20-.41-7.53-.08-15.06,0-22.86,0V36.12h103.9v14.6c-1.22.07-2.5.19-3.78.19-11.92,0-23.84.12-35.76-.06-3.2-.05-4.1.81-4.09,4,.12,37.16.07,74.32.07,111.47Z"/><path class="cls-1" d="M1202.11,160.48c.32,4.48.61,8.56.92,13-2.29.22-4.3.54-6.31.58-15.2.33-30.41.64-45.61.85a45.6,45.6,0,0,1-8.34-.62c-11.93-2.08-19.24-10.19-19.31-22.38-.21-36.56-.11-73.12-.12-109.68,0-.69.18-5,.3-5.95h16.49V143.87c0,1.34,0,2.68,0,4,.21,8.58,4,12.5,12.59,12.56,15.09.1,30.18,0,45.27,0Z"/><path class="cls-1" d="M134.31,70.85c-1.11-2.87-1.81-5.11-2.87-7.17A3.18,3.18,0,0,0,129,62.27c-11.63,1-23.27,2-34.86,3.38a18.32,18.32,0,0,0-8.48,3.54c-7.67,5.86-16.19,6-25.19,5C39.41,71.9,22,61.63,5.32,49.69,3.6,48.45,2.3,46.63,0,44.25a77.7,77.7,0,0,1,8.12-1.67c24.76-2.19,49.42-.92,74,2.53,15.47,2.18,30.85,5.08,46.28,7.58,1,.16,2.19-.39,3.29-.61-.76-.8-1.38-2-2.31-2.34A34.9,34.9,0,0,1,111,34.85c-.43-.73-.84-1.46-1.71-3,6.89,3.59,9.15,12.32,16.54,12.34-1.75-6.6-3.56-13.41-5.37-20.21l1.25-.46c.67,1.67,1.38,3.33,2,5a29.22,29.22,0,0,1,1.83,5.64c.77,5.38,4.09,8.14,10,9.76-5.46-8.88-3.87-17.51-1.43-26.14l.94,0c-.3,4-.54,8-.92,12-.23,2.46,4.13,11.4,6.3,12.45a4.17,4.17,0,0,0,1.81.23c3.55,0,7.11,0,11.09,0-.4-2-.86-4-1.16-6a12.2,12.2,0,0,1,6-12.63,8.12,8.12,0,0,0,2.5-2.06c3.8-5.41,8.51-5.23,11.81.52.17.31.38.6.5.8,6.68-7.77,3.83-15.26-1.87-23.17,3.63,1.45,7.88,7.76,7.56,11.91-.34,4.44-2.11,8.76-3.17,12.85,3.23,3.49,6.52,7.15,10,10.64a3.33,3.33,0,0,0,2.77.52c2.13-.63,4.14-1.67,6.24-2.42,5.19-1.87,13.28.76,17.4,6.16-4.48-1.92-8.13-4.5-12-4.84s-7.76,1.6-11.65,2.54l.1,1a28.2,28.2,0,0,1,2.93,2,6.23,6.23,0,0,1,.44,9.23c-1.9,1.87-3.72,3.83-5.54,5.79-3.87,4.19-8.73,4.19-13.79,3.24-1.2-.22-2.36-.66-3.71-1.05,0,4.19,0,8.2,0,12.21a2.7,2.7,0,0,0,.16,1.07c.93,2,10.47,6.69,12.85,6.47,3.21-.31,6.43-.54,9.65-.76a4,4,0,0,1,2.17.47c-8.51,2.62-17,4.46-26.18-1.44,1.94,5.53,3.84,9,9,10.1,4.12.83,8.06,2.59,12.09,3.94-.15.47-.3.93-.44,1.4l-20.6-5.3c0,7.29,8.72,9.48,12.27,16.56-7.13-4.79-13.45-8.8-16.06-16.51a25.17,25.17,0,0,0-2.27-4.67c-.38-.63-1.21-1-1.84-1.45-.31.83-1,1.72-.87,2.47,1,5.74,2.12,11.45,3.14,17.18,5.69,31.81,9.51,63.78,7.78,96.17-.26,4.84-1.1,9.64-1.67,14.46l-1.29.29a19.9,19.9,0,0,1-3.53-2.94c-14.59-19.29-26.23-39.85-26.26-64.95,0-3.83.47-8.44,2.58-11.34,6.14-8.46,7.19-18,7.93-27.8q.72-9.83,1.93-19.61c.27-2.25-.06-3.44-2.44-4.06a45.76,45.76,0,0,1-6.15-2.61c4.47,10.46-1.06,18.07-6.87,25.47-15.77,20.09-35.58,35.15-58.41,46.4-7.84,3.86-15.72,7.66-23.58,11.48l-.65-.7c.78-1.75,1.54-3.51,2.35-5.25,8.59-18.47,17.42-36.92,30.84-52.4,8.17-9.42,17.92-17.47,27.05-26a29.82,29.82,0,0,1,5.58-3.69C122.23,69.12,127.75,67.9,134.31,70.85Z"/></svg>