<svg width="1899" height="429" viewBox="0 0 1899 429" fill="none" xmlns="http://www.w3.org/2000/svg">
<path d="M214.86 0.290039C96.6198 0.290039 0.759766 96.1501 0.759766 214.39C0.759766 332.63 96.6198 428.49 214.86 428.49C333.1 428.49 428.96 332.63 428.96 214.39C428.96 96.1501 333.1 0.290039 214.86 0.290039ZM214.86 395.51C114.83 395.51 33.7398 314.42 33.7398 214.39C33.7398 114.36 114.83 33.2701 214.86 33.2701C314.89 33.2701 395.98 114.36 395.98 214.39C395.98 314.42 314.89 395.51 214.86 395.51Z" fill="#E10000"/>
<path d="M877.8 114.22H855.4C855.4 114.22 855.43 207.98 855.45 251.3C855.45 256.42 855.12 261.49 853.9 266.48C852.26 273.21 848.58 278.49 841.96 280.82C825.9 286.47 809.67 286.47 793.6 280.85C786.98 278.54 783.27 273.26 781.51 266.59C780.08 261.17 779.8 255.62 779.8 250.03C779.81 207.94 779.89 114.22 779.89 114.22H757.42C757.42 114.22 757.43 207.01 757.4 249.13C757.4 254 757.26 258.87 756.42 263.69C754.67 273.76 748.86 280.21 738.92 282.59C725.97 285.69 712.92 285.64 699.97 282.59C691.09 280.5 685.24 275.03 683.13 265.99C682.6 263.74 682.33 261.42 682.15 259.11C681.91 256.11 681.79 253.09 681.79 250.08C681.77 206 681.83 114.21 681.83 114.21H659.21C659.21 114.21 659.27 208.06 659.32 250.72C659.32 255.7 659.49 260.71 660.01 265.65C661.73 281.91 669.74 293.33 685.78 298.45C697.78 302.28 710.16 303.12 722.56 302.71C740.67 302.11 757.25 297.59 768.63 281.27C775.48 291.33 784.7 297.21 795.87 300.04C813.59 304.53 831.35 303.57 848.87 299.21C860.51 296.31 869.79 289.83 874.31 278.05C877.13 270.69 877.79 262.95 877.8 255.15C877.83 217.8 877.8 114.21 877.8 114.21V114.22Z" fill="#E10000"/>
<path d="M1058.79 162.36C1058.79 156.77 1058.36 151.25 1057.43 145.75C1055.53 134.47 1049.67 126.09 1039.41 120.87C1029.94 116.05 1019.72 114.21 1009.28 113.25C989.1 111.39 968.99 111.54 949.04 115.6C926.66 120.15 915.74 132.18 915.13 154.87C914.51 178.16 914.84 224.8 914.76 224.8C914.76 247.01 914.79 269.23 914.71 291.44H914.7V300.98H937.38V292.44C937.26 273.11 937.23 235.28 937.23 235.28V231.71H1036.4L1036.42 235.71C1036.42 235.71 1036.36 272.87 1036.3 291.45V300.99H1058.85C1058.85 300.99 1058.76 205.74 1058.79 162.39V162.36ZM1036.41 212.25H937.25V209.02C937.25 209.02 937.37 175.87 937.41 159.3C937.41 156.05 937.75 152.84 938.51 149.66C941.08 138.86 949.11 134.42 958.95 132.37C975.7 128.89 992.59 129.37 1009.47 131.31C1012.67 131.68 1015.81 132.66 1018.93 133.54C1030.12 136.7 1035.34 144.58 1036.03 155.77C1036.35 160.85 1036.33 165.96 1036.34 171.06C1036.38 183.69 1036.42 208.96 1036.42 208.96V212.25H1036.41Z" fill="#E10000"/>
<path d="M1208.9 204.65C1192.27 200.3 1175.12 198.78 1158.26 195.69C1149.94 194.17 1141.53 193.09 1133.25 191.39C1122.08 189.09 1116.61 182.16 1116.48 170.74C1116.43 166.57 1116.43 162.39 1116.59 158.21C1117.1 144.04 1122.47 136.18 1136.19 133.21C1157.26 128.64 1178.56 128.26 1199.53 134.34C1209.18 137.14 1213.91 144.25 1215.07 154.04C1215.72 159.55 1215.59 169.3 1215.59 169.3H1238V163.7C1237.95 160.15 1238.05 156.82 1237.74 153.29C1235.91 132.46 1227.55 122.46 1207.45 116.78C1193.91 112.95 1179.98 112.79 1166.02 112.41C1151.7 112.78 1137.34 113.1 1123.35 117.12C1106.92 121.85 1096.71 131.87 1094.8 149.46C1093.96 157.23 1094.18 164.98 1094.16 172.75C1094.13 190.24 1103.77 203.43 1120.44 208.78C1132.65 212.7 1145.46 213.56 1157.99 215.81C1170.08 217.98 1182.28 219.51 1194.35 221.77C1204.58 223.68 1212.82 228.58 1214.9 239.76C1216.39 247.78 1215.96 255.96 1214.66 264.01C1213.25 272.7 1208.16 278.74 1199.73 281.1C1177.94 287.19 1155.94 286.93 1134.06 281.66C1123.67 279.16 1118.2 271.9 1116.99 261.27C1116.67 258.44 1116.55 255.6 1116.51 252.76H1116.53V243.15V237.84H1094.1V250.29C1094.06 257.11 1094.17 263.92 1095.59 270.66C1097.78 281.12 1103.33 289.11 1112.97 294.1C1118.37 296.9 1124.06 298.77 1130 299.98C1146.49 303.33 1163.19 303.55 1179.89 302.72C1190.18 302.21 1200.45 301.07 1210.37 297.84C1224.61 293.21 1234.2 284.5 1236.85 269.11C1238.38 260.22 1238.02 251.31 1238.03 242.39C1238.05 222.93 1227.84 209.6 1208.93 204.65H1208.9Z" fill="#E10000"/>
<path d="M622.9 153.16C622.12 140.01 617.61 128.74 605.42 121.87C600.13 118.88 594.45 116.89 588.53 115.62C573.24 112.34 557.72 111.73 542.17 112.28C530.13 112.7 518.08 113.56 506.48 117.25C495.71 120.67 486.6 126.25 481.86 137.11C478.64 144.48 478 152.37 477.98 160.26C477.9 191.69 477.94 223.12 477.95 254.55C477.95 256.06 477.96 257.57 478.07 259.07C478.8 269.38 480.37 279.41 488.09 287.23C494.88 294.11 503.51 297.49 512.68 299.35C535.52 303.99 558.53 303.71 581.54 300.7C588.21 299.83 594.7 298.05 600.94 295.41C615.72 289.16 622.03 277.31 622.91 262.03C623.96 243.84 623.04 225.62 623.42 207.42C623.04 189.33 623.97 171.23 622.91 153.16H622.9ZM600.76 252.12C600.76 253.74 600.73 255.37 600.65 256.99C599.97 270.91 595.06 278.38 581.53 281.64C560.31 286.75 538.79 286.8 517.56 281.07C507.2 278.27 501.91 270.87 500.92 260.34C500.57 256.65 500.33 252.94 500.32 249.24C500.27 221.18 500.26 193.13 500.32 165.07C500.32 161.14 500.62 157.19 501.08 153.29C502.47 141.34 510.1 135.05 521.13 132.74C540.76 128.64 560.53 128.58 580.15 132.78C593.69 135.68 600.23 143.54 600.55 157.53C600.93 174.22 600.77 237.29 600.76 252.13V252.12Z" fill="#E10000"/>
<path d="M1416.9 152.89C1415.57 139.47 1408.98 128.86 1396.8 122.18C1385.99 116.26 1374.17 114.61 1362.18 114.49C1335.15 114.22 1274.01 114.22 1274.01 114.22L1273.98 300.95H1296.55L1296.43 247.12C1296.43 247.12 1338.46 247.24 1357.83 247.16C1366.42 247.12 1374.94 246.42 1383.37 244.54C1402.65 240.25 1415.3 226.96 1417.02 207.42C1418.61 189.29 1418.7 171.02 1416.9 152.9V152.89ZM1394.1 206.4C1392.32 217.56 1385.16 224.36 1374.42 227.52C1368.91 229.14 1363.25 229.51 1357.56 229.52C1338.31 229.55 1296.43 229.6 1296.43 229.6V132.18C1296.43 132.18 1340.27 132.24 1360.68 132.24C1366.65 132.24 1372.48 133.13 1378.04 135.34C1387.91 139.28 1393.51 146.9 1394.55 157.18C1396.2 173.56 1396.7 190.05 1394.1 206.39V206.4Z" fill="#E10000"/>
<path d="M343.55 133.7C339.4 131.07 335.11 128.72 330.42 127.13C327.87 126.27 325.39 126.38 322.86 127.19C318.74 128.52 314.8 130.24 310.92 132.13C310.31 132.24 310.13 131.67 309.75 131.41C306.35 125.63 301.76 121.02 296.01 117.59C294.96 116.96 294.92 116.48 295.41 115.46C297.25 111.65 298.94 107.77 300.15 103.7C300.81 101.47 300.83 99.2801 300.12 97.0501C298.6 92.2601 296.17 87.9101 293.51 83.6901C293.04 82.9401 292.39 82.5001 291.52 83.0301C290.68 83.5501 290.73 84.3201 291.19 85.1001C291.35 85.3701 291.53 85.6401 291.69 85.9101C293.91 89.5701 295.99 93.2901 297.37 97.3701C298.06 99.4001 298.08 101.37 297.42 103.41C296.2 107.18 294.6 110.8 292.93 114.38C292.83 114.59 292.77 114.83 292.48 114.9C292.13 114.53 292.17 114.03 292.05 113.58C291.01 109.84 287.66 107.17 283.79 107.03C279.89 106.89 276.83 109.1 275.51 113.02C275.37 113.44 275.27 113.84 274.77 114.01C270.6 115.43 267.72 118.26 265.83 122.18C265.2 122.75 265.11 123.57 264.9 124.32C263.65 128.74 264.17 133.08 265.51 137.38C265.85 138.46 266.24 139.51 266.62 140.6C266.05 140.78 265.67 140.51 265.27 140.39C260.66 139.05 256.01 138.73 251.36 140C250.06 140.36 249.02 140.49 248.17 139.3C245.67 135.5 243.18 131.69 240.65 127.91C240.19 127.23 240.13 126.58 240.24 125.79C241.01 120.14 241.64 114.48 241.63 108.77C241.63 107.86 241.63 106.95 241.39 106.06C241.31 105.8 241.25 105.47 240.94 105.42C240.54 105.35 240.38 105.7 240.29 105.99C239.99 106.89 239.67 107.79 239.47 108.71C238.2 114.56 237.52 120.49 236.76 126.42C236.57 127.9 236.78 129.2 237.33 130.56C238.75 134.04 240.08 137.56 241.44 141.06C241.57 141.41 241.85 141.75 241.65 142.22C241.49 142.18 241.34 142.16 241.21 142.1C238.36 140.63 235.53 139.13 232.67 137.68C231.8 137.24 231.31 136.61 231.03 135.65C229.36 129.95 227.67 124.26 225.63 118.69C225.05 117.09 224.46 115.49 223.62 114.01C223.41 113.65 223.24 113.08 222.73 113.19C222.18 113.31 222.34 113.91 222.36 114.3C222.43 115.36 222.52 116.43 222.7 117.48C223.7 123.38 225.24 129.15 226.6 134.97C227.23 137.66 227.99 140.15 230.53 141.66C230.59 141.7 230.63 141.78 230.68 141.84C230.6 142.18 231.67 142.57 230.62 142.86C228.1 142.04 225.59 141.19 223.06 140.4C222.35 140.18 221.82 139.79 221.34 139.23C217.92 135.22 214.41 131.3 210.53 127.73C209.74 127.01 208.94 126.3 208 125.78C207.73 125.63 207.43 125.4 207.13 125.66C206.83 125.92 207.01 126.25 207.13 126.54C207.56 127.57 208.18 128.49 208.82 129.39C212.06 133.99 215.71 138.27 219.34 142.55C219.71 142.99 220.18 143.25 220.69 143.49C225.94 146 231.19 148.51 236.42 151.04C236.91 151.28 237.85 151.36 237.33 152.31C236.89 153.11 237.19 154.55 235.39 154.16C231.33 153.28 227.24 152.57 223.15 151.81C203.81 148.22 184.4 145.1 164.89 142.6C143.31 139.84 121.64 138.53 99.8802 138.6C89.3502 138.63 78.8302 138.9 68.3802 140.39C66.5402 140.65 64.7002 140.99 62.9602 141.65C61.7002 142.13 61.4302 142.86 61.9702 144.08C62.3602 144.96 62.9702 145.69 63.6202 146.39C65.4602 148.37 67.5702 150.04 69.7302 151.65C76.8102 156.89 84.3302 161.42 92.0202 165.68C103.81 172.23 115.74 178.34 129.25 180.73C137.76 182.23 146.22 183.84 154.91 183.6C158.8 183.49 162.65 183.09 166.23 181.33C169.41 179.78 172.3 177.76 175.29 175.91C179.66 173.22 184.28 171.19 189.45 170.83C197.86 170.24 206.24 169.37 214.63 168.55C221.44 167.89 228.25 167.17 235.06 166.48C235.63 166.42 236.14 166.33 236.31 167.13C237.02 170.5 238.43 173.58 240.16 176.54C240.16 176.91 240.38 177.19 240.56 177.48C240.96 178.13 240.37 177.92 240.11 178C234.58 174.86 228.87 174.98 223.06 177.09C218.71 178.68 214.78 181.04 211.04 183.71C202.92 189.5 195.78 196.4 188.59 203.26C180.12 211.34 172.24 219.9 165.58 229.57C151.65 249.81 140.43 271.51 130.4 293.87L128.11 298.95L132.29 297.11C146.79 290.7 160.96 283.66 174.74 275.81C186.3 269.22 197.62 262.23 207.86 253.68C218.91 244.45 228.66 233.89 238.05 223C242.29 218.07 246.14 212.84 248.89 206.9C252.07 200.01 252.98 193.12 248.7 186.29L249.17 186.05C252.42 188.13 255.81 189.89 259.61 190.71C260.64 190.93 260.79 191.37 260.69 192.34C259.28 205.8 257.87 219.26 256.71 232.74C256.41 236.24 256.33 239.77 255.29 243.18C253.93 247.68 251.56 251.66 248.91 255.46C245.04 261 243.41 267.09 243.5 273.8C243.62 282.36 244.91 290.74 246.76 299.06C247.88 304.12 248.93 309.2 251 313.99C256.96 327.76 264.28 340.78 272.61 353.24C274.86 356.6 277.23 359.86 280.07 362.76C280.98 363.69 281.93 364.61 283.16 365.13C284.32 365.63 285.06 365.32 285.51 364.14C285.79 363.4 286.01 362.64 286.18 361.87C287.2 357.34 287.61 352.72 287.89 348.1C289.35 324.66 288.43 301.27 286.32 277.91C285.01 263.44 282.86 249.08 280.63 234.73C278.39 220.34 275.84 206.01 273.03 191.72C272.69 190 274.01 190.27 274.78 189.83C275.78 189.26 275.88 190.18 276.15 190.72C278.66 195.92 281.15 201.13 283.65 206.34C283.89 206.84 284.11 207.34 284.55 207.71C289.05 211.52 293.52 215.37 298.4 218.7C299.02 219.12 299.67 219.5 300.34 219.84C300.7 220.02 301.17 220.4 301.52 219.95C301.84 219.54 301.47 219.11 301.22 218.78C300.55 217.9 299.87 217.02 299.12 216.21C296.36 213.21 293.44 210.34 290.25 207.81C287.93 205.98 286.36 203.85 285.79 200.97C285.74 199.8 285.12 198.79 284.87 197.68C284.69 196.89 284.1 196.19 284.34 195.31C285.27 196.33 286.23 197.33 287.11 198.39C287.69 199.1 288.37 199.5 289.26 199.73C294.7 201.14 300.14 202.53 305.65 203.67C308.13 204.18 310.6 204.75 313.15 204.8C313.49 204.8 313.95 204.88 314.07 204.46C314.19 204.04 313.76 203.86 313.47 203.68C312.5 203.06 311.43 202.63 310.36 202.21C304.16 199.8 297.77 197.95 291.4 196.06C290.58 195.82 290.01 195.39 289.63 194.64C288.13 191.72 286.61 188.81 285.1 185.89C285.04 185.77 285.04 185.61 285 185.45C285.53 185.33 285.9 185.62 286.28 185.77C290.12 187.25 293.95 188.74 297.78 190.25C298.39 190.49 298.98 190.6 299.63 190.52C305.87 189.76 312.13 189.04 318.29 187.74C319.3 187.53 320.3 187.27 321.24 186.85C321.52 186.72 321.88 186.59 321.8 186.19C321.74 185.89 321.42 185.82 321.15 185.75C320.02 185.49 318.87 185.5 317.72 185.52C312.21 185.58 306.74 186.17 301.29 186.91C300.59 187 300.01 186.96 299.39 186.55C295.36 183.89 291.32 181.25 287.26 178.64C286.54 178.18 286.34 177.77 286.62 176.92C287.92 172.96 287.99 168.92 287.28 164.84C287 163.26 286.45 161.74 286.07 160.18C286.61 160 286.93 160.3 287.28 160.44C291.26 162.05 295.36 162.99 299.68 162.56C305.48 161.98 310 159.34 312.54 153.94C313.19 152.57 313.9 151.73 315.37 151.16C318.69 149.85 320.54 146.4 320.19 142.82C319.82 139.1 317.02 135.92 313.35 135.02C313 134.93 312.55 135.07 312.3 134.56C312.55 134.42 312.77 134.26 313.01 134.15C316.09 132.7 319.25 131.44 322.41 130.17C325.64 128.87 328.7 129.12 331.83 130.48C335.4 132.03 338.8 133.88 342.09 135.94C342.86 136.42 343.62 136.53 344.17 135.7C344.71 134.89 344.39 134.18 343.61 133.69L343.55 133.7Z" fill="#E10000"/>
<path d="M1548.66 113.238C1563.9 113.238 1576.01 114.673 1584.97 117.542C1593.94 120.232 1600.4 125.074 1604.34 132.068C1608.47 139.062 1610.53 148.925 1610.53 161.658C1610.53 174.929 1608.02 185.061 1603 192.055C1598.16 199.049 1590.17 203.084 1579.06 204.16V205.236C1592.86 206.491 1602.46 211.333 1607.84 219.762C1613.4 228.191 1616.18 239.847 1616.18 254.732C1616.18 267.465 1614.21 277.328 1610.26 284.322C1606.31 291.316 1599.95 296.248 1591.16 299.117C1582.55 301.807 1571.17 303.152 1557 303.152C1546.42 303.152 1537.27 303.062 1529.56 302.883C1522.03 302.883 1515.03 302.704 1508.58 302.345C1502.12 301.986 1495.4 301.538 1488.4 301L1492.17 282.17C1496.11 282.349 1503.56 282.529 1514.5 282.708C1525.61 282.887 1538.53 282.977 1553.23 282.977C1563.1 282.977 1570.81 282.17 1576.37 280.556C1582.1 278.763 1586.14 275.535 1588.47 270.872C1590.98 266.209 1592.24 259.484 1592.24 250.697C1592.24 241.013 1590.98 233.571 1588.47 228.37C1585.96 223.169 1581.75 219.493 1575.83 217.341C1569.91 215.189 1561.84 214.023 1551.62 213.844H1491.9V195.821H1551.35C1560.32 195.642 1567.4 194.745 1572.6 193.131C1577.98 191.338 1581.84 188.199 1584.17 183.716C1586.5 179.053 1587.66 172.597 1587.66 164.348C1587.66 155.919 1586.41 149.463 1583.9 144.98C1581.39 140.497 1577.17 137.448 1571.26 135.834C1565.52 134.22 1557.63 133.413 1547.58 133.413C1538.8 133.413 1530.91 133.413 1523.91 133.413C1516.92 133.413 1510.73 133.503 1505.35 133.682C1500.15 133.682 1495.76 133.861 1492.17 134.22L1488.4 115.39C1494.68 114.673 1500.6 114.224 1506.16 114.045C1511.9 113.686 1518.08 113.507 1524.72 113.507C1531.53 113.328 1539.51 113.238 1548.66 113.238ZM1511.54 115.39V301H1488.4V115.39H1511.54ZM1678.08 115.39V263.34C1678.08 269.437 1679.51 273.921 1682.38 276.79C1685.43 279.659 1690.01 281.094 1696.1 281.094H1763.08L1764.16 299.386C1752.5 300.283 1740.58 300.821 1728.38 301C1716.37 301.179 1704.35 301.269 1692.34 301.269C1678.71 301.269 1669.02 297.951 1663.28 291.316C1657.55 284.681 1654.68 276.342 1654.68 266.299V115.39H1678.08ZM1832.25 115.39V301H1808.58V115.39H1832.25ZM1892.24 115.39V136.372H1748.86V115.39H1892.24Z" fill="#E10000"/>
</svg>
