<svg xmlns="http://www.w3.org/2000/svg"  version="1.1" x="0px" y="0px" viewBox="0 0 100 100" enable-background="new 0 0 100 100" xml:space="preserve"><g><path d="M57,65.3c2.3-10.1-9.8-11.3-9.8-11.3s-3.6,2-8.4,4.8s-2,6.5-2,6.5l5,4.7c4.4-3.9,9.5,0.9,9.5,0.9h1.5l-0.3-2.5   c-0.1-0.7,0.2-1.3,0.7-1.8C55.4,64.6,57,65.3,57,65.3z"></path><path d="M58.2,62.5h2c0,0,2.4-5.2,3.1-5.4c0.7-0.2,3.3-0.1,3.3-0.1s3.1-5.4,5.1-5.5c2-0.1,2.9-0.6,2.9-0.6l1-1.2c0,0,0.2-3.4-4-4.4   l-8.7,1.2c0,0-11.9,4.1-15.3,6.6C47.7,53,57.9,54.5,58.2,62.5z"></path><path d="M82.6,43.4c0,0-1.1-2.2-3.5-3.5c0,0-3.5,0.1-7.1,4.4c0,0,3.8,1.1,4.2,3.6c0.3,1.5,0.2,2,0.1,2.1   C77.1,49.8,81.3,48.2,82.6,43.4z"></path><path d="M76.4,50c-0.1,0-0.1,0-0.1,0S76.3,50.1,76.4,50z"></path><path d="M86.4,40.8c1.1-1.6,2.5-2.9,2.5-4.9c0,0-3.8,0.1-4.4-3c0,0-5.2,4.2-4.4,6.2c0,0,3,2,3.5,3.5C83.5,42.5,85.3,42.4,86.4,40.8   z"></path><path d="M90.6,27.6c0,0-3,1.3-4.1-0.8c0,0-1.4,1.7-1.4,5.6c0,0,0.8,1.7,2.1,2.2s3,0,3,0S92.4,30.6,90.6,27.6z"></path><path d="M83.9,20.2c0,0,0.4,3.5,2.9,5.9c0,0,1.2,1.6,4.1,0.7c0,0,1.5-1.8,0-5.1c-1.5-3.3-3.5-4.6-3.5-4.6S87.5,19.7,83.9,20.2z"></path><path d="M75.7,17c0,0,3.6,2.5,7.8,2.9c0,0,4-1.7,3-3.9c0,0-0.8-1.7-3.9-2.9s-6.9-0.8-7.5,0C75.1,13.2,76.3,15.4,75.7,17z"></path><path d="M71.3,21.1l2.3-1.6c1.4-1.7,1.6-3.4,1-5c-0.6-1.7-2-2-2-2s-2.9-1.1-5.2,1.8s0.7,6.4,0.7,6.4c0.2,1.9-3.2,4.3-3.2,4.3   C68.3,26,71.3,21.1,71.3,21.1z"></path><path d="M48.8,70.3c-4.4-2-6.2,0.6-6.2,0.6c-1.8,0.2-2.5,1.7-2.5,1.7s0.7-0.2,1.4,2.6c0.7,2.9-1,3.7-1,3.7c7.5,0.2,9.3-2,10.3-4.4   C51.8,72.1,48.8,70.3,48.8,70.3z"></path><path d="M39,72.7c-7.2-0.8-5.9,1.5-11.4,2.1c-5.5,0.6-10.6,0.6-10.6,0.6c0.5,2.3,8.9,3.2,8.9,3.2c-1.7,1.1-8.9,1.7-8.9,1.7   c1.7,2.5,10.7,1.4,10.7,1.4c9.1,0.2,10.4-1.1,11.4-2s1.6-2,1.6-3.8C40.6,74.1,39,72.7,39,72.7z"></path><path d="M58.7,74.8c0.3-3.1-1.4-7.7-3-8.1c-1.6-0.5-2.3,1.2-2.3,1.2l0.4,2.7l2,4.8C56.9,73,58.7,74.8,58.7,74.8z"></path><path d="M58.7,77.2c-0.1-1.9-0.6-2.3-1.5-2.3c-0.8,0-1.2,1.3-1.2,1.3v1.4l0.7,6c0,0-1.3,4.3,1.3,4.1c2.6-0.2,1.1-4.1,1.1-4.1   S58.8,79.1,58.7,77.2z"></path><path d="M66.9,71.4c0,0,0.1-0.9-0.6-1.6c-0.7-0.7-5.7-6.2-6.8-6.3c-1.1-0.1-2.5,1.1-2.8,2.7c0,0,1.9,1.2,2.3,4l1.3-1.5   c0,0,1.6,1.3,2.2,2.2c0.6,0.9,1.5,2,1.7,1.9C64.3,72.8,65,70.5,66.9,71.4z"></path><path d="M70.1,79.2c-1.4-1.2-2.7-7.1-2.7-7.1s-0.4-0.3-1.5,0c-1.1,0.3-1.5,1.7-1.5,1.7s1.5,3.4,2.9,6.4c1.4,3,3.2,3.1,4.3,2.5   C72.6,82.1,71.4,80.3,70.1,79.2z"></path><path d="M60.7,63.2c0,0,2.5,2,3.3,3.1l1.7-4.2c0,0-2.8-1-2.6-3L60.7,63.2z"></path><path d="M75.7,62.5c0,0-0.8-1.4-2.1-1.9s-7.9-3.5-9.5-2.5c0,0-0.3,1,0,1.6c0.3,0.6,2,2.2,5.3,3.8c0,0,2.6,1.7,3.8,1.4   C73.1,64.8,74.1,62.1,75.7,62.5z"></path><path d="M80.2,71.6l-2.3-3.2l-2.2-5.3c-1.2-0.5-2.1,2.3-2.1,2.3c0.2,1.1,2.4,5.2,4.6,7.8c2.3,2.7,4.4,2.8,5.1,2.2   C84,74.7,80.2,71.6,80.2,71.6z"></path><path d="M71.3,52.6c-0.3,0.4-1.4,1.4-4,5c0,0,4.1,1.4,4.6,1.7c0,0,1.6-2.7,1.9-3.8c0-0.1,0.1-0.2,0.1-0.3c0.1-0.8-0.9-2.4-0.7-3   C73.2,52.1,71.6,52.2,71.3,52.6z"></path><path d="M74.2,51.9c0,0-0.4,0.4,0,1.4c0.4,1,0.8,2.5,0.8,2.5s5,1.9,8.1,1.6c0,0,1.4-2.8,2.2-2.7c0,0-0.5-0.6-2-1.1   C81.9,53,76.6,51.5,74.2,51.9z"></path><path d="M87.4,62.1c-0.3-0.5-1.4-6.9-1.4-6.9c-0.6-0.7-2.6,2.7-2.6,2.7c0.2,1.6,2,5.6,2,5.6C86.8,63.5,87.4,62.1,87.4,62.1z"></path><path d="M90.7,65.1l-2.9-2.7c-0.4,0.9-1.9,1.5-1.9,1.5c0.8,1,2.9,2.9,4.5,3.5c1.6,0.6,3.9,1.2,4.5,0C95.5,66.3,90.7,65.1,90.7,65.1   z"></path><path d="M51,50.5c0,0,1.7-7.2,1-8.8c0,0-1.7-1.2-3.2,0c0,0-1.6,5.9-1.9,11.1C46.9,52.8,49.9,50.7,51,50.5z"></path><path d="M52.2,40.8l1.2-1.2c0,0,0.2,2.4,2.7,2.3c2.5-0.1,1.8-2,1.8-2H56c0,0-0.6-1-1.2-3.7c-0.6-2.8-3-0.8-3-0.8s-2.4,2.6-2.8,5.5   C49.1,40.8,50.1,39.7,52.2,40.8z"></path><path d="M43.7,47.3c-1-0.5-3.5-0.5-3.1,2.1c0.4,2.6,1.9,6.3,1.9,6.3l3-1.7C45.4,54.1,44.6,47.8,43.7,47.3z"></path><path d="M43.8,46.7c0,0-0.1-1.2,0.5-1.5c0,0,0.6-3.1-0.5-3.6c-1.1-0.6-3.2,0.4-3.4,5.7C40.5,47.3,41.4,45.8,43.8,46.7z"></path><path d="M47.7,44.4l0.6-2.5c0,0-0.8-0.3-1.1,0c-0.4,0.3-0.6,1.1-1.3,1.1c-0.7-0.1-1.2-0.7-1.2-0.7s0.5,1.3,0,3   C44.8,45.2,46.9,45.7,47.7,44.4z"></path><polygon points="38.3,58.3 41.2,56.6 38.9,48.8 35.6,50.8  "></polygon><path d="M29.9,49.7l0.9-0.9c0,0,0.8,1,2.3,1.3c1.6,0.3,2.1,0.2,2.1,0.2l3.2-2c0,0-0.4-0.5-2.2-1.1c-1.8-0.6-5.3-1.9-6.3-1.5   s-3.1,3.3-3.1,3.3l0.8,0.5L29.9,49.7z"></path><path d="M24.2,54.4c2.7,4.9,8.9,9.4,10,9.4c1.2,0,1.4-3.6,1.4-3.6c-0.6-2.6-8.1-9.4-8.1-9.4L24.2,54.4z"></path><path d="M18,52.1c0.7,1.5,0.6,2.4,0.6,2.4s4.5-0.3,5.3-1c0,0,3.1-2.7,3-3.2c-0.1-0.6-0.9-2.1-1.9-2.3c-1.1-0.2-8.5-0.8-9.2,2.3   C15.7,50.3,17.3,50.7,18,52.1z"></path><path d="M18.2,54.9c-0.7-4-3.2-4-3.2-4C13.6,51,13,51.4,13,51.4c-4,1.3-3.8,8.9-4.3,11.6c-0.5,2.7-2,6.9-1.6,7.1   c0.5,0.2,2-2.1,2.7-3.4c0.7-1.3,5-6.2,5-6.2C18.7,56.9,18.2,54.9,18.2,54.9z"></path><path d="M8.3,59.8c-0.9,1.6-2.3,7.2-2.9,9.6c-0.6,2.4-0.3,2-0.3,2l1.3-1.2L7.8,64L8.3,59.8z"></path><path d="M32.8,51.2c0,0-1.4-1.2-4.9-0.9l2.7,2.7C30.6,53,32.2,51.3,32.8,51.2z"></path><path d="M37.3,58.7c0,0-2.5-5.4-3.6-7c0,0-1.4,0.4-2.4,1.9c0,0,3.8,3.8,4.6,6L37.3,58.7z"></path><path d="M18.5,56.4c-0.3,0.3-0.5,1.8,0.7,1.9c1.2,0.1,4.3-3.7,4.3-3.7c-0.7,0.2-3.2,0.3-3.2,0.3C20.5,55.3,18.8,56.1,18.5,56.4z"></path></g></svg>
