<?xml version="1.0" encoding="iso-8859-1"?>
<!-- Uploaded to: SVG Repo, www.svgrepo.com, Generator: SVG Repo Mixer Tools -->
<svg fill="#000000" height="800px" width="800px" version="1.1" id="Capa_1" xmlns="http://www.w3.org/2000/svg" xmlns:xlink="http://www.w3.org/1999/xlink" 
	 viewBox="0 0 511 511" xml:space="preserve">
<g>
	<path d="M480.319,169.292c-18.49-27.611-44.624-49.346-77.675-64.601c-21.801-10.062-41.29-13.408-60.124-13.839
		c5.811-3.439,10.508-6.253,13.949-8.358c8.272-5.061,10.496-6.421,10.542-10.896c0.027-2.646-1.352-5.13-3.613-6.505
		c-33.84-20.583-64.1-0.633-88.414,15.398c-3.182,2.098-6.319,4.164-9.374,6.079c0.64-5.707,1.205-12.394,1.448-19.564
		c0.97-28.565-3.56-50.056-13.462-63.874c-2.355-3.286-6.892-4.114-10.256-1.871l-24,16c-3.289,2.192-4.312,6.562-2.337,9.986
		c7.363,12.77,24.744,45.87,29.667,66.76c-7.665-2.73-17.631-7.868-27.371-12.889c-31.277-16.125-70.202-36.195-96.444-15.504
		c-1.951,1.539-3.022,3.967-2.844,6.446c0.301,4.2,2.472,5.529,10.548,10.475c3.728,2.283,8.908,5.382,15.396,9.211
		c0.527,0.311,1.055,0.622,1.582,0.933c-12.411,1.947-25.327,5.621-39.179,12.015c-33.052,15.255-59.186,36.99-77.675,64.601
		C10.323,199.695,0,236.285,0,278.046c0,56.239,27.328,114.408,74.977,159.591c23.815,22.583,51.093,40.441,81.077,53.081
		C187.983,504.176,221.442,511,255.5,511s67.517-6.824,99.446-20.283c29.983-12.639,57.262-30.498,81.077-53.081
		C483.672,392.454,511,334.285,511,278.046C511,236.285,500.677,199.695,480.319,169.292z M283.241,93.014
		c19.329-12.746,39.216-25.855,60.391-20.285c-9.19,5.516-22.289,13.202-32.383,19.06c-0.251,0.146-0.487,0.307-0.715,0.476
		c-3.409,0.305-6.827,0.634-10.265,0.967c-6.543,0.633-13.199,1.269-20.058,1.776C281.218,94.347,282.227,93.682,283.241,93.014z
		 M301.713,108.162c1.092-0.105,2.177-0.21,3.259-0.314c9.281,2.102,15.948,6.633,20.343,13.846
		c7.189,11.797,6.805,28.128,5.358,39.268c-13.37-12.03-37.954-33.638-60.076-50.343
		C281.511,110.101,291.738,109.126,301.713,108.162z M233.442,25.887l11.606-7.737c5.09,10.809,7.521,26.455,7.088,45.905
		C245.7,48.78,237.948,34.08,233.442,25.887z M233.506,110.232c-20.237,16.15-41.265,37.016-53.352,49.48
		c-1.324-11.705-1.084-27.131,5.511-37.983c4.395-7.232,11.068-11.775,20.363-13.88c1.084,0.104,2.167,0.208,3.261,0.314
		C217.135,108.92,225.14,109.684,233.506,110.232z M142.952,72.502c18.621-3.761,44.715,9.201,66.956,20.649
		c-1.198-0.116-2.393-0.23-3.587-0.344c-0.005,0-0.01-0.001-0.016-0.001c-10.8-1.03-21.447-1.941-32.256-2.004
		C162.84,84.301,151.124,77.414,142.952,72.502z M425.702,426.752c-22.501,21.336-48.268,38.207-76.583,50.143
		C319.045,489.572,287.547,496,255.5,496s-63.545-6.428-93.62-19.105c-28.315-11.936-54.081-28.806-76.583-50.143
		C40.623,384.389,15,330.188,15,278.046c0-38.736,9.469-72.518,28.145-100.408c16.932-25.286,40.988-45.246,71.498-59.328
		c21.058-9.719,39.619-12.52,58.196-12.52c2.076,0,4.154,0.046,6.235,0.11c-2.338,2.391-4.422,5.065-6.229,8.038
		c-15.288,25.158-5.002,62.063-4.557,63.623c0.745,2.608,2.84,4.61,5.479,5.236c0.575,0.137,1.155,0.203,1.732,0.203
		c2.07,0,4.079-0.858,5.516-2.418c0.424-0.46,39.323-42.544,70.558-65.292c32.536,22.901,78.329,65.249,78.828,65.711
		c1.405,1.302,3.232,1.999,5.099,1.999c0.674,0,1.353-0.091,2.019-0.277c2.51-0.702,4.476-2.656,5.192-5.163
		c0.445-1.559,10.731-38.464-4.557-63.623c-1.808-2.976-3.894-5.652-6.235-8.044c20.695-0.639,41.023,1.609,64.437,12.416
		c30.51,14.082,54.566,34.042,71.498,59.328C486.531,205.528,496,239.31,496,278.046C496,330.188,470.378,384.389,425.702,426.752z"
		/>
	<path d="M440.504,170.429c-2.801-3.053-7.545-3.255-10.597-0.454c-3.052,2.801-3.255,7.545-0.454,10.597
		C452.377,205.547,464,238.342,464,278.046c0,7.906-0.741,16.022-2.202,24.124c-0.735,4.076,1.973,7.977,6.05,8.712
		c0.45,0.081,0.898,0.121,1.34,0.121c3.559,0,6.718-2.544,7.372-6.17c1.619-8.978,2.44-17.99,2.44-26.787
		C479,234.467,466.048,198.259,440.504,170.429z"/>
	<path d="M48.042,294.57C47.351,289.034,47,283.474,47,278.046c0-4.142-3.358-7.5-7.5-7.5s-7.5,3.358-7.5,7.5
		c0,6.047,0.39,12.232,1.157,18.382c0.474,3.795,3.705,6.572,7.433,6.572c0.31,0,0.623-0.02,0.938-0.059
		C45.639,302.428,48.555,298.68,48.042,294.57z"/>
	<path d="M410.258,145.209c-6.581-4.206-13.654-8.062-21.024-11.463c-3.762-1.736-8.217-0.094-9.953,3.667
		c-1.736,3.761-0.094,8.217,3.667,9.953c6.753,3.117,13.224,6.644,19.233,10.484c1.251,0.8,2.649,1.181,4.031,1.181
		c2.474,0,4.896-1.223,6.327-3.462C414.769,152.077,413.748,147.439,410.258,145.209z"/>
	<path d="M55.213,325.045c-1.351-3.916-5.621-5.994-9.536-4.644c-3.916,1.351-5.995,5.621-4.644,9.536
		c10.539,30.543,29.891,59.756,55.963,84.479c1.451,1.375,3.307,2.058,5.159,2.058c1.986,0,3.969-0.784,5.444-2.339
		c2.85-3.006,2.724-7.753-0.282-10.603C82.986,380.46,64.969,353.32,55.213,325.045z"/>
</g>
</svg>
