<svg xmlns="http://www.w3.org/2000/svg"  version="1.1" x="0px" y="0px" viewBox="0 0 100 100" enable-background="new 0 0 100 100" xml:space="preserve"><g><path d="M92.143,70.894c-3.722-4.488-13.115-16.305-20.971-26.224l1.012-0.636c0.282-0.149,1.752-1.065,2.877-4.404   c0.958-2.842,2.953-9.118,3.223-9.958c0.146-0.267,0.84-1.385,2.195-1.385c0.653,0,1.181-0.528,1.181-1.181   c0-0.651-0.527-1.18-1.181-1.18c-3.033,0-4.311,2.685-4.362,2.8c-0.02,0.044-0.038,0.09-0.053,0.137   c-0.021,0.07-2.224,6.997-3.239,10.013c-0.829,2.454-1.778,3.089-1.821,3.115L69.7,42.81c-3.125-3.95-5.908-7.472-7.867-9.954   l4.932-5.288c0.449-0.383,1.797-1.812,1.75-5.11c-0.04-2.771,0.034-11.037,0.034-11.136c0.053-0.143,0.378-0.843,2.029-2.029   c0.53-0.38,0.652-1.118,0.271-1.647c-0.379-0.53-1.117-0.651-1.646-0.27c-2.677,1.92-3.065,3.279-3.014,3.991   c-0.009,0.846-0.074,8.425-0.035,11.125c0.035,2.454-0.878,3.245-0.884,3.251c-0.064,0.047-0.123,0.099-0.178,0.157l-4.737,5.082   c-0.067-0.086-0.139-0.178-0.204-0.257c-0.333-0.496-0.704-0.967-1.109-1.409c-0.076-0.096-0.127-0.162-0.127-0.162v0.021   c-1.189-1.255-2.652-2.267-4.301-2.943c0.638-0.229,1.164-0.501,1.553-0.805c1.7-0.354,2.977-1.859,2.977-3.664   c0-2.068-1.676-3.744-3.743-3.744c-0.148,0-0.286,0.027-0.432,0.043c0.004-0.058,0.023-0.113,0.023-0.171   c0-1.516-1.118-2.819-2.748-3.496c6.492-3.816,10.159-9.614,11.06-11.172l2.026-0.828c0.604-0.247,0.893-0.936,0.646-1.54   c-0.247-0.604-0.941-0.894-1.539-0.646l-2.41,0.984c-0.256,0.105-0.467,0.296-0.596,0.542c-0.041,0.076-4.008,7.428-11.678,11.329   C42.11,9.176,38.118,1.812,38.077,1.735c-0.128-0.244-0.34-0.436-0.597-0.54l-2.408-0.984c-0.598-0.246-1.292,0.043-1.539,0.646   c-0.247,0.604,0.042,1.293,0.647,1.54l2.026,0.828c0.9,1.558,4.566,7.356,11.06,11.172c-1.631,0.677-2.749,1.979-2.749,3.495   c0,0.058,0.021,0.113,0.023,0.171c-0.144-0.016-0.285-0.043-0.432-0.043c-2.067,0-3.744,1.676-3.744,3.744   c0,1.805,1.279,3.309,2.977,3.664c0.388,0.304,0.916,0.577,1.554,0.805c-2.384,0.98-4.38,2.662-5.72,4.772L34.415,25.9   c-0.033-0.036-0.106-0.1-0.145-0.131c-0.038-0.032-0.952-0.824-0.916-3.276c0.039-2.7-0.027-10.28-0.035-11.125   c0.052-0.712-0.337-2.07-3.014-3.991c-0.53-0.381-1.266-0.259-1.647,0.27c-0.38,0.53-0.258,1.267,0.271,1.647   c1.651,1.186,1.978,1.886,2.029,2.029c0.001,0.099,0.076,8.365,0.035,11.136c-0.048,3.297,1.301,4.727,1.75,5.109l5.197,5.574   c-1.979,2.508-4.732,5.994-7.804,9.875l-1.664-1.045c-0.01-0.006-0.961-0.642-1.788-3.095c-1.017-3.016-3.217-9.943-3.239-10.013   c-0.016-0.047-0.034-0.093-0.054-0.137c-0.052-0.115-1.329-2.8-4.363-2.8c-0.651,0-1.18,0.529-1.18,1.18   c0,0.652,0.529,1.181,1.18,1.181c1.367,0,2.061,1.132,2.195,1.382c0.265,0.831,2.265,7.115,3.224,9.961   c1.126,3.338,2.595,4.254,2.801,4.36l1.414,0.888c-7.82,9.876-17.111,21.56-20.806,26.016c-6.888,8.309-9.448,15.938-4.111,18.848   c6.542,3.568,16.268-17.024,16.268-17.024l2.242-4.119c-0.036,0.561-0.025,1.182,0.049,1.879c0.512,4.753,1.031,8.835,1.04,8.901   c0.001,0.018,0.152,1.603-2.08,4.135c-2.65,3.009-11.904,11.25-11.971,11.311c-0.2,0.169-1.959,1.707-1.959,3.873   c0,0.652,0.527,1.181,1.18,1.181c0.652,0,1.181-0.528,1.181-1.181c0-0.907,0.809-1.801,1.142-2.088   c0.384-0.342,9.454-8.419,12.198-11.535c3.022-3.43,2.685-5.823,2.647-6.019c-0.006-0.041-0.521-4.102-1.03-8.83   c-0.383-3.551,1.29-4.014,1.416-4.044l11.94-3.166c-0.016,0.333-0.046,0.661-0.046,0.999c0,8.684,5.279,24.104,11.793,24.104   c6.513,0,11.791-15.421,11.791-24.104c0-0.338-0.029-0.666-0.046-0.999L73.529,66.2c0.016,0.004,1.716,0.419,1.327,4.024   c-0.508,4.712-1.022,8.763-1.021,8.763c-0.05,0.263-0.387,2.656,2.636,6.086c2.745,3.116,11.815,11.193,12.225,11.558   c0.011,0.01,1.116,0.986,1.116,2.065c0,0.652,0.527,1.181,1.181,1.181c0.651,0,1.18-0.528,1.18-1.181   c0-2.166-1.758-3.704-1.933-3.852c-0.094-0.082-9.347-8.323-11.998-11.332c-2.232-2.532-2.081-4.117-2.074-4.16   c0.004-0.041,0.523-4.123,1.035-8.876c0.136-1.27,0.059-2.287-0.135-3.119l2.917,5.359c0,0,9.727,20.593,16.27,17.024   C101.592,86.831,99.031,79.202,92.143,70.894z M37.755,40.136c0.619,2.345,1.953,4.416,3.777,5.977   c-0.757,0.629-1.192,1.352-1.192,2.124c0,0.566,0.238,1.106,0.662,1.602l-6.358-3.991L37.755,40.136z M25.551,63.878   c-0.049,0.01-0.432,0.089-0.918,0.357l8.882-16.312l7.935,4.981c-1.547,2.055-2.674,4.663-3.179,7.6L25.551,63.878z M61.903,39.506   l3.326,6.111l-6.723,4.221c0.424-0.496,0.661-1.035,0.661-1.601c0-0.772-0.434-1.495-1.191-2.124   C59.961,44.414,61.37,42.112,61.903,39.506z M74.044,63.898l-12.807-3.395c-0.505-2.937-1.632-5.544-3.179-7.599l8.301-5.213   l9.326,17.127C74.885,64.073,74.077,63.902,74.044,63.898z"></path></g></svg>
