<svg xmlns="http://www.w3.org/2000/svg" shape-rendering="geometricPrecision" text-rendering="geometricPrecision" image-rendering="optimizeQuality" fill-rule="evenodd" clip-rule="evenodd" viewBox="0 0 457 511.68"><path d="M227.72 0c85.2 54.01 162.19 79.57 228.25 73.52 5.2 105.28-9.49 191.11-41.19 258.9a114.368 114.368 0 0 0-26.79-16.38c25.61-56.77 37.39-128.15 33.08-215.27-55.93 5.11-121.1-16.52-193.24-62.25C165.42 87.01 101 101.21 35.34 97.77c-2.91 110.9 16.58 194.39 54.22 255.13 27.83-23.27 75.23-19.75 97.67-50.61 1.61-2.39 2.36-3.67 2.35-4.73-.02-.54-24.36-30.39-26.54-33.87-5.74-9.12-16.48-21.5-16.48-32.19 0-6.03 4.76-13.9 11.57-15.65-.53-9.04-.89-18.21-.89-27.29 0-5.37.11-10.8.3-16.12.3-3.37.92-4.86 1.81-8.11a57.457 57.457 0 0 1 25.62-32.54c4.35-2.75 9.08-4.88 13.92-6.63 8.79-3.21 4.53-17.1 14.18-17.31 22.54-.58 59.63 19.13 74.08 34.78 9.21 10.19 14.46 21.51 14.78 35.23l-.92 39.49c4 .98 8.49 4.12 9.47 8.12 3.09 12.47-9.85 27.99-15.86 37.89-5.54 9.15-26.73 34.12-26.75 34.32-.1 1.08.45 2.42 1.9 4.61 5.46 7.49 12.38 12.95 20.13 17.27a114.783 114.783 0 0 0-27.85 20.47c-20.62 20.62-33.38 49.13-33.38 80.61 0 26.89 9.36 51.63 24.99 71.14-8.14 3.74-16.49 7.24-25.06 10.46C81.11 448.4-6.13 316.51.34 69.98 77.89 74.05 153.99 57.28 227.72 0z"/><path fill="#10A64A" d="M342.67 329.6c50.27 0 91.03 40.76 91.03 91.04 0 50.28-40.76 91.04-91.03 91.04-50.28 0-91.04-40.76-91.04-91.04 0-50.28 40.76-91.04 91.04-91.04zm-22.3 94.31a83.14 83.14 0 0 1 7.82 7.57c7.65-12.31 15.81-23.62 24.43-34.02 24.36-29.42 13.32-23.75 47.11-23.75l-4.7 5.22c-14.42 16.03-19.29 24.37-31.12 41.46a486.113 486.113 0 0 0-31.81 52.92l-2.92 5.65-2.7-5.76c-4.95-10.65-10.9-20.42-17.99-29.16-7.08-8.73-13.28-14.43-22.89-21.03 4.41-14.46 25.37-7.06 34.77.9z"/></svg>