<svg version="1.1" id="Layer_1" xmlns="http://www.w3.org/2000/svg" xmlns:xlink="http://www.w3.org/1999/xlink" x="0px" y="0px"
	 width="100%" viewBox="0 0 163 148" enable-background="new 0 0 163 148" xml:space="preserve">
<path fill="#FCFDFE" opacity="1.000000" stroke="none" 
	d="
M25.000000,149.000000 
	C17.017021,149.000000 9.034044,149.000000 1.025533,149.000000 
	C1.025533,99.788673 1.025533,50.577324 1.025533,1.000000 
	C12.018193,1.000000 23.040438,1.000000 34.557701,1.303342 
	C34.646572,2.050790 34.240421,2.494897 33.517849,3.080746 
	C29.392300,8.438965 29.495512,11.624447 33.771179,16.383625 
	C34.270592,16.788294 34.618603,16.943722 34.959328,17.068371 
	C34.952034,17.037590 34.905151,17.080963 35.118263,17.367727 
	C42.170258,19.292332 44.412762,18.306196 48.464195,12.076773 
	C50.496891,12.168627 52.090187,12.256302 53.751812,12.347737 
	C53.751812,18.733318 53.751812,24.747656 53.751812,30.870193 
	C51.300110,31.024307 49.175587,31.157852 46.685806,31.215748 
	C43.280128,33.371147 40.239712,35.602196 37.199299,37.833241 
	C37.453728,38.287712 37.708153,38.742180 37.962582,39.196651 
	C36.317249,39.196651 34.671913,39.196651 32.737823,38.998322 
	C30.293947,36.878384 28.138828,34.956779 25.691906,32.851418 
	C20.874079,31.839106 17.729887,33.831402 15.845234,37.749912 
	C14.096166,41.386520 14.858197,44.879902 17.679071,47.688557 
	C20.677814,50.674316 24.182951,51.218281 28.273178,48.944645 
	C29.770678,47.376625 30.936127,45.853390 32.532600,44.255196 
	C34.865566,44.180237 36.767513,44.180237 38.642677,44.180237 
	C38.642677,47.985504 38.642677,51.057102 38.642677,54.719601 
	C36.386040,54.719601 34.361343,54.403976 32.501076,54.821301 
	C31.060200,55.144539 29.824965,56.384453 28.498318,57.216881 
	C29.886028,58.063496 31.181763,59.306644 32.684975,59.655327 
	C34.521439,60.081310 36.532001,59.756737 38.665710,59.756737 
	C38.665710,63.768234 38.665710,67.154648 38.665710,71.127007 
	C35.586891,71.127007 32.801647,71.127007 29.622334,71.064026 
	C28.164532,70.964035 27.100801,70.927010 25.931690,70.560074 
	C22.260441,63.886761 18.704824,62.711777 12.512190,66.053825 
	C6.862532,71.847328 7.540026,77.406738 14.268915,81.285217 
	C17.365404,80.948395 20.177755,80.350319 23.239637,79.677811 
	C23.902163,79.066780 24.315155,78.530174 24.877632,77.829361 
	C25.027119,77.665154 25.050951,77.221672 25.242287,77.043808 
	C25.628036,76.577644 25.822451,76.289352 26.009453,75.998726 
	C26.002043,75.996384 26.001987,76.010162 26.452965,76.014404 
	C29.610804,75.962181 32.317665,75.905708 35.448784,75.917870 
	C36.898582,76.694115 38.738636,77.328728 38.809731,78.121887 
	C39.130302,81.698441 38.949669,85.319916 38.949669,89.278641 
	C35.968975,89.278641 33.594559,88.982010 31.357246,89.407059 
	C30.280809,89.611557 29.463028,91.177536 28.528118,92.126984 
	C29.486277,92.842033 30.381615,94.040176 31.415276,94.174583 
	C33.785633,94.482811 36.223465,94.272141 38.666092,94.272141 
	C38.666092,97.283463 38.666092,99.376205 38.666092,101.716278 
	C36.600342,101.853127 34.805157,101.972061 32.759979,101.856911 
	C30.336275,99.699951 28.162565,97.777069 25.590816,95.663971 
	C18.520897,95.547737 14.422820,99.310959 15.005177,104.828918 
	C15.595311,110.420563 19.998104,113.516365 26.295734,112.547935 
	C28.431286,110.770782 30.237490,108.981934 32.478195,107.112076 
	C34.826351,107.031059 36.739998,107.031059 38.573578,107.031059 
	C39.616089,117.030289 41.389931,118.925941 49.372650,118.780540 
	C51.542522,119.133568 53.998447,118.065559 53.934280,121.432762 
	C53.832115,126.794167 53.906990,132.158936 53.906990,137.653320 
	C51.229046,137.822845 49.125008,137.956039 46.571148,138.014938 
	C43.092854,137.901947 40.064377,137.863251 36.938583,137.501801 
	C34.937012,133.634048 32.569084,130.872009 27.567699,131.861908 
	C22.875320,132.135284 20.793745,134.942459 20.039560,138.751251 
	C19.143900,143.274506 21.392410,146.526627 25.000000,149.000000 
z"/>
<path fill="#FEFBFD" opacity="1.000000" stroke="none" 
	d="
M139.000000,1.000000 
	C147.315598,1.000000 155.631210,1.000000 163.973404,1.000000 
	C163.973404,50.210613 163.973404,99.421249 163.973404,149.000000 
	C153.315262,149.000000 142.626282,149.000000 131.571533,148.667999 
	C135.007629,145.787827 136.978531,142.351669 135.517136,137.797302 
	C134.244308,133.830505 131.517944,131.439499 126.630737,131.771896 
	C122.464516,132.072983 119.987862,134.055603 118.445679,137.755219 
	C117.408981,137.464554 116.241447,137.127426 116.232101,136.760803 
	C116.093475,131.319641 116.008286,125.870682 116.219406,120.435562 
	C116.244461,119.790550 118.087616,119.216164 119.474030,118.586868 
	C121.829277,116.745087 124.828781,115.242249 125.510048,113.026604 
	C126.385078,110.180786 127.809784,109.902283 130.454636,109.904236 
	C136.374908,108.627792 140.253601,111.625504 144.381836,114.982994 
	C149.284851,116.274475 153.563171,115.228165 155.065720,110.755814 
	C156.011749,107.939987 155.463348,103.783936 153.947006,101.184959 
	C151.919769,97.710304 147.973053,96.736694 143.619034,98.965157 
	C139.955582,102.590210 136.662033,106.208237 130.598877,104.849388 
	C125.425537,104.269783 125.087585,103.342735 126.627708,94.557014 
	C129.381027,94.359901 132.212952,94.157158 135.347473,93.932755 
	C134.386002,87.148438 128.713593,91.748672 125.706543,88.601822 
	C126.095406,84.784981 126.549538,80.327423 127.442459,75.920738 
	C129.945709,75.970100 132.010193,75.968597 134.275360,76.238037 
	C136.993500,78.299599 139.510910,80.090210 142.408752,81.948334 
	C147.788391,81.674408 150.973862,78.943550 151.450043,74.085037 
	C151.891739,69.578293 149.944290,66.019691 144.741013,64.684753 
	C139.083588,63.624199 135.878616,66.239418 133.556335,70.979599 
	C131.083145,71.029121 129.047485,71.077736 126.670219,70.865433 
	C126.328606,67.180351 126.328606,63.756199 126.328606,59.960480 
	C128.480286,59.960480 130.341263,60.218895 132.077621,59.865337 
	C133.150665,59.646843 134.034058,58.496895 135.002579,57.765102 
	C134.080154,56.789730 133.318237,55.310322 132.198746,54.953861 
	C130.395660,54.379745 128.356720,54.546410 125.083908,54.299530 
	C126.205803,50.526424 127.152382,47.342949 128.350098,44.292236 
	C129.147491,44.316875 129.693756,44.208752 130.598679,44.210594 
	C131.949127,44.264870 132.940903,44.209183 134.264984,44.303497 
	C139.478333,43.142235 140.446671,48.827591 144.406555,49.901512 
	C149.516251,51.227322 153.398392,49.953754 155.455017,45.348675 
	C157.147980,41.557835 156.551575,37.760895 153.206940,35.036160 
	C149.842621,32.295395 146.148087,31.567360 142.179840,34.881035 
	C139.847122,38.384983 136.855942,40.029274 132.493500,39.866173 
	C130.403229,39.811985 128.724152,39.842804 126.828445,39.593140 
	C125.395554,35.434227 123.992409,31.733364 118.702026,31.252251 
	C116.074730,31.266159 114.585594,30.845516 114.742622,27.940266 
	C114.974648,23.647518 114.585587,19.314360 114.950867,15.040275 
	C115.046761,13.918170 116.948120,12.950366 118.464020,11.977242 
	C121.594772,12.062881 124.281876,12.082981 127.080429,12.424717 
	C128.943817,15.749613 130.859299,18.515835 135.233826,18.265335 
	C139.598877,18.116585 142.773163,16.404161 143.945694,12.253583 
	C145.361877,7.240503 142.950562,3.741580 139.000000,1.000000 
z"/>
<path fill="#FCFBFD" opacity="1.000000" stroke="none" 
	d="
M86.000000,1.000000 
	C101.020897,1.000000 116.041786,1.000000 131.383514,1.297929 
	C130.139618,3.407124 128.574875,5.218390 126.567360,7.069628 
	C123.760994,7.159426 121.397400,7.209251 118.593460,7.177131 
	C109.785095,6.971755 109.784981,6.971755 109.784180,15.348658 
	C109.783798,19.324722 109.932762,23.309443 109.702377,27.272116 
	C109.622688,28.642742 108.600952,29.958597 107.564774,31.221554 
	C105.203514,31.059361 103.287003,30.975080 101.009392,30.874922 
	C101.009392,28.370794 101.327553,26.183041 100.881218,24.164316 
	C100.641861,23.081678 99.087799,22.289719 98.127007,21.366589 
	C97.417953,22.308359 96.254074,23.179859 96.095428,24.206673 
	C95.774788,26.281923 95.999832,28.441486 95.999832,30.468431 
	C94.082733,31.123890 92.556801,31.645611 90.595459,32.103794 
	C88.587357,31.927954 87.014671,31.815651 85.145813,31.682199 
	C85.145813,28.479654 84.971634,25.682604 85.207619,22.920599 
	C85.362587,21.106798 85.554680,18.799423 86.683624,17.647715 
	C93.105202,11.096621 93.044136,6.753226 86.000000,1.000000 
z"/>
<path fill="#FDFCFE" opacity="1.000000" stroke="none" 
	d="
M123.000000,149.000000 
	C110.979103,149.000000 98.958214,149.000000 86.667709,148.717834 
	C92.904564,143.486176 93.117294,137.950485 86.710602,132.754272 
	C86.092979,128.237045 85.700432,123.994087 85.531380,119.742241 
	C85.519196,119.435913 87.137230,119.064774 88.367943,118.800766 
	C90.435425,118.811798 92.132256,118.745827 94.190323,118.758644 
	C95.025558,121.065811 95.319527,123.355087 96.044601,125.498528 
	C96.446030,126.685234 97.568848,127.627914 98.366508,128.680588 
	C99.251404,127.649590 100.663803,126.727623 100.904442,125.563446 
	C101.323845,123.534431 101.021187,121.356163 101.021187,119.152145 
	C103.401443,118.970154 105.206276,118.832153 107.349243,118.765541 
	C108.143242,118.789513 108.599098,118.742104 109.369568,118.779907 
	C110.114227,118.923790 110.544273,118.982468 110.999161,119.506622 
	C111.027664,126.206802 111.113686,132.443024 110.998405,138.675522 
	C110.945023,141.561615 112.032051,142.980911 114.974800,142.955246 
	C116.278496,142.943863 117.584015,143.140106 118.954369,143.565918 
	C120.346687,145.593170 121.673347,147.296585 123.000000,149.000000 
z"/>
<path fill="#FCFCFE" opacity="1.000000" stroke="none" 
	d="
M79.000000,149.000000 
	C63.645771,149.000000 48.291546,149.000000 32.637894,148.715210 
	C33.899113,146.643936 35.459751,144.857468 37.475605,143.025421 
	C41.284409,142.899994 44.637997,142.820145 48.434937,142.811310 
	C60.260983,143.146790 58.881729,143.116867 59.043419,132.709656 
	C59.115997,128.037994 59.674187,123.373863 60.456718,118.789276 
	C62.852875,118.872238 64.804329,118.872238 67.313637,118.872238 
	C67.313637,121.565475 66.993607,123.757965 67.439537,125.781677 
	C67.687599,126.907410 69.212181,127.751862 70.161469,128.723083 
	C70.942093,127.774315 72.206062,126.915817 72.403610,125.858139 
	C72.826439,123.594261 72.697906,121.227417 73.248474,118.906990 
	C75.803665,118.924080 77.905579,118.936913 80.060837,119.412918 
	C80.064095,123.886726 80.014015,127.897346 79.617889,131.987671 
	C71.716705,136.890839 71.618340,143.018051 79.000000,149.000000 
z"/>
<path fill="#FBFCFE" opacity="1.000000" stroke="none" 
	d="
M43.000000,1.000000 
	C54.687561,1.000000 66.375122,1.000000 78.442963,1.240123 
	C78.566956,1.705518 78.310684,1.930790 77.711884,2.250218 
	C71.514122,8.293384 72.520103,14.407168 79.958740,18.031425 
	C79.960838,17.994429 79.912277,18.050421 79.982574,18.287479 
	C80.052879,18.524538 80.297958,18.954065 80.247116,19.415146 
	C80.134308,23.595690 80.072342,27.315153 79.589050,31.044388 
	C77.768021,31.125109 76.368317,31.196058 74.548523,31.166164 
	C73.609573,29.687845 73.131737,28.293123 72.561958,26.937038 
	C71.763542,25.036793 70.896652,23.165316 70.059059,21.281530 
	C69.126892,23.254459 68.076317,25.183001 67.312943,27.219210 
	C66.936096,28.224392 67.089348,29.428307 66.976318,30.882179 
	C64.192986,30.882179 61.615101,30.882179 59.053993,30.421173 
	C59.076122,25.982756 59.085316,22.005346 59.086086,18.027935 
	C59.088211,7.049091 59.086815,7.049091 47.798458,6.794279 
	C46.075783,4.675622 44.537891,2.837811 43.000000,1.000000 
z"/>
<path fill="#7A56BD" opacity="1.000000" stroke="none" 
	d="
M80.010376,31.034615 
	C80.072342,27.315153 80.134308,23.595690 80.363876,19.284279 
	C80.325081,18.478359 80.118683,18.264391 79.912277,18.050421 
	C79.912277,18.050421 79.960838,17.994429 79.972649,17.595110 
	C80.004135,15.743109 80.023811,14.290426 80.395622,12.949654 
	C81.205650,13.241554 81.663544,13.421545 82.207901,13.665093 
	C82.294365,13.728651 82.603790,13.757212 82.603790,13.757212 
	C82.603790,13.757212 82.879295,13.600797 83.248154,13.428873 
	C84.386055,11.538775 85.155098,9.820602 85.924149,8.102428 
	C83.979828,7.499960 82.035500,6.897492 80.064613,5.940019 
	C79.376831,4.442031 78.715614,3.299048 78.054398,2.156063 
	C78.310684,1.930790 78.566956,1.705518 78.911621,1.240123 
	C81.041664,1.000000 83.083336,1.000000 85.562500,1.000000 
	C93.044136,6.753226 93.105202,11.096621 86.683624,17.647715 
	C85.554680,18.799423 85.362587,21.106798 85.207619,22.920599 
	C84.971634,25.682604 85.145813,28.479654 85.145813,31.682199 
	C87.014671,31.815651 88.587357,31.927954 90.726303,32.373119 
	C91.530556,33.454136 91.768555,34.202290 91.598915,35.052132 
	C87.465706,35.420666 83.740128,35.687511 80.004356,35.635746 
	C79.999565,33.889629 80.004967,32.462120 80.010376,31.034615 
z"/>
<path fill="#3E8BDA" opacity="1.000000" stroke="none" 
	d="
M42.555836,1.000000 
	C44.537891,2.837811 46.075783,4.675622 47.804192,7.210220 
	C48.004742,9.295535 48.014767,10.684064 48.024796,12.072593 
	C44.412762,18.306196 42.170258,19.292332 35.482349,17.340477 
	C38.799648,17.388250 39.108383,15.880873 38.388191,13.393940 
	C40.191273,11.958474 41.588623,10.564149 42.985973,9.169824 
	C41.315647,8.044368 39.645321,6.918911 38.025482,5.458086 
	C39.693787,-1.494065 34.948025,4.249921 33.834270,2.939004 
	C34.240421,2.494897 34.646572,2.050790 35.026360,1.303342 
	C37.370556,1.000000 39.741116,1.000000 42.555836,1.000000 
z"/>
<path fill="#1E9DE4" opacity="1.000000" stroke="none" 
	d="
M25.333332,149.000000 
	C21.392410,146.526627 19.143900,143.274506 20.039560,138.751251 
	C20.793745,134.942459 22.875320,132.135284 27.782173,132.166092 
	C28.872564,133.816910 29.367197,135.112427 29.500685,136.399551 
	C27.760956,137.839523 26.382370,139.287888 25.003784,140.736252 
	C26.665245,141.867447 28.326702,142.998642 29.991928,144.535614 
	C29.997129,146.294235 29.998566,147.647125 30.000000,149.000000 
	C29.555555,149.000000 29.111111,149.000000 28.245285,148.832397 
	C27.549269,148.776535 27.274632,148.888260 26.999998,149.000000 
	C26.555555,149.000000 26.111111,149.000000 25.333332,149.000000 
z"/>
<path fill="#D31B9A" opacity="1.000000" stroke="none" 
	d="
M138.600006,1.000000 
	C142.950562,3.741580 145.361877,7.240503 143.945694,12.253583 
	C142.773163,16.404161 139.598877,18.116585 135.242386,17.836418 
	C134.987671,16.107948 134.994171,14.964353 135.355560,13.739185 
	C136.868378,11.964197 138.026321,10.270782 139.184280,8.577366 
	C137.457672,7.683474 135.731064,6.789580 134.160599,5.569138 
	C134.544495,3.828393 134.772247,2.414197 135.000000,1.000000 
	C136.066666,1.000000 137.133347,1.000000 138.600006,1.000000 
z"/>
<path fill="#7D55BC" opacity="1.000000" stroke="none" 
	d="
M86.990280,133.026382 
	C93.117294,137.950485 92.904564,143.486176 86.199051,148.717834 
	C84.285645,149.000000 82.571281,149.000000 80.429596,148.559738 
	C80.033463,146.652176 80.064651,145.184875 80.494011,143.810837 
	C82.563362,143.215729 85.205551,142.897842 85.647163,141.740356 
	C86.141518,140.444656 84.642464,138.388428 84.011978,136.361359 
	C85.005508,135.048508 85.997894,134.037445 86.990280,133.026382 
z"/>
<path fill="#C626A0" opacity="1.000000" stroke="none" 
	d="
M127.013031,131.839798 
	C131.517944,131.439499 134.244308,133.830505 135.517136,137.797302 
	C136.978531,142.351669 135.007629,145.787827 131.102875,148.667999 
	C130.250000,149.000000 129.500000,149.000000 128.239044,148.683838 
	C127.488678,147.032745 127.249252,145.697830 127.368675,144.248505 
	C132.419479,141.166595 132.224503,139.014954 127.002281,135.706970 
	C127.005547,134.131958 127.009293,132.985886 127.013031,131.839798 
z"/>
<path fill="#B92AA4" opacity="1.000000" stroke="none" 
	d="
M126.630737,131.771896 
	C127.009293,132.985886 127.005547,134.131958 126.698792,135.858459 
	C121.801727,139.747467 121.951248,141.676956 127.009827,144.362900 
	C127.249252,145.697830 127.488678,147.032745 127.864052,148.683838 
	C126.611107,149.000000 125.222221,149.000000 123.416672,149.000000 
	C121.673347,147.296585 120.346687,145.593170 118.986176,143.104340 
	C118.919373,140.777634 118.886436,139.236343 118.853500,137.695053 
	C119.987862,134.055603 122.464516,132.072983 126.630737,131.771896 
z"/>
<path fill="#2E95E0" opacity="1.000000" stroke="none" 
	d="
M29.861828,136.407944 
	C29.367197,135.112427 28.872564,133.816910 28.163456,132.217224 
	C32.569084,130.872009 34.937012,133.634048 37.075897,137.786957 
	C37.213818,139.953583 37.117104,141.512283 37.020390,143.070999 
	C35.459751,144.857468 33.899113,146.643936 32.169235,148.715210 
	C31.555555,149.000000 31.111111,149.000000 30.333334,149.000000 
	C29.998566,147.647125 29.997129,146.294235 30.308922,144.332794 
	C33.538624,140.956055 32.501572,138.598724 29.861828,136.407944 
z"/>
<path fill="#C528A0" opacity="1.000000" stroke="none" 
	d="
M134.625000,1.000000 
	C134.772247,2.414197 134.544495,3.828393 133.863708,5.787304 
	C130.441727,9.571169 131.679123,11.917221 135.000687,13.820758 
	C134.994171,14.964353 134.987671,16.107948 134.972595,17.680460 
	C130.859299,18.515835 128.943817,15.749613 127.089951,12.001655 
	C126.995377,9.847855 127.002747,8.438754 127.010124,7.029655 
	C128.574875,5.218390 130.139618,3.407124 131.852173,1.297929 
	C132.750000,1.000000 133.500000,1.000000 134.625000,1.000000 
z"/>
<path fill="#7262C3" opacity="1.000000" stroke="none" 
	d="
M80.095825,143.717575 
	C80.064651,145.184875 80.033463,146.652176 80.001137,148.559738 
	C80.000000,149.000000 79.500000,149.000000 79.250000,149.000000 
	C71.618340,143.018051 71.716705,136.890839 79.628777,132.429169 
	C79.995758,134.262238 80.005798,135.733505 79.847458,137.515930 
	C79.817986,139.790558 79.956902,141.754074 80.095825,143.717575 
z"/>
<path fill="#2E95E0" opacity="1.000000" stroke="none" 
	d="
M27.249998,149.000000 
	C27.274632,148.888260 27.549269,148.776535 27.911953,148.832397 
	C28.000000,149.000000 27.500000,149.000000 27.249998,149.000000 
z"/>
<path fill="#3E8DDB" opacity="1.000000" stroke="none" 
	d="
M33.026581,39.196651 
	C34.671913,39.196651 36.317249,39.196651 37.962582,39.196651 
	C37.708153,38.742180 37.453728,38.287712 37.199299,37.833241 
	C40.239712,35.602196 43.280128,33.371147 46.848812,31.516157 
	C47.586960,33.234146 47.796833,34.576073 47.619789,36.000542 
	C43.724384,36.604206 43.996601,39.256943 43.997276,41.782509 
	C44.003181,63.867764 44.100010,85.953918 43.899384,108.037346 
	C43.867249,111.574669 45.080238,113.534088 48.064499,115.133087 
	C48.339684,116.552582 48.636726,117.628387 48.933773,118.704201 
	C41.389931,118.925941 39.616089,117.030289 38.573578,107.031059 
	C36.739998,107.031059 34.826351,107.031059 32.638741,106.809311 
	C33.537731,105.885773 34.710678,105.183990 36.282291,104.243683 
	C34.822987,103.283676 33.916477,102.687332 33.009968,102.090988 
	C34.805157,101.972061 36.600342,101.853127 38.666092,101.716278 
	C38.666092,99.376205 38.666092,97.283463 38.666092,94.272141 
	C36.223465,94.272141 33.785633,94.482811 31.415276,94.174583 
	C30.381615,94.040176 29.486277,92.842033 28.528118,92.126984 
	C29.463028,91.177536 30.280809,89.611557 31.357246,89.407059 
	C33.594559,88.982010 35.968975,89.278641 38.949669,89.278641 
	C38.949669,85.319916 39.130302,81.698441 38.809731,78.121887 
	C38.738636,77.328728 36.898582,76.694115 35.688507,75.677681 
	C36.625675,74.744064 37.747372,74.119278 40.101845,72.807838 
	C35.666859,72.068703 32.841629,71.597855 30.016403,71.126999 
	C32.801647,71.127007 35.586891,71.127007 38.665710,71.127007 
	C38.665710,67.154648 38.665710,63.768234 38.665710,59.756737 
	C36.532001,59.756737 34.521439,60.081310 32.684975,59.655327 
	C31.181763,59.306644 29.886028,58.063496 28.498318,57.216881 
	C29.824965,56.384453 31.060200,55.144539 32.501076,54.821301 
	C34.361343,54.403976 36.386040,54.719601 38.642677,54.719601 
	C38.642677,51.057102 38.642677,47.985504 38.642677,44.180237 
	C36.767513,44.180237 34.865566,44.180237 32.712120,43.907345 
	C34.516460,43.208122 36.572311,42.781792 38.628159,42.355465 
	C38.639767,42.033806 38.651375,41.712151 38.662983,41.390491 
	C36.784184,40.659210 34.905380,39.927933 33.026581,39.196651 
M37.892944,103.717949 
	C37.805466,103.670357 37.717987,103.622765 37.630508,103.575180 
	C37.751247,103.718689 37.871983,103.862206 38.101898,104.284859 
	C38.189880,104.333466 38.277863,104.382065 38.365849,104.430672 
	C38.245728,104.284737 38.125607,104.138809 37.892944,103.717949 
z"/>
<path fill="#507CD1" opacity="1.000000" stroke="none" 
	d="
M48.006706,35.917999 
	C47.796833,34.576073 47.586960,33.234146 47.214073,31.591808 
	C49.175587,31.157852 51.300110,31.024307 53.751812,30.870193 
	C53.751812,24.747656 53.751812,18.733318 53.751812,12.347737 
	C52.090187,12.256302 50.496891,12.168627 48.464191,12.076773 
	C48.014767,10.684064 48.004742,9.295535 47.988979,7.491066 
	C59.086815,7.049091 59.088211,7.049091 59.086086,18.027935 
	C59.085316,22.005346 59.076122,25.982756 59.172920,30.774685 
	C59.516609,33.041515 59.758152,34.493832 59.543392,36.016506 
	C55.393631,36.030579 51.700169,35.974289 48.006706,35.917999 
z"/>
<path fill="#4D7AD1" opacity="1.000000" stroke="none" 
	d="
M49.372650,118.780540 
	C48.636726,117.628387 48.339684,116.552582 48.515701,115.185608 
	C52.658157,114.949394 56.327549,115.004341 59.999836,115.424240 
	C60.005825,116.761574 60.008919,117.733948 60.012016,118.706314 
	C59.674187,123.373863 59.115997,128.037994 59.043419,132.709656 
	C58.881729,143.116867 60.260983,143.146790 48.437454,142.464111 
	C47.671402,140.727005 47.346184,139.408127 47.020966,138.089233 
	C49.125008,137.956039 51.229046,137.822845 53.906990,137.653320 
	C53.906990,132.158936 53.832115,126.794167 53.934280,121.432762 
	C53.998447,118.065559 51.542522,119.133568 49.372650,118.780540 
z"/>
<path fill="#24A2E6" opacity="1.000000" stroke="none" 
	d="
M27.941130,48.989433 
	C24.182951,51.218281 20.677814,50.674316 17.679071,47.688557 
	C14.858197,44.879902 14.096166,41.386520 15.845234,37.749912 
	C17.729887,33.831402 20.874079,31.839106 25.696014,33.260155 
	C25.993698,35.215172 25.995468,36.577698 25.666348,37.909431 
	C21.989759,36.920025 20.100784,38.543560 20.227367,41.653172 
	C20.370874,45.178516 23.126129,45.448326 25.985031,45.298893 
	C26.641346,46.781300 27.291237,47.885365 27.941130,48.989433 
z"/>
<path fill="#23A2E7" opacity="1.000000" stroke="none" 
	d="
M22.990105,79.752235 
	C20.177755,80.350319 17.365404,80.948395 14.449232,81.037521 
	C17.985260,79.918602 14.995872,77.872398 15.591763,76.633438 
	C18.818077,77.243118 21.194727,76.561188 21.128670,73.266975 
	C21.062021,69.943237 18.840044,68.780464 15.614086,69.154984 
	C18.117867,64.610970 14.148232,66.537651 12.850319,65.942139 
	C18.704824,62.711777 22.260441,63.886761 25.920980,70.986893 
	C26.011093,73.165802 26.006540,74.587982 26.001987,76.010162 
	C26.001987,76.010162 26.002043,75.996384 25.772142,76.132713 
	C25.378477,76.586586 25.214714,76.904129 25.050949,77.221672 
	C25.050951,77.221672 25.027119,77.665154 24.603609,77.876236 
	C23.783434,78.642288 23.386768,79.197258 22.990105,79.752235 
z"/>
<path fill="#1EA0E6" opacity="1.000000" stroke="none" 
	d="
M25.966383,112.536240 
	C19.998104,113.516365 15.595311,110.420563 15.005177,104.828918 
	C14.422820,99.310959 18.520897,95.547737 25.589947,96.033447 
	C24.993998,97.745041 24.000883,98.896935 22.730030,100.257645 
	C21.783125,102.251816 21.113955,104.037178 20.444786,105.822525 
	C22.260141,106.438698 24.075497,107.054863 25.920456,108.077209 
	C25.955502,109.834343 25.960941,111.185287 25.966383,112.536240 
z"/>
<path fill="#2595E0" opacity="1.000000" stroke="none" 
	d="
M25.997238,37.940220 
	C25.995468,36.577698 25.993698,35.215172 25.987818,33.443913 
	C28.138828,34.956779 30.293947,36.878384 32.737823,38.998322 
	C34.905380,39.927933 36.784184,40.659210 38.662983,41.390491 
	C38.651375,41.712151 38.639767,42.033806 38.628159,42.355465 
	C36.572311,42.781792 34.516460,43.208122 32.281097,43.982307 
	C30.936127,45.853390 29.770678,47.376625 28.273178,48.944645 
	C27.291237,47.885365 26.641346,46.781300 26.164349,45.016685 
	C28.482059,42.097828 28.096125,39.973637 25.997238,37.940220 
z"/>
<path fill="#2A98E1" opacity="1.000000" stroke="none" 
	d="
M23.007765,100.048828 
	C24.000883,98.896935 24.993998,97.745041 25.987984,96.223663 
	C28.162565,97.777069 30.336275,99.699951 32.759979,101.856911 
	C33.916477,102.687332 34.822987,103.283676 36.282291,104.243683 
	C34.710678,105.183990 33.537731,105.885773 32.204239,106.890320 
	C30.237490,108.981934 28.431286,110.770782 26.295734,112.547935 
	C25.960941,111.185287 25.955502,109.834343 26.106007,107.804993 
	C28.726599,102.917976 28.218279,101.812393 23.007765,100.048828 
z"/>
<path fill="#10ABED" opacity="1.000000" stroke="none" 
	d="
M12.512190,66.053825 
	C14.148232,66.537651 18.117867,64.610970 15.540205,69.139702 
	C15.503435,69.448959 15.401285,69.342148 15.077295,69.361069 
	C14.509257,69.940750 14.265210,70.501518 13.978920,71.433609 
	C14.362336,73.376976 14.787992,74.948997 15.213650,76.521027 
	C14.995872,77.872398 17.985260,79.918602 14.165092,80.776260 
	C7.540026,77.406738 6.862532,71.847328 12.512190,66.053825 
z"/>
<path fill="#2E92DE" opacity="1.000000" stroke="none" 
	d="
M37.982464,13.435081 
	C39.108383,15.880873 38.799648,17.388250 35.269238,17.053715 
	C34.905151,17.080963 34.952034,17.037590 34.817360,16.809200 
	C34.328381,16.432001 33.974083,16.283194 33.619781,16.134388 
	C29.495512,11.624447 29.392300,8.438965 33.517849,3.080746 
	C34.948025,4.249921 39.693787,-1.494065 37.832275,5.561683 
	C37.588581,6.000648 37.153008,6.053236 36.904327,6.042423 
	C36.472904,6.368072 36.290165,6.704535 36.052891,7.304209 
	C35.735085,8.033410 35.471806,8.499399 34.941032,9.113887 
	C34.940235,9.800218 35.206932,10.338050 35.614498,11.043853 
	C35.890278,11.476464 35.966045,11.757074 36.086578,12.267633 
	C36.385983,12.748310 36.643063,12.925829 37.232441,13.081743 
	C37.662918,13.244572 37.822689,13.339826 37.982464,13.435081 
z"/>
<path fill="#2995E0" opacity="1.000000" stroke="none" 
	d="
M26.452965,76.014404 
	C26.006540,74.587982 26.011093,73.165802 26.026360,71.316803 
	C27.100801,70.927010 28.164532,70.964035 29.622334,71.064026 
	C32.841629,71.597855 35.666859,72.068703 40.101845,72.807838 
	C37.747372,74.119278 36.625675,74.744064 35.264252,75.609047 
	C32.317665,75.905708 29.610804,75.962181 26.452965,76.014404 
z"/>
<path fill="#3C8ADA" opacity="1.000000" stroke="none" 
	d="
M46.571144,138.014938 
	C47.346184,139.408127 47.671402,140.727005 47.994102,142.393097 
	C44.637997,142.820145 41.284409,142.899994 37.475605,143.025421 
	C37.117104,141.512283 37.213818,139.953583 37.173214,138.109711 
	C40.064377,137.863251 43.092854,137.901947 46.571144,138.014938 
z"/>
<path fill="#2995E0" opacity="1.000000" stroke="none" 
	d="
M23.239635,79.677811 
	C23.386768,79.197258 23.783434,78.642288 24.454124,78.040443 
	C24.315155,78.530174 23.902163,79.066780 23.239635,79.677811 
z"/>
<path fill="#2995E0" opacity="1.000000" stroke="none" 
	d="
M25.242287,77.043808 
	C25.214714,76.904129 25.378477,76.586586 25.779552,76.135056 
	C25.822451,76.289352 25.628036,76.577644 25.242287,77.043808 
z"/>
<path fill="#3E8BDA" opacity="1.000000" stroke="none" 
	d="
M33.771179,16.383625 
	C33.974083,16.283194 34.328381,16.432001 34.824650,16.839981 
	C34.618603,16.943722 34.270592,16.788294 33.771179,16.383625 
z"/>
<path fill="#BB2CA4" opacity="1.000000" stroke="none" 
	d="
M127.003677,75.869873 
	C126.549538,80.327423 126.095406,84.784981 125.706543,88.601822 
	C128.713593,91.748672 134.386002,87.148438 135.347473,93.932755 
	C132.212952,94.157158 129.381027,94.359901 126.627708,94.557014 
	C125.087585,103.342735 125.425537,104.269783 130.589417,105.212852 
	C130.667465,107.060120 130.341568,108.451622 130.015656,109.843132 
	C127.809784,109.902283 126.385078,110.180786 125.510048,113.026604 
	C124.828781,115.242249 121.829277,116.745087 119.455894,118.186623 
	C118.699348,116.569023 118.346954,115.329498 118.361969,113.950851 
	C119.490929,112.149231 120.904747,110.490967 120.915543,108.823608 
	C121.062195,86.178894 121.077591,63.532368 120.884499,40.888340 
	C120.870300,39.224171 119.004158,37.575798 118.163261,35.565563 
	C118.575211,33.932617 118.822906,32.654182 119.070602,31.375748 
	C123.992409,31.733364 125.395554,35.434227 126.817612,39.962749 
	C127.428131,41.740337 127.832855,42.867832 128.201324,44.035011 
	C128.165070,44.074696 128.098953,44.159473 128.098953,44.159473 
	C127.152382,47.342949 126.205803,50.526424 125.083908,54.299530 
	C128.356720,54.546410 130.395660,54.379745 132.198746,54.953861 
	C133.318237,55.310322 134.080154,56.789730 135.002579,57.765102 
	C134.034058,58.496895 133.150665,59.646843 132.077621,59.865337 
	C130.341263,60.218895 128.480286,59.960480 126.328606,59.960480 
	C126.328606,63.756199 126.328606,67.180351 126.665901,71.260643 
	C127.003357,73.234482 127.003510,74.552177 127.003677,75.869873 
z"/>
<path fill="#A839AB" opacity="1.000000" stroke="none" 
	d="
M117.994560,114.089981 
	C118.346954,115.329498 118.699348,116.569023 119.069870,118.208786 
	C118.087616,119.216164 116.244461,119.790550 116.219406,120.435562 
	C116.008286,125.870682 116.093475,131.319641 116.232101,136.760803 
	C116.241447,137.127426 117.408981,137.464554 118.445679,137.755219 
	C118.886436,139.236343 118.919373,140.777634 118.920502,142.780502 
	C117.584015,143.140106 116.278496,142.943863 114.974800,142.955246 
	C112.032051,142.980911 110.945023,141.561615 110.998405,138.675522 
	C111.113686,132.443024 111.027664,126.206802 110.887947,119.281693 
	C110.186241,118.625755 109.620598,118.660225 109.054955,118.694687 
	C108.599098,118.742104 108.143242,118.789513 107.257088,118.438019 
	C105.554474,116.727280 104.282158,115.415436 103.470428,114.032852 
	C108.618866,114.004723 113.306709,114.047348 117.994560,114.089981 
z"/>
<path fill="#AB3EAD" opacity="1.000000" stroke="none" 
	d="
M118.702034,31.252251 
	C118.822906,32.654182 118.575211,33.932617 117.714035,35.638649 
	C114.059441,36.015690 111.018333,35.965134 107.981522,35.529358 
	C107.993729,33.862579 108.001625,32.581024 108.009521,31.299469 
	C108.600952,29.958597 109.622688,28.642742 109.702377,27.272116 
	C109.932762,23.309443 109.783798,19.324722 109.784180,15.348658 
	C109.784981,6.971755 109.785095,6.971755 118.585014,7.524034 
	C118.684715,9.272491 118.352531,10.592097 118.020355,11.911703 
	C116.948120,12.950366 115.046761,13.918170 114.950867,15.040275 
	C114.585587,19.314360 114.974648,23.647518 114.742622,27.940266 
	C114.585594,30.845516 116.074730,31.266159 118.702034,31.252251 
z"/>
<path fill="#E41393" opacity="1.000000" stroke="none" 
	d="
M143.962814,98.903961 
	C147.973053,96.736694 151.919769,97.710304 153.947006,101.184959 
	C155.463348,103.783936 156.011749,107.939987 155.065720,110.755814 
	C153.563171,115.228165 149.284851,116.274475 144.529358,114.664597 
	C144.562744,112.818306 144.774933,111.442535 145.328369,110.153809 
	C147.363724,109.721321 149.274170,109.509392 150.651871,108.540161 
	C151.254532,108.116188 151.223114,105.321800 150.691330,105.027298 
	C149.036209,104.110725 147.003983,103.875099 145.084259,102.986465 
	C144.687943,101.366364 144.325378,100.135162 143.962814,98.903961 
z"/>
<path fill="#E30E91" opacity="1.000000" stroke="none" 
	d="
M142.510696,34.796333 
	C146.148087,31.567360 149.842621,32.295395 153.206940,35.036160 
	C156.551575,37.760895 157.147980,41.557835 155.455017,45.348675 
	C153.398392,49.953754 149.516251,51.227322 144.556946,49.595886 
	C145.046570,48.019550 145.716171,46.896019 146.732941,45.739017 
	C149.978104,45.296947 151.718857,43.776783 151.003647,40.730301 
	C150.228378,37.427986 147.698029,37.628929 145.075104,37.924938 
	C144.192703,36.604523 143.351700,35.700428 142.510696,34.796333 
z"/>
<path fill="#D31D9B" opacity="1.000000" stroke="none" 
	d="
M133.993835,70.978691 
	C135.878616,66.239418 139.083588,63.624199 144.729202,65.073517 
	C144.615936,66.801582 144.220413,67.937683 143.465286,69.124603 
	C141.743866,70.784180 139.200043,72.447884 139.271729,73.989990 
	C139.411499,76.996338 142.170898,77.377808 144.882263,77.027855 
	C143.955673,78.907982 142.992004,80.394402 142.028336,81.880821 
	C139.510910,80.090210 136.993500,78.299599 134.532410,76.000755 
	C134.390457,73.987915 134.192154,72.483307 133.993835,70.978691 
z"/>
<path fill="#D21B9A" opacity="1.000000" stroke="none" 
	d="
M144.987122,110.066765 
	C144.774933,111.442535 144.562744,112.818306 144.203033,114.512482 
	C140.253601,111.625504 136.374908,108.627792 130.454636,109.904236 
	C130.341568,108.451622 130.667465,107.060120 131.002838,105.305145 
	C136.662033,106.208237 139.955582,102.590210 143.619034,98.965157 
	C144.325378,100.135162 144.687943,101.366364 144.899506,103.293091 
	C144.828049,106.014664 144.907593,108.040718 144.987122,110.066765 
z"/>
<path fill="#D51D9A" opacity="1.000000" stroke="none" 
	d="
M146.385757,45.772491 
	C145.716171,46.896019 145.046570,48.019550 144.226562,49.448708 
	C140.446671,48.827591 139.478333,43.142235 134.404694,43.973595 
	C133.776291,42.312851 133.340500,41.132019 132.904709,39.951183 
	C136.855942,40.029274 139.847122,38.384983 142.179840,34.881035 
	C143.351700,35.700428 144.192703,36.604523 144.900925,38.242249 
	C142.609955,41.883400 144.035995,43.937870 146.385757,45.772491 
z"/>
<path fill="#E11796" opacity="1.000000" stroke="none" 
	d="
M143.824890,69.073776 
	C144.220413,67.937683 144.615936,66.801582 145.023270,65.276718 
	C149.944290,66.019691 151.891739,69.578293 151.450043,74.085037 
	C150.973862,78.943550 147.788391,81.674408 142.408752,81.948334 
	C142.992004,80.394402 143.955673,78.907982 145.053635,76.754684 
	C148.052826,73.104759 146.267380,71.025421 143.824890,69.073776 
z"/>
<path fill="#B725A2" opacity="1.000000" stroke="none" 
	d="
M118.464020,11.977243 
	C118.352531,10.592097 118.684715,9.272491 119.025345,7.605981 
	C121.397400,7.209251 123.760994,7.159426 126.567360,7.069627 
	C127.002747,8.438754 126.995377,9.847855 126.978485,11.680017 
	C124.281876,12.082981 121.594772,12.062881 118.464020,11.977243 
z"/>
<path fill="#C4209E" opacity="1.000000" stroke="none" 
	d="
M133.556320,70.979599 
	C134.192154,72.483307 134.390457,73.987915 134.331711,75.729813 
	C132.010193,75.968597 129.945709,75.970100 127.442451,75.920738 
	C127.003510,74.552177 127.003357,73.234482 127.007515,71.521576 
	C129.047485,71.077736 131.083145,71.029121 133.556320,70.979599 
z"/>
<path fill="#C41E9D" opacity="1.000000" stroke="none" 
	d="
M132.493500,39.866173 
	C133.340500,41.132019 133.776291,42.312851 134.072388,43.823593 
	C132.940903,44.209183 131.949127,44.264870 130.263275,44.183067 
	C129.125336,44.028824 128.681458,44.012074 128.237579,43.995323 
	C127.832855,42.867832 127.428131,41.740337 127.034241,40.243233 
	C128.724152,39.842804 130.403229,39.811985 132.493500,39.866173 
z"/>
<path fill="#D51D9A" opacity="1.000000" stroke="none" 
	d="
M128.201324,44.035011 
	C128.681458,44.012074 129.125336,44.028824 129.904617,44.073101 
	C129.693756,44.208752 129.147491,44.316875 128.350098,44.292236 
	C128.098953,44.159473 128.165070,44.074696 128.201324,44.035011 
z"/>
<path fill="#9246B4" opacity="1.000000" stroke="none" 
	d="
M107.564774,31.221554 
	C108.001625,32.581024 107.993729,33.862579 107.523613,35.596962 
	C102.043114,35.683338 97.024826,35.316891 92.006546,34.950443 
	C91.768555,34.202290 91.530556,33.454136 91.161713,32.436657 
	C92.556801,31.645611 94.082733,31.123890 95.999832,30.468431 
	C95.999832,28.441486 95.774788,26.281923 96.095428,24.206673 
	C96.254074,23.179859 97.417953,22.308359 98.127007,21.366589 
	C99.087799,22.289719 100.641861,23.081678 100.881218,24.164316 
	C101.327553,26.183041 101.009392,28.370794 101.009392,30.874922 
	C103.287003,30.975080 105.203514,31.059361 107.564774,31.221554 
z"/>
<path fill="#7B5CBF" opacity="1.000000" stroke="none" 
	d="
M80.015846,137.204803 
	C80.005798,135.733505 79.995758,134.262238 79.974823,132.349457 
	C80.014015,127.897346 80.064095,123.886726 79.904617,119.182228 
	C79.798210,117.010895 79.901352,115.533440 80.452782,113.978516 
	C83.931801,113.940002 86.962532,113.978951 89.989182,114.360916 
	C89.322495,116.043877 88.659889,117.383827 87.997284,118.723770 
	C87.137230,119.064774 85.519196,119.435913 85.531380,119.742241 
	C85.700432,123.994087 86.092979,128.237045 86.710594,132.754272 
	C85.997894,134.037445 85.005508,135.048508 83.608261,136.391266 
	C82.140884,136.883560 81.078369,137.044174 80.015846,137.204803 
z"/>
<path fill="#9347B4" opacity="1.000000" stroke="none" 
	d="
M103.009842,114.103600 
	C104.282158,115.415436 105.554474,116.727280 106.918945,118.366638 
	C105.206276,118.832153 103.401443,118.970154 101.021187,119.152145 
	C101.021187,121.356163 101.323845,123.534431 100.904442,125.563446 
	C100.663803,126.727623 99.251404,127.649590 98.366508,128.680588 
	C97.568848,127.627914 96.446030,126.685234 96.044601,125.498528 
	C95.319527,123.355087 95.025558,121.065811 94.244850,118.293289 
	C93.957649,116.528168 93.977165,115.307167 94.443825,114.020821 
	C97.597252,114.004845 100.303551,114.054222 103.009842,114.103600 
z"/>
<path fill="#8958BB" opacity="1.000000" stroke="none" 
	d="
M93.996689,114.086174 
	C93.977165,115.307167 93.957649,116.528168 93.883606,118.214508 
	C92.132256,118.745827 90.435425,118.811798 88.367943,118.800766 
	C88.659889,117.383827 89.322495,116.043877 90.386612,114.287598 
	C91.857651,113.942909 92.927170,114.014542 93.996689,114.086174 
z"/>
<path fill="#9347B4" opacity="1.000000" stroke="none" 
	d="
M109.369568,118.779907 
	C109.620598,118.660225 110.186241,118.625755 110.863098,118.816208 
	C110.544273,118.982468 110.114227,118.923790 109.369568,118.779907 
z"/>
<path fill="#666EC9" opacity="1.000000" stroke="none" 
	d="
M60.456718,118.789276 
	C60.008919,117.733948 60.005825,116.761574 60.420204,115.349609 
	C64.559265,114.956566 68.280853,115.003120 72.001411,115.395569 
	C72.265320,116.795227 72.530251,117.848984 72.795189,118.902740 
	C72.697906,121.227417 72.826439,123.594261 72.403610,125.858139 
	C72.206062,126.915817 70.942093,127.774315 70.161469,128.723083 
	C69.212181,127.751862 67.687599,126.907410 67.439537,125.781677 
	C66.993607,123.757965 67.313637,121.565475 67.313637,118.872238 
	C64.804329,118.872238 62.852875,118.872238 60.456718,118.789276 
z"/>
<path fill="#7065C4" opacity="1.000000" stroke="none" 
	d="
M73.248474,118.906990 
	C72.530251,117.848984 72.265320,116.795227 72.405411,115.325447 
	C75.208458,114.624947 77.606483,114.340462 80.004501,114.055977 
	C79.901352,115.533440 79.798210,117.010895 79.851273,118.719055 
	C77.905579,118.936913 75.803665,118.924080 73.248474,118.906990 
z"/>
<path fill="#666DC9" opacity="1.000000" stroke="none" 
	d="
M59.999695,35.946144 
	C59.758152,34.493832 59.516609,33.041515 59.156143,31.235691 
	C61.615101,30.882179 64.192986,30.882179 66.976318,30.882179 
	C67.089348,29.428307 66.936096,28.224392 67.312943,27.219210 
	C68.076317,25.183001 69.126892,23.254459 70.059059,21.281530 
	C70.896652,23.165316 71.763542,25.036793 72.561958,26.937038 
	C73.131737,28.293123 73.609573,29.687845 74.480103,31.493402 
	C73.888641,33.271343 72.945511,34.621204 71.544830,36.033623 
	C67.391418,36.046165 63.695557,35.996155 59.999695,35.946144 
z"/>
<path fill="#7464C3" opacity="1.000000" stroke="none" 
	d="
M77.711884,2.250219 
	C78.715614,3.299048 79.376831,4.442031 79.908325,6.258168 
	C79.866898,8.900128 79.955193,10.868937 80.043488,12.837744 
	C80.023811,14.290426 80.004135,15.743109 79.970551,17.632107 
	C72.520103,14.407168 71.514122,8.293384 77.711884,2.250219 
z"/>
<path fill="#796CC6" opacity="1.000000" stroke="none" 
	d="
M72.002388,35.971069 
	C72.945511,34.621204 73.888641,33.271343 74.900192,31.594242 
	C76.368317,31.196058 77.768021,31.125109 79.589050,31.044388 
	C80.004967,32.462120 79.999565,33.889629 79.563980,35.713463 
	C76.756660,36.063545 74.379524,36.017307 72.002388,35.971069 
z"/>
<path fill="#796CC6" opacity="1.000000" stroke="none" 
	d="
M79.982574,18.287479 
	C80.118683,18.264391 80.325081,18.478359 80.414719,18.823196 
	C80.297958,18.954065 80.052879,18.524538 79.982574,18.287479 
z"/>
<path fill="#FBFAFD" opacity="1.000000" stroke="none" 
	d="
M71.544830,36.033623 
	C74.379524,36.017307 76.756660,36.063545 79.574173,36.032074 
	C83.740128,35.687511 87.465706,35.420666 91.598915,35.052132 
	C97.024826,35.316891 102.043114,35.683338 107.519302,35.982185 
	C111.018333,35.965134 114.059441,36.015690 117.549782,35.993164 
	C119.004158,37.575798 120.870300,39.224171 120.884499,40.888340 
	C121.077591,63.532368 121.062195,86.178894 120.915543,108.823608 
	C120.904747,110.490967 119.490929,112.149231 118.361969,113.950851 
	C113.306709,114.047348 108.618866,114.004723 103.470428,114.032852 
	C100.303551,114.054222 97.597252,114.004845 94.443825,114.020821 
	C92.927170,114.014542 91.857651,113.942909 90.390701,113.944580 
	C86.962532,113.978951 83.931801,113.940002 80.452782,113.978516 
	C77.606483,114.340462 75.208458,114.624947 72.406433,114.979546 
	C68.280853,115.003120 64.559265,114.956566 60.417313,114.984650 
	C56.327549,115.004341 52.658157,114.949394 48.537563,114.841919 
	C45.080238,113.534088 43.867249,111.574669 43.899384,108.037346 
	C44.100010,85.953918 44.003181,63.867764 43.997276,41.782509 
	C43.996601,39.256943 43.724384,36.604206 47.619789,36.000542 
	C51.700169,35.974289 55.393631,36.030579 59.543392,36.016506 
	C63.695557,35.996155 67.391418,36.046165 71.544830,36.033623 
M111.909615,43.479130 
	C111.643425,43.219017 111.349258,43.182270 110.169434,43.236374 
	C108.436401,43.276825 106.703362,43.317276 104.073837,43.145794 
	C100.363670,43.214973 96.653496,43.284153 92.153076,43.222515 
	C91.089584,43.269913 90.026093,43.317310 88.510834,43.227020 
	C88.510834,43.227020 88.058525,43.362900 87.175819,43.220318 
	C84.800301,43.267895 82.424774,43.315472 79.165184,43.166721 
	C76.756012,43.238033 74.346840,43.309341 71.154121,43.235390 
	C70.096466,43.283478 69.038818,43.331570 67.504822,43.237709 
	C67.504822,43.237709 67.026917,43.374352 66.162048,43.226238 
	C64.120949,43.274048 62.079849,43.321857 59.203110,43.169422 
	C57.496487,43.220104 55.789867,43.270786 53.413052,43.232407 
	C52.651722,44.174847 51.890392,45.117287 51.026566,46.984482 
	C51.060593,65.967789 51.094624,84.951088 51.042629,104.609673 
	C52.050304,105.301773 53.057983,105.993866 54.905212,106.854233 
	C56.618595,106.781738 58.331982,106.709244 60.907776,106.777245 
	C62.944592,106.728882 64.981407,106.680511 67.502655,106.769409 
	C67.663597,106.721832 67.824547,106.674255 68.768257,106.765442 
	C69.823387,106.718849 70.878517,106.672249 72.817978,106.831406 
	C75.229919,106.768707 77.641869,106.706009 80.927620,106.782494 
	C83.290833,106.743988 85.654045,106.705482 88.506966,106.805794 
	C88.669983,106.758766 88.833008,106.711739 89.824638,106.781609 
	C91.211670,106.719521 92.598694,106.657440 94.720764,106.764641 
	C95.470886,106.730759 96.221008,106.696877 97.499062,106.803749 
	C97.675034,106.756805 97.851013,106.709869 98.870712,106.782005 
	C100.573082,106.747101 102.275459,106.712204 104.493546,106.819016 
	C104.664482,106.768387 104.835426,106.717758 105.757538,106.769966 
	C106.506905,106.698875 107.256279,106.627785 108.808052,106.745613 
	C109.886772,106.636108 110.965485,106.526611 112.392632,106.501610 
	C112.646538,106.413765 112.791862,106.236649 113.016121,105.865677 
	C113.016121,105.865677 112.942932,105.663841 113.625610,105.222298 
	C113.677612,85.159805 113.729622,65.097313 113.638718,44.495258 
	C113.108444,44.338600 112.578171,44.181938 112.051178,43.968822 
	C112.051178,43.968822 111.999352,43.946198 111.909615,43.479130 
z"/>
<path fill="#FAF8FC" opacity="1.000000" stroke="none" 
	d="
M80.395615,12.949654 
	C79.955193,10.868937 79.866898,8.900128 79.934891,6.613172 
	C82.035500,6.897492 83.979828,7.499960 85.924149,8.102428 
	C85.155098,9.820602 84.386055,11.538775 83.058655,13.349573 
	C82.500298,13.442197 82.121437,13.601535 82.121437,13.601536 
	C81.663544,13.421545 81.205650,13.241554 80.395615,12.949654 
z"/>
<path fill="#7464C3" opacity="1.000000" stroke="none" 
	d="
M82.207901,13.665092 
	C82.121437,13.601535 82.500298,13.442197 82.689796,13.521497 
	C82.879295,13.600797 82.603790,13.757212 82.603790,13.757212 
	C82.603790,13.757212 82.294365,13.728651 82.207901,13.665092 
z"/>
<path fill="#F1F6FC" opacity="1.000000" stroke="none" 
	d="
M37.153008,6.053236 
	C37.153008,6.053236 37.588581,6.000648 37.781784,5.897051 
	C39.645321,6.918911 41.315647,8.044368 42.985973,9.169824 
	C41.588623,10.564149 40.191273,11.958474 38.388191,13.393940 
	C37.822689,13.339826 37.662918,13.244572 37.135544,12.862429 
	C36.570526,12.304763 36.308769,12.130802 35.982666,12.053656 
	C35.966045,11.757074 35.890278,11.476464 35.597908,10.721884 
	C35.363144,9.809758 35.285835,9.387573 35.208527,8.965387 
	C35.471806,8.499399 35.735085,8.033410 36.278831,7.201237 
	C36.839565,6.636997 37.037468,6.376391 37.153008,6.053236 
z"/>
<path fill="#EEF6FC" opacity="1.000000" stroke="none" 
	d="
M29.500687,136.399551 
	C32.501572,138.598724 33.538624,140.956055 30.305153,143.927048 
	C28.326702,142.998642 26.665245,141.867447 25.003784,140.736252 
	C26.382370,139.287888 27.760956,137.839523 29.500687,136.399551 
z"/>
<path fill="#FBF1F8" opacity="1.000000" stroke="none" 
	d="
M135.355560,13.739185 
	C131.679123,11.917221 130.441727,9.571169 133.707550,6.113853 
	C135.731064,6.789580 137.457672,7.683474 139.184280,8.577366 
	C138.026321,10.270782 136.868378,11.964197 135.355560,13.739185 
z"/>
<path fill="#F9F8FC" opacity="1.000000" stroke="none" 
	d="
M79.847458,137.515930 
	C81.078369,137.044174 82.140884,136.883560 83.607117,136.693039 
	C84.642464,138.388428 86.141518,140.444656 85.647163,141.740356 
	C85.205551,142.897842 82.563362,143.215729 80.494003,143.810837 
	C79.956902,141.754074 79.817986,139.790558 79.847458,137.515930 
z"/>
<path fill="#F9EFF7" opacity="1.000000" stroke="none" 
	d="
M127.368683,144.248505 
	C121.951248,141.676956 121.801727,139.747467 126.699265,136.287384 
	C132.224503,139.014954 132.419479,141.166595 127.368683,144.248505 
z"/>
<path fill="#2A98E1" opacity="1.000000" stroke="none" 
	d="
M38.005486,103.992882 
	C38.125607,104.138809 38.245728,104.284737 38.365845,104.430672 
	C38.277863,104.382065 38.189880,104.333466 38.050934,104.142426 
	C37.999966,104.000000 38.005482,103.992882 38.005486,103.992882 
z"/>
<path fill="#2A98E1" opacity="1.000000" stroke="none" 
	d="
M37.996342,104.002853 
	C37.871983,103.862206 37.751247,103.718689 37.630508,103.575180 
	C37.717987,103.622765 37.805466,103.670357 37.949211,103.855415 
	C38.005482,103.992882 37.999966,104.000000 37.996342,104.002853 
z"/>
<path fill="#EDF5FC" opacity="1.000000" stroke="none" 
	d="
M25.666348,37.909431 
	C28.096125,39.973637 28.482059,42.097828 26.157925,44.638344 
	C23.126129,45.448326 20.370874,45.178516 20.227367,41.653172 
	C20.100784,38.543560 21.989759,36.920025 25.666348,37.909431 
z"/>
<path fill="#F3F8FD" opacity="1.000000" stroke="none" 
	d="
M15.591763,76.633438 
	C14.787992,74.948997 14.362336,73.376976 14.225166,71.286163 
	C14.809530,70.292305 15.105407,69.817230 15.401284,69.342148 
	C15.401285,69.342148 15.503435,69.448959 15.577316,69.464233 
	C18.840044,68.780464 21.062021,69.943237 21.128670,73.266975 
	C21.194727,76.561188 18.818077,77.243118 15.591763,76.633438 
z"/>
<path fill="#E9F3FC" opacity="1.000000" stroke="none" 
	d="
M22.730030,100.257645 
	C28.218279,101.812393 28.726599,102.917976 26.076401,107.398819 
	C24.075497,107.054863 22.260141,106.438698 20.444786,105.822525 
	C21.113955,104.037178 21.783125,102.251816 22.730030,100.257645 
z"/>
<path fill="#23A2E7" opacity="1.000000" stroke="none" 
	d="
M15.077294,69.361069 
	C15.105407,69.817230 14.809530,70.292305 14.267407,70.914833 
	C14.265210,70.501518 14.509257,69.940750 15.077294,69.361069 
z"/>
<path fill="#3E8BDA" opacity="1.000000" stroke="none" 
	d="
M36.904327,6.042423 
	C37.037468,6.376391 36.839565,6.636997 36.333363,6.938025 
	C36.290165,6.704535 36.472904,6.368072 36.904327,6.042423 
z"/>
<path fill="#3E8BDA" opacity="1.000000" stroke="none" 
	d="
M34.941032,9.113886 
	C35.285835,9.387573 35.363144,9.809758 35.457039,10.553913 
	C35.206932,10.338050 34.940235,9.800218 34.941032,9.113886 
z"/>
<path fill="#3E8BDA" opacity="1.000000" stroke="none" 
	d="
M36.086578,12.267633 
	C36.308769,12.130802 36.570526,12.304763 36.864834,12.794853 
	C36.643063,12.925829 36.385983,12.748310 36.086578,12.267633 
z"/>
<path fill="#FBEDF6" opacity="1.000000" stroke="none" 
	d="
M145.328384,110.153809 
	C144.907593,108.040718 144.828049,106.014664 144.933258,103.681992 
	C147.003983,103.875099 149.036209,104.110725 150.691330,105.027298 
	C151.223114,105.321800 151.254532,108.116188 150.651871,108.540161 
	C149.274170,109.509392 147.363724,109.721321 145.328384,110.153809 
z"/>
<path fill="#FBEFF7" opacity="1.000000" stroke="none" 
	d="
M146.732941,45.739014 
	C144.035995,43.937870 142.609955,41.883400 144.942322,38.658569 
	C147.698029,37.628929 150.228378,37.427986 151.003647,40.730301 
	C151.718857,43.776783 149.978104,45.296947 146.732941,45.739014 
z"/>
<path fill="#FAEBF5" opacity="1.000000" stroke="none" 
	d="
M143.465271,69.124603 
	C146.267380,71.025421 148.052826,73.104759 145.016571,76.360977 
	C142.170898,77.377808 139.411499,76.996338 139.271729,73.989990 
	C139.200043,72.447884 141.743866,70.784180 143.465271,69.124603 
z"/>
<path fill="#4B78D0" opacity="1.000000" stroke="none" 
	d="
M54.065662,106.685959 
	C53.057983,105.993866 52.050304,105.301773 51.369553,103.974823 
	C51.786396,84.819870 51.883888,66.299789 51.930717,47.779575 
	C51.932167,47.206970 51.408119,46.633041 51.129063,46.059727 
	C51.890392,45.117287 52.651722,44.174847 54.043221,43.497025 
	C56.449703,43.860565 58.226021,43.959480 60.002113,44.450298 
	C60.003231,45.887287 60.004574,46.932373 59.648315,48.057686 
	C58.176353,48.429886 57.061989,48.721859 55.776443,49.090904 
	C55.535652,49.270782 55.385525,49.434319 55.409714,49.466385 
	C55.550213,49.652683 55.731705,49.808067 55.960041,50.440762 
	C55.980274,67.280472 55.939808,83.653313 55.731445,100.109291 
	C55.691570,100.457001 55.819595,100.721588 56.072411,101.322174 
	C57.433891,102.008026 58.670589,102.357864 59.933868,103.110580 
	C59.975815,104.320763 59.991184,105.128082 59.613884,105.954544 
	C57.502693,106.211121 55.784180,106.448540 54.065662,106.685959 
z"/>
<path fill="#A436AA" opacity="1.000000" stroke="none" 
	d="
M104.970322,43.357727 
	C106.703362,43.317276 108.436401,43.276825 110.719406,43.458214 
	C111.480133,43.858051 111.723465,43.946770 111.999352,43.946198 
	C111.999352,43.946198 112.051178,43.968822 112.139305,44.259663 
	C112.529305,44.763409 112.831169,44.976318 113.085556,45.643661 
	C113.006355,65.953339 112.974648,85.808594 112.942932,105.663841 
	C112.942932,105.663841 113.016121,105.865677 112.768265,105.946167 
	C112.312210,106.096489 112.153473,106.226639 112.044205,106.417107 
	C110.965485,106.526611 109.886772,106.636108 108.404236,106.275261 
	C107.998520,104.546791 107.996628,103.288681 108.213165,101.892883 
	C108.649757,101.489380 108.867920,101.223572 109.375305,100.662506 
	C109.762978,83.826874 109.870193,67.286522 109.922661,50.745995 
	C109.924461,50.178974 109.377357,49.610210 108.825180,48.747360 
	C106.706940,48.314117 104.849609,48.175781 102.986618,47.681168 
	C103.644073,46.002506 104.307198,44.680115 104.970322,43.357727 
z"/>
<path fill="#7C51BB" opacity="1.000000" stroke="none" 
	d="
M88.017258,106.666977 
	C85.654045,106.705482 83.290833,106.743988 80.475235,106.324341 
	C80.013214,104.564087 80.003586,103.261993 80.456390,101.904068 
	C85.287636,101.909294 89.656433,101.970337 94.018349,102.412613 
	C94.002884,104.061020 93.994301,105.328186 93.985725,106.595352 
	C92.598694,106.657440 91.211670,106.719521 89.312935,106.597336 
	C88.469414,106.252998 88.208092,106.337631 88.017258,106.666977 
z"/>
<path fill="#953CAF" opacity="1.000000" stroke="none" 
	d="
M94.353241,106.679993 
	C93.994301,105.328186 94.002884,104.061020 94.473709,102.326691 
	C99.288879,101.916542 103.641800,101.973549 107.994728,102.030563 
	C107.996628,103.288681 107.998520,104.546791 108.003029,106.180801 
	C107.256279,106.627785 106.506905,106.698875 105.280449,106.587120 
	C104.454514,106.245338 104.179337,106.336349 103.977829,106.677307 
	C102.275459,106.712204 100.573082,106.747101 98.344383,106.587585 
	C97.535751,106.483109 97.253441,106.573059 96.971130,106.662994 
	C96.221008,106.696877 95.470886,106.730759 94.353241,106.679993 
z"/>
<path fill="#7C51BB" opacity="1.000000" stroke="none" 
	d="
M80.049255,43.363045 
	C82.424774,43.315472 84.800301,43.267895 87.704132,43.409973 
	C88.232445,43.599632 88.644463,43.651249 88.644463,43.651249 
	C88.644463,43.651249 88.962601,43.364708 88.962601,43.364708 
	C90.026093,43.317310 91.089584,43.269913 92.619835,43.625275 
	C93.394417,45.367161 93.702248,46.706280 93.547203,48.100639 
	C88.722054,48.115238 84.359787,48.074608 79.993393,47.643482 
	C80.009262,45.956341 80.029259,44.659691 80.049255,43.363045 
z"/>
<path fill="#9B049C" opacity="1.000000" stroke="none" 
	d="
M113.284271,105.443069 
	C112.974648,85.808594 113.006355,65.953339 113.245483,45.596443 
	C113.452904,45.094799 113.781624,45.034821 113.781624,45.034821 
	C113.729622,65.097313 113.677612,85.159805 113.284271,105.443069 
z"/>
<path fill="#5D66C7" opacity="1.000000" stroke="none" 
	d="
M60.006554,105.935394 
	C59.991184,105.128082 59.975815,104.320763 60.210014,102.787323 
	C64.755653,102.327980 69.051720,102.594772 73.046028,103.049759 
	C72.474060,104.367188 72.203857,105.496414 71.933647,106.625648 
	C70.878517,106.672249 69.823387,106.718849 68.279114,106.575706 
	C67.467842,106.234833 67.210594,106.316887 67.018219,106.632141 
	C64.981407,106.680511 62.944592,106.728882 60.474762,106.531296 
	C60.041752,106.285339 60.006550,105.935394 60.006554,105.935394 
z"/>
<path fill="#5D66C7" opacity="1.000000" stroke="none" 
	d="
M60.005913,47.977459 
	C60.004574,46.932373 60.003231,45.887287 60.019199,44.278229 
	C60.036510,43.714252 60.038750,43.369667 60.038750,43.369667 
	C62.079849,43.321857 64.120949,43.274048 66.689453,43.419624 
	C67.216850,43.613010 67.644287,43.668499 67.644287,43.668499 
	C67.644287,43.668499 67.981163,43.379658 67.981163,43.379658 
	C69.038818,43.331570 70.096466,43.283478 71.561234,43.653732 
	C72.313042,45.398216 72.657738,46.724354 72.542633,48.112236 
	C68.057190,48.108475 64.031555,48.042965 60.005913,47.977459 
z"/>
<path fill="#0A63CC" opacity="1.000000" stroke="none" 
	d="
M51.077812,46.522102 
	C51.408119,46.633041 51.932167,47.206970 51.930717,47.779575 
	C51.883888,66.299789 51.786396,84.819870 51.412567,103.637184 
	C51.094624,84.951088 51.060593,65.967789 51.077812,46.522102 
z"/>
<path fill="#9A60BC" opacity="1.000000" stroke="none" 
	d="
M94.010078,48.045403 
	C93.702248,46.706280 93.394417,45.367161 93.014961,43.690681 
	C96.653496,43.284153 100.363670,43.214973 104.522079,43.251759 
	C104.307198,44.680115 103.644073,46.002506 102.543419,47.764629 
	C99.407288,48.151379 96.708679,48.098392 94.010078,48.045403 
z"/>
<path fill="#7873C9" opacity="1.000000" stroke="none" 
	d="
M73.002426,48.050491 
	C72.657738,46.724354 72.313042,45.398216 71.953003,43.726364 
	C74.346840,43.309341 76.756012,43.238033 79.607224,43.264885 
	C80.029259,44.659691 80.009262,45.956341 79.561623,47.723373 
	C77.090126,48.146004 75.046272,48.098248 73.002426,48.050491 
z"/>
<path fill="#7975CA" opacity="1.000000" stroke="none" 
	d="
M72.375809,106.728531 
	C72.203857,105.496414 72.474060,104.367188 73.422844,103.006058 
	C76.065598,102.502731 78.029770,102.231308 79.993950,101.959885 
	C80.003586,103.261993 80.013214,104.564087 80.038330,106.254745 
	C77.641869,106.706009 75.229919,106.768707 72.375809,106.728531 
z"/>
<path fill="#7873C9" opacity="1.000000" stroke="none" 
	d="
M59.620930,43.269547 
	C60.038750,43.369667 60.036510,43.714252 60.019424,43.886322 
	C58.226021,43.959480 56.449703,43.860565 54.378319,43.541557 
	C55.789867,43.270786 57.496487,43.220104 59.620930,43.269547 
z"/>
<path fill="#7975CA" opacity="1.000000" stroke="none" 
	d="
M59.613880,105.954544 
	C60.006550,105.935394 60.041752,106.285339 60.043556,106.461044 
	C58.331982,106.709244 56.618595,106.781738 54.485435,106.770096 
	C55.784180,106.448540 57.502693,106.211121 59.613880,105.954544 
z"/>
<path fill="#9A60BC" opacity="1.000000" stroke="none" 
	d="
M113.710175,44.765038 
	C113.781624,45.034821 113.452904,45.094799 113.292969,45.142014 
	C112.831169,44.976318 112.529305,44.763409 112.137665,44.287891 
	C112.578171,44.181938 113.108444,44.338600 113.710175,44.765038 
z"/>
<path fill="#9A60BC" opacity="1.000000" stroke="none" 
	d="
M111.954483,43.712662 
	C111.723465,43.946770 111.480133,43.858051 111.148247,43.524467 
	C111.349258,43.182270 111.643425,43.219017 111.954483,43.712662 
z"/>
<path fill="#9A60BC" opacity="1.000000" stroke="none" 
	d="
M88.736717,43.295864 
	C88.962601,43.364708 88.644463,43.651249 88.644463,43.651249 
	C88.644463,43.651249 88.232445,43.599632 88.145485,43.481266 
	C88.058525,43.362900 88.510834,43.227020 88.736717,43.295864 
z"/>
<path fill="#7873C9" opacity="1.000000" stroke="none" 
	d="
M67.742996,43.308685 
	C67.981163,43.379658 67.644287,43.668499 67.644287,43.668499 
	C67.644287,43.668499 67.216850,43.613010 67.121887,43.493683 
	C67.026917,43.374352 67.504822,43.237709 67.742996,43.308685 
z"/>
<path fill="#7975CA" opacity="1.000000" stroke="none" 
	d="
M67.260437,106.700775 
	C67.210594,106.316887 67.467842,106.234833 67.887741,106.506325 
	C67.824547,106.674255 67.663597,106.721832 67.260437,106.700775 
z"/>
<path fill="#9F6DC1" opacity="1.000000" stroke="none" 
	d="
M88.262115,106.736389 
	C88.208092,106.337631 88.469414,106.252998 88.898636,106.538895 
	C88.833008,106.711739 88.669983,106.758766 88.262115,106.736389 
z"/>
<path fill="#9F6DC1" opacity="1.000000" stroke="none" 
	d="
M97.235092,106.733376 
	C97.253441,106.573059 97.535751,106.483109 97.922516,106.528046 
	C97.851013,106.709869 97.675034,106.756805 97.235092,106.733376 
z"/>
<path fill="#9F6DC1" opacity="1.000000" stroke="none" 
	d="
M104.235687,106.748161 
	C104.179337,106.336349 104.454514,106.245338 104.904861,106.535706 
	C104.835426,106.717758 104.664482,106.768387 104.235687,106.748161 
z"/>
<path fill="#9F6DC1" opacity="1.000000" stroke="none" 
	d="
M112.218414,106.459358 
	C112.153473,106.226639 112.312210,106.096489 112.674515,105.998459 
	C112.791862,106.236649 112.646538,106.413765 112.218414,106.459358 
z"/>
<path fill="#F9F8FC" opacity="1.000000" stroke="none" 
	d="
M80.456390,101.904068 
	C78.029770,102.231308 76.065598,102.502731 73.724602,102.817856 
	C69.051720,102.594772 64.755653,102.327980 60.183437,102.384445 
	C58.670589,102.357864 57.433891,102.008026 56.098709,101.080231 
	C56.000229,100.502274 55.899345,100.026161 55.899345,100.026161 
	C55.939808,83.653313 55.980274,67.280472 56.010487,50.202652 
	C56.000233,49.497684 55.947624,49.013836 55.947624,49.013836 
	C57.061989,48.721859 58.176353,48.429886 59.648315,48.057686 
	C64.031555,48.042965 68.057190,48.108475 72.542633,48.112236 
	C75.046272,48.098248 77.090126,48.146004 79.565742,48.113869 
	C84.359787,48.074608 88.722054,48.115238 93.547203,48.100639 
	C96.708679,48.098392 99.407288,48.151379 102.549088,48.120903 
	C104.849609,48.175781 106.706940,48.314117 108.794235,49.212219 
	C109.044838,66.967247 109.065460,83.962502 109.086090,100.957764 
	C108.867920,101.223572 108.649757,101.489380 108.213165,101.892883 
	C103.641800,101.973549 99.288879,101.916542 94.480591,101.945450 
	C89.656433,101.970337 85.287636,101.909294 80.456390,101.904068 
M90.248596,97.367401 
	C90.248596,97.367401 90.322830,97.379890 91.027115,97.447769 
	C92.018433,96.861977 93.009750,96.276184 94.632088,95.487198 
	C96.305405,94.192291 98.506416,93.226318 99.555954,91.542580 
	C103.118538,85.827255 104.481689,79.391571 103.093735,72.803856 
	C101.732948,66.345070 99.841194,59.925606 93.714966,55.127785 
	C92.165474,54.302639 90.615990,53.477493 88.516098,52.241386 
	C86.975670,52.418797 85.435234,52.596203 83.132668,52.765018 
	C80.696030,52.817917 78.259384,52.870815 75.213463,52.979183 
	C74.083031,53.784550 72.952599,54.589916 71.138412,55.663025 
	C70.040176,56.842030 68.663429,57.863453 67.891823,59.227253 
	C64.513206,65.198982 61.911594,71.287544 62.191723,78.533737 
	C62.433464,84.786888 64.397507,89.850098 69.263000,94.633217 
	C71.840370,95.724388 74.417740,96.815559 77.733849,97.993523 
	C80.016472,97.436989 82.299095,96.880455 84.651154,96.312393 
	C84.651154,96.312393 84.717010,96.288437 84.896446,96.821823 
	C85.236053,96.969986 85.575661,97.118149 86.314568,97.693001 
	C86.883270,97.761375 87.451973,97.829750 88.621140,98.002182 
	C89.139771,97.782829 89.658401,97.563477 90.248596,97.367401 
z"/>
<path fill="#2C66CB" opacity="1.000000" stroke="none" 
	d="
M55.776443,49.090904 
	C55.947624,49.013836 56.000233,49.497684 55.949787,49.735794 
	C55.731705,49.808067 55.550213,49.652683 55.409714,49.466385 
	C55.385525,49.434319 55.535652,49.270782 55.776443,49.090904 
z"/>
<path fill="#2C66CB" opacity="1.000000" stroke="none" 
	d="
M55.731445,100.109291 
	C55.899345,100.026161 56.000229,100.502274 55.973927,100.744217 
	C55.819595,100.721588 55.691570,100.457001 55.731445,100.109291 
z"/>
<path fill="#9701A1" opacity="1.000000" stroke="none" 
	d="
M109.375305,100.662506 
	C109.065460,83.962502 109.044838,66.967247 109.055161,49.507126 
	C109.377357,49.610210 109.924461,50.178974 109.922661,50.745995 
	C109.870193,67.286522 109.762978,83.826874 109.375305,100.662506 
z"/>
<path fill="#9349B5" opacity="1.000000" stroke="none" 
	d="
M94.106720,55.648483 
	C99.841194,59.925606 101.732948,66.345070 103.093735,72.803856 
	C104.481689,79.391571 103.118538,85.827255 99.555954,91.542580 
	C98.506416,93.226318 96.305405,94.192291 94.316582,95.157372 
	C93.999275,90.549301 93.997467,86.271049 93.905128,81.659134 
	C93.213753,80.157722 92.612907,78.989998 92.084198,77.476028 
	C92.773132,75.108711 93.389931,73.087631 94.374626,71.027328 
	C97.792778,68.885521 97.624565,67.695480 94.008606,65.385117 
	C94.037514,61.838791 94.072121,58.743637 94.106720,55.648483 
z"/>
<path fill="#636BC8" opacity="1.000000" stroke="none" 
	d="
M68.828484,94.092728 
	C64.397507,89.850098 62.433464,84.786888 62.191723,78.533737 
	C61.911594,71.287544 64.513206,65.198982 67.891823,59.227253 
	C68.663429,57.863453 70.040176,56.842030 71.526398,56.000977 
	C71.945564,57.891163 71.976753,59.443394 72.005447,61.394737 
	C71.665009,63.855839 71.327049,65.917824 70.735764,67.814156 
	C69.705711,67.750229 68.324547,67.696121 68.251549,67.979279 
	C67.817207,69.663963 67.685341,71.426628 67.395950,73.579071 
	C68.914330,72.761131 70.115128,72.114265 71.315926,71.467400 
	C71.630363,71.659142 71.944801,71.850891 72.259232,72.042641 
	C71.575706,73.444107 70.892174,74.845581 70.040771,76.591240 
	C70.488060,77.067085 71.362801,77.997658 72.385361,79.043350 
	C72.421646,79.457863 72.310120,79.757263 71.917297,80.204956 
	C70.577713,81.165131 69.519409,81.976997 67.789940,83.303757 
	C68.922356,85.206673 70.330856,87.573524 71.839172,90.191757 
	C72.000275,90.612724 72.061554,90.782310 71.819992,91.091125 
	C70.620926,92.184486 69.724701,93.138603 68.828484,94.092728 
z"/>
<path fill="#7A5FC0" opacity="1.000000" stroke="none" 
	d="
M84.581711,96.323929 
	C82.299095,96.880455 80.016472,97.436989 77.366623,97.547440 
	C76.998207,95.758270 76.997009,94.415192 77.364975,92.935287 
	C78.530762,91.334023 79.895500,89.913216 80.011993,88.396545 
	C80.301949,84.621239 80.023453,80.802277 80.018730,76.536423 
	C79.708397,71.215897 79.352516,66.359787 78.989166,61.176659 
	C79.179741,58.481480 79.377792,56.113323 79.603569,53.413635 
	C78.352791,53.251556 77.087769,53.087631 75.822746,52.923706 
	C78.259384,52.870815 80.696030,52.817917 83.650879,53.094292 
	C84.992867,56.051331 85.816650,58.679092 86.368225,61.223732 
	C85.724731,61.092766 85.353447,61.044926 84.684128,61.290787 
	C84.254189,67.011963 83.971428,72.441345 84.040054,77.866280 
	C84.091164,81.906654 84.597038,85.941284 85.072693,90.250275 
	C85.835052,90.758659 86.425110,90.995247 86.884552,91.451530 
	C86.504677,92.113853 86.255417,92.556480 85.726013,93.239334 
	C85.157822,94.427673 84.869766,95.375801 84.581711,96.323929 
z"/>
<path fill="#8A58BC" opacity="1.000000" stroke="none" 
	d="
M93.910843,55.388134 
	C94.072121,58.743637 94.037514,61.838791 93.672470,65.517654 
	C91.011841,67.027924 92.097305,73.506187 87.010429,69.543655 
	C87.072632,67.043198 87.154808,64.983635 87.436295,62.746799 
	C87.757744,62.057735 87.879898,61.545952 88.328827,60.847927 
	C88.792564,57.991909 88.929535,55.322128 89.066498,52.652348 
	C90.615990,53.477493 92.165474,54.302639 93.910843,55.388134 
z"/>
<path fill="#8552BA" opacity="1.000000" stroke="none" 
	d="
M86.006157,92.999107 
	C86.255417,92.556480 86.504677,92.113853 87.112930,91.378021 
	C87.471924,91.084824 87.940140,90.980476 88.299141,90.927643 
	C88.727310,89.158035 88.796486,87.441254 89.085800,85.472282 
	C90.869179,84.144325 92.432419,83.068565 93.995667,81.992798 
	C93.997467,86.271049 93.999275,90.549301 94.001068,95.258965 
	C93.009750,96.276184 92.018433,96.861977 90.583534,97.028206 
	C88.762024,95.405464 87.384087,94.202286 86.006157,92.999107 
z"/>
<path fill="#6C61C3" opacity="1.000000" stroke="none" 
	d="
M75.518105,52.951447 
	C77.087769,53.087631 78.352791,53.251556 79.603569,53.413635 
	C79.377792,56.113323 79.179741,58.481480 78.676620,61.379097 
	C77.632050,61.958336 76.892532,62.008110 75.818436,61.918053 
	C74.325218,61.517353 73.166573,61.256489 72.007935,60.995625 
	C71.976753,59.443394 71.945564,57.891163 71.868271,55.867104 
	C72.952599,54.589916 74.083031,53.784550 75.518105,52.951447 
z"/>
<path fill="#6A67C6" opacity="1.000000" stroke="none" 
	d="
M76.995819,93.072113 
	C76.997009,94.415192 76.998207,95.758270 76.997253,97.504044 
	C74.417740,96.815559 71.840370,95.724388 69.045746,94.362976 
	C69.724701,93.138603 70.620926,92.184486 72.157135,91.121376 
	C74.196686,91.698959 75.596252,92.385536 76.995819,93.072113 
z"/>
<path fill="#7F4EB9" opacity="1.000000" stroke="none" 
	d="
M88.791298,52.446869 
	C88.929535,55.322128 88.792564,57.991909 88.013107,60.880074 
	C87.166161,61.152878 86.961693,61.207306 86.728256,61.273613 
	C86.699295,61.285500 86.640434,61.306850 86.640434,61.306850 
	C85.816650,58.679092 84.992867,56.051331 84.031944,53.098591 
	C85.435234,52.596203 86.975670,52.418797 88.791298,52.446869 
z"/>
<path fill="#8352BA" opacity="1.000000" stroke="none" 
	d="
M85.726013,93.239334 
	C87.384087,94.202286 88.762024,95.405464 90.231392,96.994263 
	C90.322830,97.379890 90.248596,97.367401 89.916763,97.256592 
	C89.063507,97.396568 88.542091,97.647346 88.020676,97.898132 
	C87.451973,97.829750 86.883270,97.761375 86.021370,97.206688 
	C85.391121,96.576393 85.054062,96.432419 84.717010,96.288437 
	C84.717010,96.288437 84.651154,96.312393 84.616432,96.318161 
	C84.869766,95.375801 85.157822,94.427673 85.726013,93.239334 
z"/>
<path fill="#8552BA" opacity="1.000000" stroke="none" 
	d="
M88.320908,97.950157 
	C88.542091,97.647346 89.063507,97.396568 89.880981,97.244949 
	C89.658401,97.563477 89.139771,97.782829 88.320908,97.950157 
z"/>
<path fill="#7A5FC0" opacity="1.000000" stroke="none" 
	d="
M84.806732,96.555130 
	C85.054062,96.432419 85.391121,96.576393 85.821716,96.993347 
	C85.575661,97.118149 85.236053,96.969986 84.806732,96.555130 
z"/>
<path fill="#F9F6FB" opacity="1.000000" stroke="none" 
	d="
M93.905136,81.659126 
	C92.432419,83.068565 90.869179,84.144325 88.821335,85.592461 
	C87.890129,86.310921 87.443520,86.657013 86.705498,86.977509 
	C86.024231,86.946342 85.634392,86.940758 85.194046,86.489349 
	C85.177467,83.050156 85.211388,80.056793 85.536087,77.055313 
	C86.214478,77.033516 86.602081,77.019852 87.306351,77.210297 
	C89.086029,77.550354 90.549042,77.686310 92.012062,77.822266 
	C92.612907,78.989998 93.213753,80.157722 93.905136,81.659126 
z"/>
<path fill="#F3EFF8" opacity="1.000000" stroke="none" 
	d="
M87.030403,69.984573 
	C92.097305,73.506187 91.011841,67.027924 93.678177,65.968834 
	C97.624565,67.695480 97.792778,68.885521 94.001945,71.012787 
	C90.953773,72.311363 88.646179,73.585243 86.155762,74.872459 
	C85.725548,74.913864 85.477547,74.934647 85.175812,74.542252 
	C85.158043,72.774391 85.193398,71.412430 85.528900,70.035332 
	C86.229500,70.008324 86.629951,69.996445 87.030403,69.984573 
z"/>
<path fill="#8850B9" opacity="1.000000" stroke="none" 
	d="
M86.338593,74.859123 
	C88.646179,73.585243 90.953773,72.311363 93.634048,71.052025 
	C93.389931,73.087631 92.773132,75.108711 92.084198,77.476028 
	C90.549042,77.686310 89.086029,77.550354 87.242149,76.840942 
	C86.687057,75.798019 86.512825,75.328575 86.338593,74.859123 
z"/>
<path fill="#F4F3FA" opacity="1.000000" stroke="none" 
	d="
M77.364983,92.935287 
	C75.596252,92.385536 74.196686,91.698959 72.459976,90.982132 
	C72.061554,90.782310 72.000275,90.612724 72.299545,90.195251 
	C73.148109,89.976936 73.662170,90.120262 74.119385,90.015495 
	C75.718575,89.649063 77.298141,89.197014 78.885162,88.777481 
	C77.935081,87.494720 77.003311,86.197891 76.030365,84.932716 
	C74.770279,83.294159 73.477364,81.680840 72.198586,80.056656 
	C72.310120,79.757263 72.421646,79.457863 72.390350,78.733276 
	C74.494705,77.870750 76.741875,77.433411 79.235092,76.997101 
	C79.481125,76.998131 79.973190,77.000839 79.973190,77.000839 
	C80.023453,80.802277 80.301949,84.621239 80.011993,88.396545 
	C79.895500,89.913216 78.530762,91.334023 77.364983,92.935287 
z"/>
<path fill="#726CC7" opacity="1.000000" stroke="none" 
	d="
M78.989052,76.996063 
	C76.741875,77.433411 74.494705,77.870750 72.242538,78.618164 
	C71.362801,77.997658 70.488060,77.067085 70.040771,76.591240 
	C70.892174,74.845581 71.575706,73.444107 72.259232,72.042641 
	C71.944801,71.850891 71.630363,71.659142 71.315926,71.467400 
	C70.115128,72.114265 68.914330,72.761131 67.395950,73.579071 
	C67.685341,71.426628 67.817207,69.663963 68.251549,67.979279 
	C68.324547,67.696121 69.705711,67.750229 70.929153,68.073372 
	C72.262711,69.037109 73.149551,69.575966 73.966431,70.494377 
	C74.625725,71.576874 75.435173,72.215149 76.066071,72.997414 
	C77.101372,74.281120 78.020775,75.658302 78.989052,76.996063 
z"/>
<path fill="#736BC7" opacity="1.000000" stroke="none" 
	d="
M71.917297,80.204956 
	C73.477364,81.680840 74.770279,83.294159 76.030365,84.932716 
	C77.003311,86.197891 77.935081,87.494720 78.885162,88.777481 
	C77.298141,89.197014 75.718575,89.649063 74.119385,90.015495 
	C73.662170,90.120262 73.148109,89.976936 72.199738,89.943871 
	C70.330856,87.573524 68.922356,85.206673 67.789940,83.303757 
	C69.519409,81.976997 70.577713,81.165131 71.917297,80.204956 
z"/>
<path fill="#7166C4" opacity="1.000000" stroke="none" 
	d="
M74.036392,70.114830 
	C73.149551,69.575966 72.262711,69.037109 71.182480,68.239029 
	C71.327049,65.917824 71.665009,63.855839 72.005447,61.394737 
	C73.166573,61.256489 74.325218,61.517353 75.946075,62.233311 
	C77.089516,63.812180 78.110786,64.865898 78.360603,66.078545 
	C78.634956,67.410248 78.662834,69.278481 77.913788,70.169678 
	C77.387726,70.795563 75.381599,70.177437 74.036392,70.114830 
z"/>
<path fill="#F1EFF8" opacity="1.000000" stroke="none" 
	d="
M73.966431,70.494377 
	C75.381599,70.177437 77.387726,70.795563 77.913788,70.169678 
	C78.662834,69.278481 78.634956,67.410248 78.360603,66.078545 
	C78.110786,64.865898 77.089516,63.812180 76.280655,62.373146 
	C76.892532,62.008110 77.632050,61.958336 78.684097,61.706123 
	C79.352516,66.359787 79.708397,71.215897 80.018730,76.536423 
	C79.973190,77.000839 79.481125,76.998131 79.235092,76.997101 
	C78.020775,75.658302 77.101372,74.281120 76.066071,72.997414 
	C75.435173,72.215149 74.625725,71.576874 73.966431,70.494377 
z"/>
<path fill="#6A3DB6" opacity="1.000000" stroke="none" 
	d="
M85.228752,70.050461 
	C85.193398,71.412430 85.158043,72.774391 85.090942,74.891991 
	C85.121231,76.119560 85.183266,76.591492 85.245300,77.063431 
	C85.211388,80.056793 85.177467,83.050156 85.096680,86.861176 
	C85.000000,88.445381 84.950195,89.211922 84.900391,89.978470 
	C84.597038,85.941284 84.091164,81.906654 84.040054,77.866280 
	C83.971428,72.441345 84.254189,67.011963 84.695648,61.743050 
	C85.079720,64.617889 85.154236,67.334175 85.228752,70.050461 
z"/>
<path fill="#D9D0EB" opacity="1.000000" stroke="none" 
	d="
M85.528900,70.035332 
	C85.154236,67.334175 85.079720,64.617889 84.993683,61.449348 
	C85.353447,61.044926 85.724731,61.092766 86.368225,61.223732 
	C86.640434,61.306850 86.699295,61.285500 86.757050,61.561970 
	C86.955528,62.200321 87.096252,62.562202 87.236984,62.924080 
	C87.154808,64.983635 87.072632,67.043198 87.010429,69.543663 
	C86.629951,69.996445 86.229500,70.008324 85.528900,70.035332 
z"/>
<path fill="#D9D0EB" opacity="1.000000" stroke="none" 
	d="
M85.072693,90.250275 
	C84.950195,89.211922 85.000000,88.445381 85.147171,87.307007 
	C85.634392,86.940758 86.024231,86.946342 86.688171,87.330734 
	C87.288223,88.799858 87.614182,89.890167 87.940140,90.980476 
	C87.940140,90.980476 87.471924,91.084824 87.243546,91.158325 
	C86.425110,90.995247 85.835052,90.758659 85.072693,90.250275 
z"/>
<path fill="#7A5FC0" opacity="1.000000" stroke="none" 
	d="
M87.436295,62.746799 
	C87.096252,62.562202 86.955528,62.200321 86.786011,61.550087 
	C86.961693,61.207306 87.166161,61.152878 87.686340,61.066307 
	C87.879898,61.545952 87.757744,62.057735 87.436295,62.746799 
z"/>
<path fill="#8352BA" opacity="1.000000" stroke="none" 
	d="
M88.299141,90.927643 
	C87.614182,89.890167 87.288223,88.799858 86.979591,87.356323 
	C87.443520,86.657013 87.890129,86.310921 88.601196,85.844658 
	C88.796486,87.441254 88.727310,89.158035 88.299141,90.927643 
z"/>
<path fill="#D9D0EB" opacity="1.000000" stroke="none" 
	d="
M85.536087,77.055313 
	C85.183266,76.591492 85.121231,76.119560 85.144073,75.297882 
	C85.477547,74.934647 85.725548,74.913864 86.155762,74.872459 
	C86.512825,75.328575 86.687057,75.798019 86.925491,76.636826 
	C86.602081,77.019852 86.214478,77.033516 85.536087,77.055313 
z"/>
</svg>
