<svg version="1.1" id="Layer_1" xmlns="http://www.w3.org/2000/svg" xmlns:xlink="http://www.w3.org/1999/xlink" x="0px" y="0px"
	 width="100%" viewBox="0 0 179 148" enable-background="new 0 0 179 148" xml:space="preserve">
<path fill="#0F0F0F" opacity="1.000000" stroke="none" 
	d="
M180.000000,42.000000 
	C180.000000,45.030594 180.000000,48.061188 179.670471,51.708508 
	C174.255951,56.994881 167.394455,55.939301 163.330185,49.993103 
	C159.775253,49.993103 156.323929,49.993103 152.751282,49.993103 
	C152.751282,57.468239 152.751282,64.689247 152.751282,72.340073 
	C155.148102,72.340073 157.291092,72.491531 159.400879,72.291954 
	C161.076553,72.133438 163.338928,72.097755 164.257874,71.054047 
	C168.618652,66.101196 174.867310,65.516258 180.000000,70.000000 
	C180.000000,73.030594 180.000000,76.061188 179.660583,79.680336 
	C174.696930,84.444160 168.073059,83.908203 164.418823,79.150810 
	C163.908844,78.486893 162.944443,77.821190 162.158905,77.781593 
	C159.051971,77.625015 155.932495,77.717300 152.782776,77.717300 
	C152.782776,85.493469 152.782776,92.705544 152.782776,100.258453 
	C155.553955,100.258453 158.034531,100.398338 160.488297,100.202309 
	C161.811646,100.096596 163.570038,99.815804 164.307632,98.928551 
	C168.483627,93.905205 174.995682,93.414284 180.000000,98.000000 
	C180.000000,101.030594 180.000000,104.061188 179.652100,107.655052 
	C174.768738,112.238373 167.627762,111.656937 164.455795,107.123650 
	C163.904785,106.336174 162.777176,105.555168 161.864990,105.490601 
	C158.937805,105.283417 155.986755,105.413567 153.150635,105.413567 
	C151.317505,114.156898 151.317505,114.156898 142.361130,115.722923 
	C141.261154,125.002228 141.261154,125.002228 130.775482,127.428810 
	C129.946121,135.924408 129.424484,136.493530 121.000000,137.774399 
	C121.000000,141.474136 121.000000,145.237076 121.000000,149.000000 
	C119.611107,149.000000 118.222221,149.000000 116.325233,148.549469 
	C115.817139,144.651245 115.817139,141.203537 115.817139,137.653427 
	C107.944885,137.653427 100.608238,137.653427 93.000000,137.653427 
	C93.000000,141.698044 93.000000,145.349014 93.000000,149.000000 
	C91.611107,149.000000 90.222221,149.000000 88.376236,148.540955 
	C87.919151,144.632950 87.919151,141.183990 87.919151,137.661865 
	C80.091850,137.661865 72.746696,137.661865 65.000000,137.661865 
	C65.000000,141.710098 65.000000,145.355057 65.000000,149.000000 
	C63.611111,149.000000 62.222221,149.000000 60.484467,148.540161 
	C60.135601,144.628586 60.135601,141.176865 60.135601,137.813583 
	C51.887352,136.502655 51.887352,136.502655 49.849518,127.082504 
	C40.468613,126.149422 39.932320,125.606544 38.577999,115.672653 
	C29.901209,114.339722 29.901209,114.339722 27.750462,105.411263 
	C25.891642,105.411263 23.921755,105.291054 21.974052,105.447327 
	C20.256481,105.585121 17.395689,105.572311 17.061844,106.421227 
	C15.605767,110.123810 12.984379,111.213585 9.570845,110.588783 
	C6.653680,110.054840 3.852488,108.887299 1.000000,108.000000 
	C1.000000,104.969406 1.000000,101.938812 1.329659,98.291283 
	C6.719747,92.999619 13.659549,94.066154 17.658215,100.016083 
	C21.199854,100.016083 24.650023,100.016083 28.254658,100.016083 
	C28.254658,92.559212 28.254658,85.346039 28.254658,77.712936 
	C25.863184,77.712936 23.720840,77.567749 21.608948,77.758934 
	C19.923346,77.911537 17.651928,77.912018 16.715660,78.949890 
	C12.205551,83.949432 6.169566,84.518532 1.000000,80.000000 
	C1.000000,76.969406 1.000000,73.938812 1.339262,70.319885 
	C6.215540,65.629532 13.185252,66.152641 16.551500,70.771431 
	C17.048208,71.452965 17.957378,72.222313 18.710962,72.260803 
	C21.931065,72.425232 25.164385,72.330811 28.151264,72.330811 
	C28.151264,64.338089 28.151264,57.144547 28.151264,49.712669 
	C25.313932,49.712669 22.833740,49.563332 20.384348,49.773293 
	C19.085873,49.884598 17.364273,50.240570 16.651018,51.136658 
	C12.746479,56.042088 5.928701,56.522190 1.000000,52.000000 
	C1.000000,48.969406 1.000000,45.938812 1.342030,42.330173 
	C6.289407,37.747002 13.341681,38.348980 16.556175,42.903622 
	C17.109440,43.687546 18.250002,44.446899 19.168600,44.511028 
	C22.096811,44.715458 25.048273,44.586800 27.885046,44.586800 
	C29.597851,35.919136 29.597851,35.919136 38.684101,34.260811 
	C39.634586,25.136343 39.634586,25.136343 50.266197,22.571686 
	C50.962841,14.081644 51.522655,13.469583 60.000000,12.255307 
	C60.000000,8.544371 60.000000,4.772185 60.000000,1.000000 
	C61.388889,1.000000 62.777782,1.000000 64.675430,1.450405 
	C65.184189,5.350475 65.184189,8.800141 65.184189,12.501091 
	C72.944748,12.501091 80.171768,12.501091 88.000000,12.501091 
	C88.000000,8.550083 88.000000,4.775042 88.000000,1.000000 
	C89.388893,1.000000 90.777779,1.000000 92.624313,1.459172 
	C93.081955,5.372302 93.081955,8.826261 93.081955,12.356161 
	C100.896553,12.356161 108.246223,12.356161 116.000000,12.356161 
	C116.000000,8.295156 116.000000,4.647578 116.000000,1.000000 
	C117.388893,1.000000 118.777779,1.000000 120.515549,1.457627 
	C120.864426,5.492603 120.864426,9.069953 120.864426,12.580941 
	C129.074219,13.068472 129.218338,13.226041 130.976364,22.348944 
	C134.154236,23.454830 137.859283,23.694746 139.703079,25.671101 
	C141.679092,27.789164 141.903458,31.541382 142.909988,34.634796 
	C150.818420,35.147079 151.060394,35.369991 153.308075,44.910580 
	C156.844711,44.503742 161.835953,45.375896 163.793793,43.336281 
	C166.211777,40.817295 168.014954,38.785988 171.433395,39.411411 
	C174.349197,39.944878 177.148926,41.112759 180.000000,42.000000 
M130.221878,28.263933 
	C103.389275,28.263941 76.556221,28.341358 49.724525,28.185326 
	C45.413239,28.160254 43.634686,29.375420 44.022003,33.860138 
	C44.364887,37.830410 44.301235,41.870239 43.984913,45.844967 
	C43.868759,47.304493 42.513485,48.665409 41.723434,50.071308 
	C40.825294,48.604897 39.564926,47.237572 39.129208,45.644669 
	C38.678684,43.997658 39.029011,42.131580 39.029011,40.002724 
	C36.892849,40.135052 35.351761,40.230518 33.950272,40.317333 
	C33.950272,63.780998 33.950272,86.692863 33.950272,109.976776 
	C35.872852,109.883003 37.404972,109.808273 39.028667,109.729080 
	C39.028667,100.667862 39.027931,92.172302 39.028889,83.676735 
	C39.029732,76.176933 38.918186,68.673477 39.158203,61.181309 
	C39.194000,60.064045 40.886292,58.999851 41.812252,57.911106 
	C42.571548,58.987503 43.584351,59.972908 44.013287,61.167889 
	C44.384396,62.201759 44.093689,63.473564 44.093708,64.640198 
	C44.093937,81.806412 44.229824,98.974449 44.000629,116.137604 
	C43.941521,120.564178 45.358967,121.870399 49.705444,121.845284 
	C76.870491,121.688347 104.037270,121.695793 131.202469,121.839447 
	C135.428177,121.861794 137.034256,120.775856 137.002304,116.230339 
	C136.809097,88.732414 136.803757,61.231705 137.006134,33.733917 
	C137.040161,29.108601 135.304367,27.739405 130.221878,28.263933 
M147.416672,70.500229 
	C147.416672,60.423615 147.416672,50.346996 147.416672,40.340500 
	C145.137726,40.340500 143.720200,40.340500 142.309723,40.340500 
	C142.309723,63.674999 142.309723,86.734383 142.309723,110.069435 
	C144.097076,109.921432 145.526703,109.803047 147.416687,109.646545 
	C147.416687,96.751747 147.416687,84.125992 147.416672,70.500229 
M89.500053,17.856298 
	C78.397446,17.856298 67.294830,17.856298 56.180466,17.856298 
	C56.180466,20.014257 56.180466,21.562561 56.180466,23.013618 
	C79.300400,23.013618 102.057846,23.013618 125.187332,23.013618 
	C125.086731,21.182896 125.001640,19.634558 124.903923,17.856298 
	C113.125282,17.856298 101.812668,17.856298 89.500053,17.856298 
M98.499947,132.143707 
	C107.270020,132.143707 116.040100,132.143707 124.819427,132.143707 
	C124.819427,129.986237 124.819427,128.438141 124.819427,127.001114 
	C101.699234,127.001114 78.941521,127.001114 55.812557,127.001114 
	C55.913017,128.818832 55.998585,130.367035 56.096779,132.143707 
	C70.209114,132.143707 83.854530,132.143707 98.499947,132.143707 
M173.372925,77.914337 
	C174.033371,76.164932 174.693817,74.415520 175.628387,71.939980 
	C172.674118,72.155190 171.128296,72.267792 169.404419,72.393372 
	C169.484100,75.104355 167.812027,78.318420 173.372925,77.914337 
M8.463619,72.110779 
	C7.385522,73.640182 6.307426,75.169594 4.629402,77.550064 
	C8.168818,77.550064 9.829743,77.550064 11.490670,77.550064 
	C11.852993,77.175621 12.215316,76.801178 12.577640,76.426735 
	C11.491385,74.988548 10.405129,73.550362 8.463619,72.110779 
M8.449656,100.019997 
	C3.792812,100.498009 6.641677,103.455818 6.169883,105.840256 
	C8.235554,105.724693 9.800803,105.637131 13.312316,105.440681 
	C11.482965,102.965477 10.394831,101.493172 8.449656,100.019997 
M170.049301,105.574089 
	C171.623550,105.574089 173.197800,105.574089 175.107391,105.574089 
	C174.978058,103.453125 174.881744,101.873581 174.767380,99.998001 
	C172.782990,100.087364 171.198517,100.158722 169.490677,100.235626 
	C169.490677,102.041718 169.490677,103.500954 170.049301,105.574089 
M175.025696,48.373734 
	C175.729477,43.490520 172.934921,43.823013 169.515198,44.613289 
	C169.515198,46.383991 169.515198,47.962414 169.515198,50.181110 
	C171.516724,49.821064 173.188797,49.520279 175.025696,48.373734 
M10.128684,44.214008 
	C5.150191,43.449814 5.707992,46.429947 6.274339,49.754944 
	C8.089836,49.754944 9.674009,49.754944 11.920932,49.754944 
	C11.556663,47.764458 11.250886,46.093590 10.128684,44.214008 
z"/>
<path fill="#FCFCFC" opacity="1.000000" stroke="none" 
	d="
M59.531342,1.000000 
	C60.000000,4.772185 60.000000,8.544371 60.000000,12.255307 
	C51.522655,13.469583 50.962841,14.081644 50.266197,22.571686 
	C39.634586,25.136343 39.634586,25.136343 38.684101,34.260811 
	C29.597851,35.919136 29.597851,35.919136 27.885046,44.586800 
	C25.048273,44.586800 22.096811,44.715458 19.168600,44.511028 
	C18.250002,44.446899 17.109440,43.687546 16.556175,42.903622 
	C13.341681,38.348980 6.289407,37.747002 1.342030,41.876064 
	C1.000000,28.393402 1.000000,14.786805 1.000000,1.000000 
	C20.353855,1.000000 39.708267,1.000000 59.531342,1.000000 
z"/>
<path fill="#FCFCFC" opacity="1.000000" stroke="none" 
	d="
M180.000000,41.531342 
	C177.148926,41.112759 174.349197,39.944878 171.433395,39.411411 
	C168.014954,38.785988 166.211777,40.817295 163.793793,43.336281 
	C161.835953,45.375896 156.844711,44.503742 153.308075,44.910580 
	C151.060394,35.369991 150.818420,35.147079 142.909988,34.634796 
	C141.903458,31.541382 141.679092,27.789164 139.703079,25.671101 
	C137.859283,23.694746 134.154236,23.454830 130.976364,22.348944 
	C129.218338,13.226041 129.074219,13.068472 120.864426,12.580941 
	C120.864426,9.069953 120.864426,5.492603 120.932213,1.457627 
	C140.580231,1.000000 160.160461,1.000000 180.000000,1.000000 
	C180.000000,14.353109 180.000000,27.707897 180.000000,41.531342 
z"/>
<path fill="#FCFCFC" opacity="1.000000" stroke="none" 
	d="
M121.468658,149.000000 
	C121.000000,145.237076 121.000000,141.474136 121.000000,137.774399 
	C129.424484,136.493530 129.946121,135.924408 130.775482,127.428810 
	C141.261154,125.002228 141.261154,125.002228 142.361130,115.722923 
	C151.317505,114.156898 151.317505,114.156898 153.150635,105.413567 
	C155.986755,105.413567 158.937805,105.283417 161.864990,105.490601 
	C162.777176,105.555168 163.904785,106.336174 164.455795,107.123650 
	C167.627762,111.656937 174.768738,112.238373 179.652100,108.109161 
	C180.000000,121.606598 180.000000,135.213196 180.000000,149.000000 
	C160.646149,149.000000 141.291733,149.000000 121.468658,149.000000 
z"/>
<path fill="#FCFCFC" opacity="1.000000" stroke="none" 
	d="
M1.000000,108.468658 
	C3.852488,108.887299 6.653680,110.054840 9.570845,110.588783 
	C12.984379,111.213585 15.605767,110.123810 17.061844,106.421227 
	C17.395689,105.572311 20.256481,105.585121 21.974052,105.447327 
	C23.921755,105.291054 25.891642,105.411263 27.750462,105.411263 
	C29.901209,114.339722 29.901209,114.339722 38.577999,115.672653 
	C39.932320,125.606544 40.468613,126.149422 49.849518,127.082504 
	C51.887352,136.502655 51.887352,136.502655 60.135601,137.813583 
	C60.135601,141.176865 60.135601,144.628586 60.067802,148.540161 
	C40.419769,149.000000 20.839542,149.000000 1.000000,149.000000 
	C1.000000,135.646896 1.000000,122.292107 1.000000,108.468658 
z"/>
<path fill="#F6F6F6" opacity="1.000000" stroke="none" 
	d="
M1.000000,52.467941 
	C5.928701,56.522190 12.746479,56.042088 16.651018,51.136658 
	C17.364273,50.240570 19.085873,49.884598 20.384348,49.773293 
	C22.833740,49.563332 25.313932,49.712669 28.151264,49.712669 
	C28.151264,57.144547 28.151264,64.338089 28.151264,72.330811 
	C25.164385,72.330811 21.931065,72.425232 18.710962,72.260803 
	C17.957378,72.222313 17.048208,71.452965 16.551500,70.771431 
	C13.185252,66.152641 6.215540,65.629532 1.339262,69.865768 
	C1.000000,64.311958 1.000000,58.623920 1.000000,52.467941 
z"/>
<path fill="#F6F6F6" opacity="1.000000" stroke="none" 
	d="
M180.000000,69.532059 
	C174.867310,65.516258 168.618652,66.101196 164.257874,71.054047 
	C163.338928,72.097755 161.076553,72.133438 159.400879,72.291954 
	C157.291092,72.491531 155.148102,72.340073 152.751282,72.340073 
	C152.751282,64.689247 152.751282,57.468239 152.751282,49.993103 
	C156.323929,49.993103 159.775253,49.993103 163.330185,49.993103 
	C167.394455,55.939301 174.255951,56.994881 179.670471,52.162617 
	C180.000000,57.688042 180.000000,63.376083 180.000000,69.532059 
z"/>
<path fill="#F6F6F6" opacity="1.000000" stroke="none" 
	d="
M180.000000,97.532059 
	C174.995682,93.414284 168.483627,93.905205 164.307632,98.928551 
	C163.570038,99.815804 161.811646,100.096596 160.488297,100.202309 
	C158.034531,100.398338 155.553955,100.258453 152.782776,100.258453 
	C152.782776,92.705544 152.782776,85.493469 152.782776,77.717300 
	C155.932495,77.717300 159.051971,77.625015 162.158905,77.781593 
	C162.944443,77.821190 163.908844,78.486893 164.418823,79.150810 
	C168.073059,83.908203 174.696930,84.444160 179.660583,80.134445 
	C180.000000,85.688042 180.000000,91.376083 180.000000,97.532059 
z"/>
<path fill="#F6F6F6" opacity="1.000000" stroke="none" 
	d="
M1.000000,80.467941 
	C6.169566,84.518532 12.205551,83.949432 16.715660,78.949890 
	C17.651928,77.912018 19.923346,77.911537 21.608948,77.758934 
	C23.720840,77.567749 25.863184,77.712936 28.254658,77.712936 
	C28.254658,85.346039 28.254658,92.559212 28.254658,100.016083 
	C24.650023,100.016083 21.199854,100.016083 17.658215,100.016083 
	C13.659549,94.066154 6.719747,92.999619 1.329659,97.837173 
	C1.000000,92.311958 1.000000,86.623917 1.000000,80.467941 
z"/>
<path fill="#F4F4F4" opacity="1.000000" stroke="none" 
	d="
M65.468620,149.000000 
	C65.000000,145.355057 65.000000,141.710098 65.000000,137.661865 
	C72.746696,137.661865 80.091850,137.661865 87.919151,137.661865 
	C87.919151,141.183990 87.919151,144.632950 87.959579,148.540955 
	C80.645744,149.000000 73.291496,149.000000 65.468620,149.000000 
z"/>
<path fill="#F4F4F4" opacity="1.000000" stroke="none" 
	d="
M93.468620,149.000000 
	C93.000000,145.349014 93.000000,141.698044 93.000000,137.653427 
	C100.608238,137.653427 107.944885,137.653427 115.817139,137.653427 
	C115.817139,141.203537 115.817139,144.651245 115.908569,148.549469 
	C108.645744,149.000000 101.291496,149.000000 93.468620,149.000000 
z"/>
<path fill="#F5F5F5" opacity="1.000000" stroke="none" 
	d="
M115.531380,1.000000 
	C116.000000,4.647578 116.000000,8.295156 116.000000,12.356161 
	C108.246223,12.356161 100.896553,12.356161 93.081955,12.356161 
	C93.081955,8.826261 93.081955,5.372302 93.040977,1.459172 
	C100.354256,1.000000 107.708504,1.000000 115.531380,1.000000 
z"/>
<path fill="#F5F5F5" opacity="1.000000" stroke="none" 
	d="
M87.531380,1.000000 
	C88.000000,4.775042 88.000000,8.550083 88.000000,12.501091 
	C80.171768,12.501091 72.944748,12.501091 65.184189,12.501091 
	C65.184189,8.800141 65.184189,5.350475 65.092094,1.450405 
	C72.354256,1.000000 79.708504,1.000000 87.531380,1.000000 
z"/>
<path fill="#F6F6F6" opacity="1.000000" stroke="none" 
	d="
M130.688324,28.263941 
	C135.304367,27.739405 137.040161,29.108601 137.006134,33.733917 
	C136.803757,61.231705 136.809097,88.732414 137.002304,116.230339 
	C137.034256,120.775856 135.428177,121.861794 131.202469,121.839447 
	C104.037270,121.695793 76.870491,121.688347 49.705444,121.845284 
	C45.358967,121.870399 43.941521,120.564178 44.000629,116.137604 
	C44.229824,98.974449 44.093937,81.806412 44.093708,64.640198 
	C44.093689,63.473564 44.384396,62.201759 44.013287,61.167889 
	C43.584351,59.972908 42.571548,58.987503 41.812256,57.911110 
	C40.886292,58.999851 39.194000,60.064045 39.158203,61.181309 
	C38.918186,68.673477 39.029732,76.176933 39.028889,83.676735 
	C39.027931,92.172302 39.028667,100.667862 39.028667,109.729080 
	C37.404972,109.808273 35.872852,109.883003 33.950272,109.976776 
	C33.950272,86.692863 33.950272,63.780998 33.950272,40.317333 
	C35.351761,40.230518 36.892849,40.135052 39.029011,40.002724 
	C39.029011,42.131580 38.678684,43.997658 39.129208,45.644669 
	C39.564926,47.237572 40.825294,48.604897 41.723434,50.071308 
	C42.513485,48.665409 43.868759,47.304493 43.984913,45.844967 
	C44.301235,41.870239 44.364887,37.830410 44.022003,33.860138 
	C43.634686,29.375420 45.413239,28.160254 49.724525,28.185326 
	C76.556221,28.341358 103.389275,28.263941 130.688324,28.263941 
M49.598217,48.040470 
	C49.598164,65.870949 49.564880,83.701515 49.611237,101.531876 
	C49.636707,111.328087 54.549160,116.144859 64.442673,116.171173 
	C76.440666,116.203079 88.440140,116.264145 100.435272,116.076447 
	C102.032425,116.051460 103.607895,114.641052 105.193413,113.872246 
	C103.580864,112.952477 101.982819,111.266159 100.353462,111.235352 
	C88.359665,111.008583 76.359535,111.138832 64.361572,111.102196 
	C57.477657,111.081177 54.634968,108.331825 54.612587,101.485916 
	C54.554832,83.822266 54.554245,66.158180 54.612942,48.494537 
	C54.635651,41.661388 57.486454,38.910503 64.381584,38.897934 
	C81.545448,38.866650 98.709404,38.878086 115.873314,38.891735 
	C123.783386,38.898026 126.385017,41.434689 126.398132,49.249130 
	C126.426949,66.413002 126.425751,83.576973 126.398506,100.740845 
	C126.386467,108.328377 124.617195,110.094246 116.891914,111.215309 
	C115.577095,111.406113 114.445580,112.860039 113.229370,113.730408 
	C114.468506,114.545540 115.652046,115.957237 116.955811,116.078728 
	C125.256355,116.852211 131.314148,111.247459 131.365875,102.642624 
	C131.476028,84.312889 131.461639,65.981735 131.373825,47.651768 
	C131.331528,38.822018 126.193077,33.875748 117.239914,33.854252 
	C99.409538,33.811443 81.578926,33.812721 63.748543,33.853867 
	C54.953320,33.874165 50.390789,38.227627 49.598217,48.040470 
M81.135941,77.399979 
	C81.135773,74.575958 81.400360,71.716393 81.028046,68.942322 
	C80.830444,67.470001 79.527733,66.145996 78.723885,64.755043 
	C77.824905,66.068748 76.633591,67.278252 76.116760,68.728172 
	C75.680565,69.951859 76.026939,71.454491 76.026939,72.833656 
	C73.559471,70.699959 72.132393,68.319160 70.416412,66.168915 
	C69.823654,65.426140 68.398796,64.771477 67.562187,64.967026 
	C66.781494,65.149521 65.763161,66.497185 65.735352,67.360497 
	C65.569740,72.503372 65.547363,77.659653 65.779343,82.797775 
	C65.817474,83.642143 67.352371,84.418930 68.195518,85.226952 
	C69.001144,84.358780 70.241882,83.608200 70.515358,82.596214 
	C70.982018,80.869423 70.841629,78.978592 71.019608,76.149506 
	C72.958412,79.015701 74.064507,81.067299 75.583214,82.745506 
	C76.550591,83.814484 78.129753,84.329811 79.434586,85.093391 
	C80.001167,83.844986 80.716103,82.638428 81.084007,81.333992 
	C81.344437,80.410583 81.135406,79.354759 81.135941,77.399979 
M105.144714,83.458725 
	C105.292816,82.172958 105.440918,80.887192 105.598198,79.521736 
	C107.306602,79.323082 108.831268,79.360023 110.219543,78.942940 
	C113.915512,77.832520 115.616135,75.120346 115.327194,71.362938 
	C115.056282,67.839951 113.131241,65.416779 109.533211,64.835571 
	C107.579468,64.519974 105.422012,64.249908 103.594688,64.780212 
	C102.304092,65.154762 100.586540,66.842850 100.491180,68.056961 
	C100.127022,72.693550 100.241005,77.378639 100.376816,82.039787 
	C100.470993,85.271881 101.946754,86.357224 105.144714,83.458725 
M90.740906,74.483269 
	C90.717407,72.161758 90.980095,69.784706 90.544960,67.543098 
	C90.339432,66.484268 88.796692,65.685028 87.859840,64.768166 
	C87.096413,65.658272 85.713814,66.520859 85.672813,67.443085 
	C85.451981,72.409821 85.389481,77.402412 85.702187,82.358955 
	C85.768509,83.410362 87.600601,85.145027 88.659538,85.175819 
	C90.952858,85.242516 93.272316,84.410332 95.581078,83.945763 
	C95.201569,82.830124 95.129578,81.356865 94.359871,80.694992 
	C93.515831,79.969185 92.028236,79.991776 90.740860,79.668068 
	C90.740860,78.060776 90.740860,76.743393 90.740906,74.483269 
z"/>
<path fill="#F7F7F7" opacity="1.000000" stroke="none" 
	d="
M147.416687,71.000229 
	C147.416687,84.125992 147.416687,96.751747 147.416687,109.646545 
	C145.526703,109.803047 144.097076,109.921432 142.309723,110.069435 
	C142.309723,86.734383 142.309723,63.674999 142.309723,40.340500 
	C143.720200,40.340500 145.137726,40.340500 147.416672,40.340500 
	C147.416672,50.346996 147.416672,60.423615 147.416687,71.000229 
z"/>
<path fill="#FAFAFA" opacity="1.000000" stroke="none" 
	d="
M90.000061,17.856298 
	C101.812668,17.856298 113.125282,17.856298 124.903923,17.856298 
	C125.001640,19.634558 125.086731,21.182896 125.187332,23.013618 
	C102.057846,23.013618 79.300400,23.013618 56.180466,23.013618 
	C56.180466,21.562561 56.180466,20.014257 56.180466,17.856298 
	C67.294830,17.856298 78.397446,17.856298 90.000061,17.856298 
z"/>
<path fill="#FAFAFA" opacity="1.000000" stroke="none" 
	d="
M97.999939,132.143707 
	C83.854530,132.143707 70.209114,132.143707 56.096779,132.143707 
	C55.998585,130.367035 55.913017,128.818832 55.812557,127.001114 
	C78.941521,127.001114 101.699234,127.001114 124.819427,127.001114 
	C124.819427,128.438141 124.819427,129.986237 124.819427,132.143707 
	C116.040100,132.143707 107.270020,132.143707 97.999939,132.143707 
z"/>
<path fill="#D2D2D2" opacity="1.000000" stroke="none" 
	d="
M172.950500,77.918381 
	C167.812027,78.318420 169.484100,75.104355 169.404419,72.393372 
	C171.128296,72.267792 172.674118,72.155190 175.628387,71.939980 
	C174.693817,74.415520 174.033371,76.164932 172.950500,77.918381 
z"/>
<path fill="#D2D2D2" opacity="1.000000" stroke="none" 
	d="
M8.891247,72.111481 
	C10.405129,73.550362 11.491385,74.988548 12.577640,76.426735 
	C12.215316,76.801178 11.852993,77.175621 11.490670,77.550064 
	C9.829743,77.550064 8.168818,77.550064 4.629402,77.550064 
	C6.307426,75.169594 7.385522,73.640182 8.891247,72.111481 
z"/>
<path fill="#D6D6D6" opacity="1.000000" stroke="none" 
	d="
M8.878178,100.020432 
	C10.394831,101.493172 11.482965,102.965477 13.312316,105.440681 
	C9.800803,105.637131 8.235554,105.724693 6.169883,105.840256 
	C6.641677,103.455818 3.792812,100.498009 8.878178,100.020432 
z"/>
<path fill="#D6D6D6" opacity="1.000000" stroke="none" 
	d="
M169.769989,105.267143 
	C169.490677,103.500954 169.490677,102.041718 169.490677,100.235626 
	C171.198517,100.158722 172.782990,100.087364 174.767380,99.998001 
	C174.881744,101.873581 174.978058,103.453125 175.107391,105.574089 
	C173.197800,105.574089 171.623550,105.574089 169.769989,105.267143 
z"/>
<path fill="#D6D6D6" opacity="1.000000" stroke="none" 
	d="
M174.943283,48.796616 
	C173.188797,49.520279 171.516724,49.821064 169.515198,50.181110 
	C169.515198,47.962414 169.515198,46.383991 169.515198,44.613289 
	C172.934921,43.823013 175.729477,43.490520 174.943283,48.796616 
z"/>
<path fill="#D6D6D6" opacity="1.000000" stroke="none" 
	d="
M10.536896,44.318367 
	C11.250886,46.093590 11.556663,47.764458 11.920932,49.754944 
	C9.674009,49.754944 8.089836,49.754944 6.274339,49.754944 
	C5.707992,46.429947 5.150191,43.449814 10.536896,44.318367 
z"/>
<path fill="#131313" opacity="1.000000" stroke="none" 
	d="
M49.599686,47.599678 
	C50.390789,38.227627 54.953320,33.874165 63.748543,33.853867 
	C81.578926,33.812721 99.409538,33.811443 117.239914,33.854252 
	C126.193077,33.875748 131.331528,38.822018 131.373825,47.651768 
	C131.461639,65.981735 131.476028,84.312889 131.365875,102.642624 
	C131.314148,111.247459 125.256355,116.852211 116.955811,116.078728 
	C115.652046,115.957237 114.468506,114.545540 113.229370,113.730408 
	C114.445580,112.860039 115.577095,111.406113 116.891914,111.215309 
	C124.617195,110.094246 126.386467,108.328377 126.398506,100.740845 
	C126.425751,83.576973 126.426949,66.413002 126.398132,49.249130 
	C126.385017,41.434689 123.783386,38.898026 115.873314,38.891735 
	C98.709404,38.878086 81.545448,38.866650 64.381584,38.897934 
	C57.486454,38.910503 54.635651,41.661388 54.612942,48.494537 
	C54.554245,66.158180 54.554832,83.822266 54.612587,101.485916 
	C54.634968,108.331825 57.477657,111.081177 64.361572,111.102196 
	C76.359535,111.138832 88.359665,111.008583 100.353462,111.235352 
	C101.982819,111.266159 103.580864,112.952477 105.193405,113.872238 
	C103.607895,114.641052 102.032425,116.051460 100.435272,116.076447 
	C88.440140,116.264145 76.440666,116.203079 64.442673,116.171173 
	C54.549160,116.144859 49.636707,111.328087 49.611237,101.531876 
	C49.564880,83.701515 49.598164,65.870949 49.599686,47.599678 
z"/>
<path fill="#090909" opacity="1.000000" stroke="none" 
	d="
M81.135941,77.879013 
	C81.135406,79.354759 81.344437,80.410583 81.084007,81.333992 
	C80.716103,82.638428 80.001167,83.844986 79.434586,85.093391 
	C78.129753,84.329811 76.550591,83.814484 75.583214,82.745506 
	C74.064507,81.067299 72.958412,79.015701 71.019608,76.149506 
	C70.841629,78.978592 70.982018,80.869423 70.515358,82.596214 
	C70.241882,83.608200 69.001144,84.358780 68.195518,85.226952 
	C67.352371,84.418930 65.817474,83.642143 65.779343,82.797775 
	C65.547363,77.659653 65.569740,72.503372 65.735352,67.360497 
	C65.763161,66.497185 66.781494,65.149521 67.562187,64.967026 
	C68.398796,64.771477 69.823654,65.426140 70.416412,66.168915 
	C72.132393,68.319160 73.559471,70.699959 76.026939,72.833656 
	C76.026939,71.454491 75.680565,69.951859 76.116760,68.728172 
	C76.633591,67.278252 77.824905,66.068748 78.723885,64.755043 
	C79.527733,66.145996 80.830444,67.470001 81.028046,68.942322 
	C81.400360,71.716393 81.135773,74.575958 81.135941,77.879013 
z"/>
<path fill="#151515" opacity="1.000000" stroke="none" 
	d="
M104.995392,83.859642 
	C101.946754,86.357224 100.470993,85.271881 100.376816,82.039787 
	C100.241005,77.378639 100.127022,72.693550 100.491180,68.056961 
	C100.586540,66.842850 102.304092,65.154762 103.594688,64.780212 
	C105.422012,64.249908 107.579468,64.519974 109.533211,64.835571 
	C113.131241,65.416779 115.056282,67.839951 115.327194,71.362938 
	C115.616135,75.120346 113.915512,77.832520 110.219543,78.942940 
	C108.831268,79.360023 107.306602,79.323082 105.598198,79.521736 
	C105.440918,80.887192 105.292816,82.172958 104.995392,83.859642 
z"/>
<path fill="#0F0F0F" opacity="1.000000" stroke="none" 
	d="
M90.740883,74.954636 
	C90.740860,76.743393 90.740860,78.060776 90.740860,79.668068 
	C92.028236,79.991776 93.515831,79.969185 94.359871,80.694992 
	C95.129578,81.356865 95.201569,82.830124 95.581085,83.945763 
	C93.272316,84.410332 90.952858,85.242516 88.659538,85.175819 
	C87.600601,85.145027 85.768509,83.410362 85.702187,82.358955 
	C85.389481,77.402412 85.451981,72.409821 85.672813,67.443085 
	C85.713814,66.520859 87.096413,65.658272 87.859840,64.768166 
	C88.796692,65.685028 90.339432,66.484268 90.544960,67.543098 
	C90.980095,69.784706 90.717407,72.161758 90.740883,74.954636 
z"/>
</svg>