<?xml version="1.0" encoding="utf-8"?><svg version="1.1" id="Layer_1" xmlns="http://www.w3.org/2000/svg" xmlns:xlink="http://www.w3.org/1999/xlink" x="0px" y="0px" viewBox="0 0 122.88 100.33" style="enable-background:new 0 0 122.88 100.33" xml:space="preserve"><style type="text/css"><![CDATA[
	.st0{fill-rule:evenodd;clip-rule:evenodd;}
]]></style><g><path class="st0" d="M102.79,7.11l2.59,3.41c0.68,0.9,0.51,2.19-0.39,2.87l-2.75,2.09c0.5,1.33,0.82,2.75,0.95,4.2l3.13,0.43 c1.12,0.15,1.9,1.19,1.75,2.31l-0.58,4.25c-0.15,1.12-1.19,1.91-2.31,1.75l-3.42-0.47c-0.61,1.33-1.39,2.55-2.31,3.64l1.92,2.52 c0.68,0.9,0.5,2.19-0.4,2.87l-3.41,2.59c-0.9,0.68-2.19,0.5-2.87-0.39l-2.09-2.75c-1.34,0.5-2.75,0.82-4.21,0.95l-0.43,3.13 c-0.15,1.12-1.19,1.9-2.31,1.75l-4.25-0.58c-1.12-0.15-1.9-1.19-1.75-2.31l0.47-3.42c-1.32-0.61-2.55-1.39-3.64-2.3l-2.52,1.91 c-0.9,0.68-2.19,0.51-2.87-0.39l-2.59-3.41c-0.68-0.9-0.51-2.19,0.39-2.87l2.75-2.09c-0.5-1.34-0.82-2.75-0.95-4.2l-3.13-0.43 c-1.12-0.15-1.91-1.19-1.75-2.31l0.58-4.25c0.16-1.12,1.19-1.9,2.31-1.75l3.42,0.47c0.61-1.32,1.39-2.55,2.3-3.64l-1.91-2.52 C71.83,7.28,72,5.99,72.9,5.31l3.41-2.59c0.9-0.68,2.19-0.51,2.87,0.39l2.09,2.75c1.33-0.5,2.75-0.82,4.2-0.95l0.43-3.13 c0.15-1.12,1.19-1.91,2.31-1.76l4.25,0.58c1.12,0.15,1.91,1.19,1.75,2.31l-0.47,3.42c1.33,0.61,2.55,1.39,3.65,2.31l2.52-1.91 C100.81,6.04,102.1,6.21,102.79,7.11L102.79,7.11L102.79,7.11z M29.67,67.12v-16.5h8.5c1.58,0,2.78,0.13,3.61,0.41 c0.83,0.27,1.51,0.77,2.01,1.5c0.51,0.74,0.77,1.63,0.77,2.68c0,0.91-0.2,1.71-0.59,2.37c-0.39,0.67-0.93,1.21-1.61,1.62 c-0.43,0.26-1.03,0.48-1.79,0.65c0.61,0.21,1.05,0.4,1.32,0.61c0.19,0.14,0.46,0.43,0.81,0.87c0.35,0.44,0.59,0.79,0.71,1.03 l2.48,4.77h-5.76l-2.72-5.03c-0.35-0.65-0.65-1.08-0.92-1.27c-0.37-0.25-0.79-0.38-1.25-0.38h-0.45v6.68H29.67L29.67,67.12z M47.65,95.85h-9.52l-1.37,4.48h-8.58l10.23-27.19h9.2l10.19,27.19h-8.8L47.65,95.85L47.65,95.85z M45.87,89.96l-2.97-9.78 l-2.98,9.78H45.87L45.87,89.96z M59.78,73.14h13.98c3.05,0,5.33,0.72,6.84,2.17c1.51,1.45,2.27,3.52,2.27,6.19 c0,2.75-0.83,4.9-2.48,6.45c-1.65,1.55-4.18,2.32-7.57,2.32h-4.61v10.06h-8.43V73.14L59.78,73.14z M68.21,84.76h2.07 c1.63,0,2.78-0.28,3.44-0.85c0.66-0.56,0.99-1.29,0.99-2.16c0-0.85-0.29-1.58-0.86-2.17c-0.57-0.59-1.65-0.89-3.23-0.89h-2.41 V84.76L68.21,84.76z M86.27,73.14h8.43v27.19h-8.43V73.14L86.27,73.14z M34.79,57.32h2.15c0.23,0,0.68-0.08,1.35-0.23 c0.34-0.07,0.62-0.24,0.83-0.52c0.22-0.28,0.32-0.6,0.32-0.96c0-0.53-0.17-0.95-0.51-1.23c-0.34-0.29-0.97-0.43-1.9-0.43h-2.24 V57.32L34.79,57.32z M46.87,50.62h13.65v3.52h-8.53v2.63h7.91v3.36h-7.91v3.25h8.78v3.73h-13.9V50.62L46.87,50.62z M61.98,61.66 l4.84-0.3c0.1,0.79,0.32,1.38,0.64,1.79c0.53,0.66,1.28,1,2.25,1c0.72,0,1.29-0.17,1.68-0.51c0.39-0.34,0.59-0.74,0.59-1.19 c0-0.43-0.19-0.81-0.56-1.15c-0.37-0.34-1.24-0.65-2.61-0.96c-2.23-0.5-3.82-1.17-4.78-2c-0.96-0.83-1.44-1.89-1.44-3.18 c0-0.85,0.25-1.65,0.74-2.4c0.49-0.75,1.23-1.35,2.22-1.78c0.99-0.43,2.34-0.64,4.06-0.64c2.11,0,3.71,0.39,4.82,1.18 c1.1,0.79,1.76,2.03,1.97,3.75l-4.79,0.29c-0.13-0.75-0.4-1.3-0.8-1.63c-0.41-0.34-0.98-0.51-1.69-0.51 c-0.59,0-1.04,0.13-1.34,0.38c-0.3,0.25-0.45,0.56-0.45,0.92c0,0.26,0.13,0.49,0.37,0.71c0.24,0.21,0.8,0.42,1.7,0.61 c2.23,0.48,3.83,0.97,4.79,1.46c0.96,0.49,1.67,1.1,2.1,1.83c0.44,0.72,0.66,1.54,0.66,2.44c0,1.06-0.29,2.03-0.88,2.92 c-0.58,0.89-1.4,1.57-2.45,2.03c-1.05,0.46-2.37,0.69-3.97,0.69c-2.8,0-4.75-0.54-5.83-1.62C62.74,64.69,62.13,63.32,61.98,61.66 L61.98,61.66z M77.69,50.62h15.51v4.08H88v12.42H82.9V54.7h-5.21V50.62L77.69,50.62z M60.53,11.46c-1.83-0.14-3.68-0.12-5.51,0.06 c-5.63,0.54-11.1,2.59-15.62,6.1c-5.23,4.05-9.2,10.11-10.73,18.14l-0.48,2.51l-2.5,0.44c-2.45,0.43-4.64,1.02-6.56,1.77 c-1.86,0.72-3.52,1.61-4.97,2.66c-1.16,0.84-2.16,1.78-3.01,2.8c-2.63,3.15-3.85,7.1-3.82,11.1c0.03,4.06,1.35,8.16,3.79,11.53 c0.91,1.25,1.96,2.4,3.16,3.4c1.22,1.01,2.59,1.85,4.13,2.48c0.87,0.36,1.8,0.66,2.77,0.9v7.49c-2-0.36-3.84-0.9-5.56-1.61 c-2.27-0.94-4.28-2.15-6.05-3.63c-1.68-1.4-3.15-2.99-4.4-4.72C1.84,68.28,0.04,62.66,0,57.06c-0.04-5.66,1.72-11.29,5.52-15.85 c1.23-1.48,2.68-2.84,4.34-4.04c1.93-1.4,4.14-2.58,6.64-3.55c1.72-0.67,3.56-1.23,5.5-1.68c2.2-8.74,6.89-15.47,12.92-20.14 c5.64-4.37,12.43-6.92,19.42-7.59c3.67-0.35,7.39-0.19,11.03,0.49c-0.08,0.33-0.15,0.66-0.19,1l-0.01,0.06 c-0.07,0.57-0.1,1.14-0.07,1.72c-0.77,0.3-1.49,0.71-2.14,1.21l-0.03,0.02C61.96,9.44,61.14,10.38,60.53,11.46L60.53,11.46z M113.44,30.66c0.56,0.51,1.1,1.04,1.63,1.61c1.07,1.15,2.08,2.45,3.03,3.9c3.2,4.92,4.84,11.49,4.77,17.92 c-0.07,6.31-1.77,12.59-5.25,17.21c-2.27,3.01-5.18,5.47-8.67,7.42c-2.39,1.34-5.08,2.45-8.01,3.35v-7.75 c1.58-0.59,3.05-1.25,4.4-2c2.63-1.47,4.78-3.26,6.39-5.41c2.5-3.33,3.73-8.04,3.78-12.87c0.06-5.07-1.18-10.16-3.59-13.86 c-0.69-1.07-1.45-2.03-2.25-2.89c-0.31-0.33-0.62-0.64-0.94-0.94c0.05-0.5,0.07-1.01,0.04-1.52c0.77-0.3,1.49-0.71,2.14-1.21 l0.03-0.02C111.97,32.81,112.83,31.81,113.44,30.66L113.44,30.66z M88.08,12.8c4.61,0.63,7.83,4.88,7.2,9.49 c-0.63,4.61-4.88,7.84-9.49,7.21c-4.61-0.63-7.84-4.88-7.2-9.49C79.23,15.4,83.47,12.17,88.08,12.8L88.08,12.8L88.08,12.8z"/></g></svg>
