<!-- icon666.com - MILLIONS OF FREE VECTOR ICONS --><svg viewBox="-1 0 491 492" xmlns="http://www.w3.org/2000/svg"><path d="m484.5 216c0 44.183594-35.816406 80-80 80s-80-35.816406-80-80 35.816406-80 80-80 80 35.816406 80 80zm0 0" fill="#ffd740"></path><g fill="#263238"><path d="m404.5 300c-46.320312 0-84-37.679688-84-84s37.679688-84 84-84 84 37.679688 84 84-37.679688 84-84 84zm0-160c-41.902344 0-76 34.097656-76 76s34.097656 76 76 76 76-34.097656 76-76-34.097656-76-76-76zm0 0"></path><path d="m404.5 280c-35.289062 0-64-28.710938-64-64s28.710938-64 64-64 64 28.710938 64 64-28.710938 64-64 64zm0-120c-30.878906 0-56 25.121094-56 56s25.121094 56 56 56 56-25.121094 56-56-25.121094-56-56-56zm0 0"></path><path d="m408.5 244h-20c-2.207031 0-4-1.792969-4-4s1.792969-4 4-4h20c4.40625 0 8-3.59375 8-8s-3.59375-8-8-8h-8c-8.824219 0-16-7.175781-16-16s7.175781-16 16-16h16c2.207031 0 4 1.792969 4 4s-1.792969 4-4 4h-16c-4.40625 0-8 3.59375-8 8s3.59375 8 8 8h8c8.824219 0 16 7.175781 16 16s-7.175781 16-16 16zm0 0"></path><path d="m404.5 196c-2.207031 0-4-1.792969-4-4v-12c0-2.207031 1.792969-4 4-4s4 1.792969 4 4v12c0 2.207031-1.792969 4-4 4zm0 0"></path><path d="m404.5 256c-2.207031 0-4-1.792969-4-4v-12c0-2.207031 1.792969-4 4-4s4 1.792969 4 4v12c0 2.207031-1.792969 4-4 4zm0 0"></path><path d="m128.5 492h-104c-13.230469 0-24-10.769531-24-24v-104c0-13.230469 10.769531-24 24-24h104c13.230469 0 24 10.769531 24 24v104c0 13.230469-10.769531 24-24 24zm-104-144c-8.824219 0-16 7.175781-16 16v104c0 8.824219 7.175781 16 16 16h104c8.824219 0 16-7.175781 16-16v-104c0-8.824219-7.175781-16-16-16zm0 0"></path><path d="m36.5 392c-2.207031 0-4-1.792969-4-4v-24c0-2.207031 1.792969-4 4-4s4 1.792969 4 4v24c0 2.207031-1.792969 4-4 4zm0 0"></path><path d="m116.5 392c-2.207031 0-4-1.792969-4-4v-24c0-2.207031 1.792969-4 4-4s4 1.792969 4 4v24c0 2.207031-1.792969 4-4 4zm0 0"></path><path d="m76.5 432c-2.207031 0-4-1.792969-4-4v-24c0-2.207031 1.792969-4 4-4s4 1.792969 4 4v24c0 2.207031-1.792969 4-4 4zm0 0"></path><path d="m116.5 432c-2.207031 0-4-1.792969-4-4v-24c0-2.207031 1.792969-4 4-4s4 1.792969 4 4v24c0 2.207031-1.792969 4-4 4zm0 0"></path><path d="m76.5 392c-6.617188 0-12-5.382812-12-12v-8c0-6.617188 5.382812-12 12-12s12 5.382812 12 12v8c0 6.617188-5.382812 12-12 12zm0-24c-2.207031 0-4 1.792969-4 4v8c0 2.207031 1.792969 4 4 4s4-1.792969 4-4v-8c0-2.207031-1.792969-4-4-4zm0 0"></path><path d="m36.5 432c-6.617188 0-12-5.382812-12-12v-8c0-6.617188 5.382812-12 12-12s12 5.382812 12 12v8c0 6.617188-5.382812 12-12 12zm0-24c-2.207031 0-4 1.792969-4 4v8c0 2.207031 1.792969 4 4 4s4-1.792969 4-4v-8c0-2.207031-1.792969-4-4-4zm0 0"></path><path d="m36.5 472c-6.617188 0-12-5.382812-12-12v-8c0-6.617188 5.382812-12 12-12s12 5.382812 12 12v8c0 6.617188-5.382812 12-12 12zm0-24c-2.207031 0-4 1.792969-4 4v8c0 2.207031 1.792969 4 4 4s4-1.792969 4-4v-8c0-2.207031-1.792969-4-4-4zm0 0"></path><path d="m76.5 472c-6.617188 0-12-5.382812-12-12v-8c0-6.617188 5.382812-12 12-12s12 5.382812 12 12v8c0 6.617188-5.382812 12-12 12zm0-24c-2.207031 0-4 1.792969-4 4v8c0 2.207031 1.792969 4 4 4s4-1.792969 4-4v-8c0-2.207031-1.792969-4-4-4zm0 0"></path><path d="m116.5 472c-6.617188 0-12-5.382812-12-12v-8c0-6.617188 5.382812-12 12-12s12 5.382812 12 12v8c0 6.617188-5.382812 12-12 12zm0-24c-2.207031 0-4 1.792969-4 4v8c0 2.207031 1.792969 4 4 4s4-1.792969 4-4v-8c0-2.207031-1.792969-4-4-4zm0 0"></path><path d="m36.5 284c-2.207031 0-4-1.792969-4-4v-8c0-2.207031 1.792969-4 4-4s4 1.792969 4 4v8c0 2.207031-1.792969 4-4 4zm0 0"></path><path d="m36.5 260c-2.207031 0-4-1.792969-4-4v-112c0-2.207031 1.792969-4 4-4s4 1.792969 4 4v112c0 2.207031-1.792969 4-4 4zm0 0"></path><path d="m444.5 340c-2.207031 0-4-1.792969-4-4v-8c0-2.207031 1.792969-4 4-4s4 1.792969 4 4v8c0 2.207031-1.792969 4-4 4zm0 0"></path><path d="m444.5 468c-2.207031 0-4-1.792969-4-4v-112c0-2.207031 1.792969-4 4-4s4 1.792969 4 4v112c0 2.207031-1.792969 4-4 4zm0 0"></path><path d="m152.5 88h-76c-1.617188 0-3.078125-.976562-3.695312-2.472656-.625-1.496094-.28125-3.214844.863281-4.359375l76-76c1.152343-1.152344 2.863281-1.488281 4.359375-.863281 1.496094.617187 2.472656 2.078124 2.472656 3.695312v76c0 2.207031-1.792969 4-4 4zm-66.34375-8h62.34375v-62.34375zm0 0"></path></g><path d="m164.5 160h-32c-4.414062 0-8-3.585938-8-8v-32c0-4.414062 3.585938-8 8-8h32c4.414062 0 8 3.585938 8 8v32c0 4.414062-3.585938 8-8 8zm0 0" fill="#ff5252"></path><path d="m164.5 164h-32c-6.617188 0-12-5.382812-12-12v-32c0-6.617188 5.382812-12 12-12h32c6.617188 0 12 5.382812 12 12v32c0 6.617188-5.382812 12-12 12zm-32-48c-2.207031 0-4 1.792969-4 4v32c0 2.207031 1.792969 4 4 4h32c2.207031 0 4-1.792969 4-4v-32c0-2.207031-1.792969-4-4-4zm0 0" fill="#263238"></path><path d="m337.835938 140h-120c-2.207032 0-4-1.792969-4-4s1.792968-4 4-4h120c2.207031 0 4 1.792969 4 4s-1.792969 4-4 4zm0 0" fill="#263238"></path><path d="m164.5 240h-32c-4.414062 0-8-3.585938-8-8v-32c0-4.414062 3.585938-8 8-8h32c4.414062 0 8 3.585938 8 8v32c0 4.414062-3.585938 8-8 8zm0 0" fill="#ff5252"></path><path d="m164.5 244h-32c-6.617188 0-12-5.382812-12-12v-32c0-6.617188 5.382812-12 12-12h32c6.617188 0 12 5.382812 12 12v32c0 6.617188-5.382812 12-12 12zm-32-48c-2.207031 0-4 1.792969-4 4v32c0 2.207031 1.792969 4 4 4h32c2.207031 0 4-1.792969 4-4v-32c0-2.207031-1.792969-4-4-4zm0 0" fill="#263238"></path><path d="m308.5 220h-90.664062c-2.207032 0-4-1.792969-4-4s1.792968-4 4-4h90.664062c2.207031 0 4 1.792969 4 4s-1.792969 4-4 4zm0 0" fill="#263238"></path><path d="m164.5 320h-32c-4.414062 0-8-3.585938-8-8v-32c0-4.414062 3.585938-8 8-8h32c4.414062 0 8 3.585938 8 8v32c0 4.414062-3.585938 8-8 8zm0 0" fill="#ff5252"></path><path d="m164.5 324h-32c-6.617188 0-12-5.382812-12-12v-32c0-6.617188 5.382812-12 12-12h32c6.617188 0 12 5.382812 12 12v32c0 6.617188-5.382812 12-12 12zm-32-48c-2.207031 0-4 1.792969-4 4v32c0 2.207031 1.792969 4 4 4h32c2.207031 0 4-1.792969 4-4v-32c0-2.207031-1.792969-4-4-4zm0 0" fill="#263238"></path><path d="m337.835938 300h-120c-2.207032 0-4-1.792969-4-4s1.792968-4 4-4h120c2.207031 0 4 1.792969 4 4s-1.792969 4-4 4zm0 0" fill="#263238"></path><path d="m384.5 444h-220c-2.207031 0-4-1.792969-4-4s1.792969-4 4-4h220c8.824219 0 16-7.175781 16-16v-108c0-2.207031 1.792969-4 4-4s4 1.792969 4 4v108c0 13.230469-10.769531 24-24 24zm0 0" fill="#263238"></path><path d="m76.5 332c-2.207031 0-4-1.792969-4-4v-244c0-1.0625.425781-2.078125 1.167969-2.832031l76-76c.753906-.742188 1.769531-1.167969 2.832031-1.167969h232c13.230469 0 24 10.769531 24 24v92c0 2.207031-1.792969 4-4 4s-4-1.792969-4-4v-92c0-8.824219-7.175781-16-16-16h-230.34375l-73.65625 73.65625v242.34375c0 2.207031-1.792969 4-4 4zm0 0" fill="#263238"></path><path d="m92.5 24h-32c-2.207031 0-4-1.792969-4-4s1.792969-4 4-4h32c2.207031 0 4 1.792969 4 4s-1.792969 4-4 4zm0 0" fill="#263238"></path><path d="m76.5 40c-2.207031 0-4-1.792969-4-4v-32c0-2.207031 1.792969-4 4-4s4 1.792969 4 4v32c0 2.207031-1.792969 4-4 4zm0 0" fill="#263238"></path><path d="m36.5 76h-32c-2.207031 0-4-1.792969-4-4s1.792969-4 4-4h32c2.207031 0 4 1.792969 4 4s-1.792969 4-4 4zm0 0" fill="#263238"></path><path d="m20.5 92c-2.207031 0-4-1.792969-4-4v-32c0-2.207031 1.792969-4 4-4s4 1.792969 4 4v32c0 2.207031-1.792969 4-4 4zm0 0" fill="#263238"></path><path d="m380.5 76c-2.207031 0-4-1.792969-4-4v-32c0-2.207031-1.792969-4-4-4h-32c-2.207031 0-4-1.792969-4-4s1.792969-4 4-4h32c6.617188 0 12 5.382812 12 12v32c0 2.207031-1.792969 4-4 4zm0 0" fill="#263238"></path></svg>