<?xml version="1.0" encoding="UTF-8"?><svg id="Layer_1" xmlns="http://www.w3.org/2000/svg" viewBox="0 0 1795.06 804.78"><defs><style>.cls-1{fill:#010101;stroke-width:0px;}</style></defs><path class="cls-1" d="m402.86,188.29c-118.24,0-214.1,95.86-214.1,214.1s95.86,214.1,214.1,214.1,214.1-95.86,214.1-214.1-95.86-214.1-214.1-214.1Zm0,395.22c-100.03,0-181.12-81.09-181.12-181.12s81.09-181.12,181.12-181.12,181.12,81.09,181.12,181.12-81.09,181.12-181.12,181.12Z"/><path class="cls-1" d="m1065.8,302.22h-22.4s.03,93.76.05,137.08c0,5.12-.33,10.19-1.55,15.18-1.64,6.73-5.32,12.01-11.94,14.34-16.06,5.65-32.29,5.65-48.36.03-6.62-2.31-10.33-7.59-12.09-14.26-1.43-5.42-1.71-10.97-1.71-16.56.01-42.09.09-135.81.09-135.81h-22.47s.01,92.79-.02,134.91c0,4.87-.14,9.74-.98,14.56-1.75,10.07-7.56,16.52-17.5,18.9-12.95,3.1-26,3.05-38.95,0-8.88-2.09-14.73-7.56-16.84-16.6-.53-2.25-.8-4.57-.98-6.88-.24-3-.36-6.02-.36-9.03-.02-44.08.04-135.87.04-135.87h-22.62s.06,93.85.11,136.51c0,4.98.17,9.99.69,14.93,1.72,16.26,9.73,27.68,25.77,32.8,12,3.83,24.38,4.67,36.78,4.26,18.11-.6,34.69-5.12,46.07-21.44,6.85,10.06,16.07,15.94,27.24,18.77,17.72,4.49,35.48,3.53,53-.83,11.64-2.9,20.92-9.38,25.44-21.16,2.82-7.36,3.48-15.1,3.49-22.9.03-37.35,0-140.94,0-140.94Z"/><path class="cls-1" d="m1246.79,350.36c0-5.59-.43-11.11-1.36-16.61-1.9-11.28-7.76-19.66-18.02-24.88-9.47-4.82-19.69-6.66-30.13-7.62-20.18-1.86-40.29-1.71-60.24,2.35-22.38,4.55-33.3,16.58-33.91,39.27-.62,23.29-.29,69.93-.37,69.93,0,22.21.03,44.43-.05,66.64h-.01s0,9.54,0,9.54h22.68v-8.54c-.12-19.33-.15-57.16-.15-57.16v-3.57s99.17,0,99.17,0l.02,4s-.06,37.16-.12,55.74h0s0,9.54,0,9.54h22.55s-.09-95.25-.06-138.6Zm-22.38,49.89h-99.16v-3.23s.12-33.15.16-49.72c0-3.25.34-6.46,1.1-9.64,2.57-10.8,10.6-15.24,20.44-17.29,16.75-3.48,33.64-3,50.52-1.06,3.2.37,6.34,1.35,9.46,2.23,11.19,3.16,16.41,11.04,17.1,22.23.32,5.08.3,10.19.31,15.29.04,12.63.08,37.9.08,37.9v3.29Z"/><path class="cls-1" d="m1396.9,392.65c-16.63-4.35-33.78-5.87-50.64-8.96-8.32-1.52-16.73-2.6-25.01-4.3-11.17-2.3-16.64-9.23-16.77-20.65-.05-4.17-.05-8.35.11-12.53.51-14.17,5.88-22.03,19.6-25,21.07-4.57,42.37-4.95,63.34,1.13,9.65,2.8,14.38,9.91,15.54,19.7.65,5.51.52,15.26.52,15.26h22.41v-5.6c-.05-3.55.05-6.88-.26-10.41-1.83-20.83-10.19-30.83-30.29-36.51-13.54-3.83-27.47-3.99-41.43-4.37-14.32.37-28.68.69-42.67,4.71-16.43,4.73-26.64,14.75-28.55,32.34-.84,7.77-.62,15.52-.64,23.29-.03,17.49,9.61,30.68,26.28,36.03,12.21,3.92,25.02,4.78,37.55,7.03,12.09,2.17,24.29,3.7,36.36,5.96,10.23,1.91,18.47,6.81,20.55,17.99,1.49,8.02,1.06,16.2-.24,24.25-1.41,8.69-6.5,14.73-14.93,17.09-21.79,6.09-43.79,5.83-65.67.56-10.39-2.5-15.86-9.76-17.07-20.39-.32-2.83-.44-5.67-.48-8.51h.02s0-9.61,0-9.61v-5.31h-22.43v12.45h0c-.04,6.82.07,13.63,1.49,20.37,2.19,10.46,7.74,18.45,17.38,23.44,5.4,2.8,11.09,4.67,17.03,5.88,16.49,3.35,33.19,3.57,49.89,2.74,10.29-.51,20.56-1.65,30.48-4.88,14.24-4.63,23.83-13.34,26.48-28.73,1.53-8.89,1.17-17.8,1.18-26.72.02-19.46-10.19-32.79-29.1-37.74Z"/><path class="cls-1" d="m810.9,341.16c-.78-13.15-5.29-24.42-17.48-31.29-5.29-2.99-10.97-4.98-16.89-6.25-15.29-3.28-30.81-3.89-46.36-3.34-12.04.42-24.09,1.28-35.69,4.97-10.77,3.42-19.88,9-24.62,19.86-3.22,7.37-3.86,15.26-3.88,23.15-.08,31.43-.04,62.86-.03,94.29,0,1.51.01,3.02.12,4.52.73,10.31,2.3,20.34,10.02,28.16,6.79,6.88,15.42,10.26,24.59,12.12,22.84,4.64,45.85,4.36,68.86,1.35,6.67-.87,13.16-2.65,19.4-5.29,14.78-6.25,21.09-18.1,21.97-33.38,1.05-18.19.13-36.41.51-54.61-.38-18.09.55-36.19-.51-54.26Zm-22.14,98.96c0,1.62-.03,3.25-.11,4.87-.68,13.92-5.59,21.39-19.12,24.65-21.22,5.11-42.74,5.16-63.97-.57-10.36-2.8-15.65-10.2-16.64-20.73-.35-3.69-.59-7.4-.6-11.1-.05-28.06-.06-56.11,0-84.17,0-3.93.3-7.88.76-11.78,1.39-11.95,9.02-18.24,20.05-20.55,19.63-4.1,39.4-4.16,59.02.04,13.54,2.9,20.08,10.76,20.4,24.75.38,16.69.22,79.76.21,94.6Z"/><path class="cls-1" d="m1604.9,340.89c-1.33-13.42-7.92-24.03-20.1-30.71-10.81-5.92-22.63-7.57-34.62-7.69-27.03-.27-88.17-.27-88.17-.27l-.03,186.73h22.57l-.12-53.83s42.03.12,61.4.04c8.59-.04,17.11-.74,25.54-2.62,19.28-4.29,31.93-17.58,33.65-37.12,1.59-18.13,1.68-36.4-.12-54.52Zm-22.8,53.51c-1.78,11.16-8.94,17.96-19.68,21.12-5.51,1.62-11.17,1.99-16.86,2-19.25.03-61.13.08-61.13.08v-97.42s43.84.06,64.25.06c5.97,0,11.8.89,17.36,3.1,9.87,3.94,15.47,11.56,16.51,21.84,1.65,16.38,2.15,32.87-.45,49.21Z"/><path class="cls-1" d="m531.55,321.7c-4.15-2.63-8.44-4.98-13.13-6.57-2.55-.86-5.03-.75-7.56.06-4.12,1.33-8.06,3.05-11.94,4.94-.61.11-.79-.46-1.17-.72-3.4-5.78-7.99-10.39-13.74-13.82-1.05-.63-1.09-1.11-.6-2.13,1.84-3.81,3.53-7.69,4.74-11.76.66-2.23.68-4.42-.03-6.65-1.52-4.79-3.95-9.14-6.61-13.36-.47-.75-1.12-1.19-1.99-.66-.84.52-.79,1.29-.33,2.07.16.27.34.54.5.81,2.22,3.66,4.3,7.38,5.68,11.46.69,2.03.71,4,.05,6.04-1.22,3.77-2.82,7.39-4.49,10.97-.1.21-.16.45-.45.52-.35-.37-.31-.87-.43-1.32-1.04-3.74-4.39-6.41-8.26-6.55-3.9-.14-6.96,2.07-8.28,5.99-.14.42-.24.82-.74.99-4.17,1.42-7.05,4.25-8.94,8.17-.63.57-.72,1.39-.93,2.14-1.25,4.42-.73,8.76.61,13.06.34,1.08.73,2.13,1.11,3.22-.57.18-.95-.09-1.35-.21-4.61-1.34-9.26-1.66-13.91-.39-1.3.36-2.34.49-3.19-.7-2.5-3.8-4.99-7.61-7.52-11.39-.46-.68-.52-1.33-.41-2.12.77-5.65,1.4-11.31,1.39-17.02,0-.91,0-1.82-.24-2.71-.08-.26-.14-.59-.45-.64-.4-.07-.56.28-.65.57-.3.9-.62,1.8-.82,2.72-1.27,5.85-1.95,11.78-2.71,17.71-.19,1.48.02,2.78.57,4.14,1.42,3.48,2.75,7,4.11,10.5.13.35.41.69.21,1.16-.16-.04-.31-.06-.44-.12-2.85-1.47-5.68-2.97-8.54-4.42-.87-.44-1.36-1.07-1.64-2.03-1.67-5.7-3.36-11.39-5.4-16.96-.58-1.6-1.17-3.2-2.01-4.68-.21-.36-.38-.93-.89-.82-.55.12-.39.72-.37,1.11.07,1.06.16,2.13.34,3.18,1,5.9,2.54,11.67,3.9,17.49.63,2.69,1.39,5.18,3.93,6.69.06.04.1.12.15.18-.08.34.99.73-.06,1.02-2.52-.82-5.03-1.67-7.56-2.46-.71-.22-1.24-.61-1.72-1.17-3.42-4.01-6.93-7.93-10.81-11.5-.79-.72-1.59-1.43-2.53-1.95-.27-.15-.57-.38-.87-.12-.3.26-.12.59,0,.88.43,1.03,1.05,1.95,1.69,2.85,3.24,4.6,6.89,8.88,10.52,13.16.37.44.84.7,1.35.94,5.25,2.51,10.5,5.02,15.73,7.55.49.24,1.43.32.91,1.27-.44.8-.14,2.24-1.94,1.85-4.06-.88-8.15-1.59-12.24-2.35-19.34-3.59-38.75-6.71-58.26-9.21-21.58-2.76-43.25-4.07-65.01-4-10.53.03-21.05.3-31.5,1.79-1.84.26-3.68.6-5.42,1.26-1.26.48-1.53,1.21-.99,2.43.39.88,1,1.61,1.65,2.31,1.84,1.98,3.95,3.65,6.11,5.26,7.08,5.24,14.6,9.77,22.29,14.03,11.79,6.55,23.72,12.66,37.23,15.05,8.51,1.5,16.97,3.11,25.66,2.87,3.89-.11,7.74-.51,11.32-2.27,3.18-1.55,6.07-3.57,9.06-5.42,4.37-2.69,8.99-4.72,14.16-5.08,8.41-.59,16.79-1.46,25.18-2.28,6.81-.66,13.62-1.38,20.43-2.07.57-.06,1.08-.15,1.25.65.71,3.37,2.12,6.45,3.85,9.41,0,.37.22.65.4.94.4.65-.19.44-.45.52-5.53-3.14-11.24-3.02-17.05-.91-4.35,1.59-8.28,3.95-12.02,6.62-8.12,5.79-15.26,12.69-22.45,19.55-8.47,8.08-16.35,16.64-23.01,26.31-13.93,20.24-25.15,41.94-35.18,64.3h0s-2.29,5.08-2.29,5.08l4.18-1.84h0c14.5-6.41,28.67-13.45,42.45-21.3,11.56-6.59,22.88-13.58,33.12-22.13,11.05-9.23,20.8-19.79,30.19-30.68,4.24-4.93,8.09-10.16,10.84-16.1,3.18-6.89,4.09-13.78-.19-20.61l.47-.24c3.25,2.08,6.64,3.84,10.44,4.66,1.03.22,1.18.66,1.08,1.63-1.41,13.46-2.82,26.92-3.98,40.4-.3,3.5-.38,7.03-1.42,10.44-1.36,4.5-3.73,8.48-6.38,12.28-3.87,5.54-5.5,11.63-5.41,18.34.12,8.56,1.41,16.94,3.26,25.26,1.12,5.06,2.17,10.14,4.24,14.93,5.96,13.77,13.28,26.79,21.61,39.25,2.25,3.36,4.62,6.62,7.46,9.52.91.93,1.86,1.85,3.09,2.37,1.16.5,1.9.19,2.35-.99.28-.74.5-1.5.67-2.27,1.02-4.53,1.43-9.15,1.71-13.77,1.46-23.44.54-46.83-1.57-70.19-1.31-14.47-3.46-28.83-5.69-43.18-2.24-14.39-4.79-28.72-7.6-43.01-.34-1.72.98-1.45,1.75-1.89,1-.57,1.1.35,1.37.89,2.51,5.2,5,10.41,7.5,15.62.24.5.46,1,.9,1.37,4.5,3.81,8.97,7.66,13.85,10.99.62.42,1.27.8,1.94,1.14.36.18.83.56,1.18.11.32-.41-.05-.84-.3-1.17-.67-.88-1.35-1.76-2.1-2.57-2.76-3-5.68-5.87-8.87-8.4-2.32-1.83-3.89-3.96-4.46-6.84-.05-1.17-.67-2.18-.92-3.29-.18-.79-.77-1.49-.53-2.37.93,1.02,1.89,2.02,2.77,3.08.58.71,1.26,1.11,2.15,1.34,5.44,1.41,10.88,2.8,16.39,3.94,2.48.51,4.95,1.08,7.5,1.13.34,0,.8.08.92-.34.12-.42-.31-.6-.6-.78-.97-.62-2.04-1.05-3.11-1.47-6.2-2.41-12.59-4.26-18.96-6.15-.82-.24-1.39-.67-1.77-1.42-1.5-2.92-3.02-5.83-4.53-8.75-.06-.12-.06-.28-.1-.44.53-.12.9.17,1.28.32,3.84,1.48,7.67,2.97,11.5,4.48.61.24,1.2.35,1.85.27,6.24-.76,12.5-1.48,18.66-2.78,1.01-.21,2.01-.47,2.95-.89.28-.13.64-.26.56-.66-.06-.3-.38-.37-.65-.44-1.13-.26-2.28-.25-3.43-.23-5.51.06-10.98.65-16.43,1.39-.7.09-1.28.05-1.9-.36-4.03-2.66-8.07-5.3-12.13-7.91-.72-.46-.92-.87-.64-1.72,1.3-3.96,1.37-8,.66-12.08-.28-1.58-.83-3.1-1.21-4.66.54-.18.86.12,1.21.26,3.98,1.61,8.08,2.55,12.4,2.12,5.8-.58,10.32-3.22,12.86-8.62.65-1.37,1.36-2.21,2.83-2.78,3.32-1.31,5.17-4.76,4.82-8.34-.37-3.72-3.17-6.9-6.84-7.8-.35-.09-.8.05-1.05-.46.25-.14.47-.3.71-.41,3.08-1.45,6.24-2.71,9.4-3.98,3.23-1.3,6.29-1.05,9.42.31,3.57,1.55,6.97,3.4,10.26,5.46.77.48,1.53.59,2.08-.24.54-.81.22-1.52-.56-2.01Z"/><path class="cls-1" d="m1602.85,491.52v4.12h-11.66v30.49h-4.74v-30.49h-11.66v-4.12h28.06Z"/><path class="cls-1" d="m1607.04,491.52h6.72l9.95,29.26,9.88-29.26h6.67v34.61h-4.48v-20.43c0-.71.01-1.88.05-3.51.03-1.63.05-3.38.05-5.25l-9.88,29.19h-4.65l-9.98-29.19v1.06c0,.85.02,2.14.07,3.88.05,1.74.07,3.01.07,3.83v20.43h-4.48v-34.61Z"/></svg>